<?xml version="1.0" encoding="UTF-8"?>
<svg version="1.1" xmlns="http://www.w3.org/2000/svg" width="499" height="499">
<path d="M0 0 C1.41567885 -0.01041829 1.41567885 -0.01041829 2.85995728 -0.02104706 C6.00665932 -0.03927035 9.15260346 -0.02906556 12.29933167 -0.01878357 C14.56174787 -0.02584437 16.82415934 -0.03459007 19.08656311 -0.04489136 C25.22087309 -0.06737656 31.35492495 -0.06444753 37.48926044 -0.05556989 C42.61357816 -0.05045675 47.73784752 -0.05775522 52.86216027 -0.06504196 C65.64297653 -0.08300943 78.42361381 -0.07663313 91.20441849 -0.05887216 C102.29125793 -0.04417745 113.3778263 -0.05880319 124.46463083 -0.08764232 C135.86340479 -0.11707092 147.26200717 -0.12749092 158.66082627 -0.11846012 C165.05448525 -0.11353309 171.44793357 -0.11573482 177.84156609 -0.13624763 C183.85405989 -0.15461457 189.86605033 -0.14863291 195.87851715 -0.12404823 C198.08233197 -0.11904375 200.28618521 -0.1225206 202.48996925 -0.13519669 C205.50414281 -0.15115972 208.51666535 -0.1361448 211.53076172 -0.11352539 C212.39789824 -0.12536112 213.26503477 -0.13719685 214.15844816 -0.14939123 C220.62374752 -0.05116807 224.96531213 1.97591233 230.32887268 5.5146637 C230.32887268 6.1746637 230.32887268 6.8346637 230.32887268 7.5146637 C231.31887268 7.8446637 232.30887268 8.1746637 233.32887268 8.5146637 C237.36561729 14.06446482 237.9069464 18.36164918 237.84353638 25.10350037 C237.85048191 26.0505154 237.85742743 26.99753042 237.86458343 27.97324288 C237.88283505 31.13686835 237.87259396 34.29974238 237.86231995 37.46339417 C237.86937937 39.73551494 237.87812448 42.007631 237.88842773 44.27973938 C237.91092982 50.44509885 237.90797977 56.6102017 237.89910626 62.77558661 C237.89399577 67.92470737 237.90128954 73.07377994 237.90857834 78.22289574 C237.9265522 91.06625777 237.9201641 103.90944175 237.90240853 116.75279225 C237.88771721 127.89466027 237.90233371 139.03625848 237.9311787 150.17809175 C237.96060732 161.63107445 237.97102708 173.08388636 237.9619965 184.53691399 C237.95706899 190.96188663 237.95927362 197.38664962 237.97978401 203.81159592 C237.99815103 209.85444429 237.99216916 215.89679182 237.96758461 221.93961334 C237.96257993 224.15471523 237.96605748 226.36985533 237.97873306 228.58492661 C237.99469508 231.61447754 237.97968199 234.64238562 237.95706177 237.67185974 C237.9688975 238.54356933 237.98073322 239.41527893 237.99292761 240.31340396 C237.89498387 246.79263859 235.87826425 251.14018016 232.32887268 256.5146637 C231.66887268 256.5146637 231.00887268 256.5146637 230.32887268 256.5146637 C229.99887268 257.5046637 229.66887268 258.4946637 229.32887268 259.5146637 C223.91439666 263.64854292 218.18943212 264.09133897 211.61305237 264.02932739 C210.66447735 264.03627292 209.71590233 264.04321845 208.73858261 264.05037445 C205.57572833 264.06859869 202.413628 264.05839271 199.25074768 264.04811096 C196.9768569 264.05517167 194.70297082 264.06391732 192.42909241 264.07421875 C186.26385921 264.09670375 180.09888284 264.09377517 173.93362427 264.08489728 C168.78435908 264.07978464 163.63514203 264.08708212 158.48588181 264.09436935 C145.64428857 264.11233637 132.80287349 264.10596051 119.96129179 264.08819955 C108.81881186 264.07350114 97.67660154 264.08813586 86.53415632 264.11696971 C75.08001679 264.14638842 63.62604798 264.1568212 52.17186356 264.14778751 C45.74637878 264.14285842 39.32110361 264.14507356 32.89564514 264.16557503 C26.85442801 264.1839283 20.81371215 264.17797703 14.77252197 264.15337563 C12.55699921 264.14836701 10.34143827 264.15185872 8.12594604 264.16452408 C5.0982861 264.1804617 2.07227542 264.16549606 -0.95530701 264.14285278 C-1.82924732 264.15468851 -2.70318764 264.16652424 -3.60361099 264.17871863 C-9.60966155 264.08763877 -14.13178913 262.59810964 -18.67112732 258.5146637 C-18.67112732 257.8546637 -18.67112732 257.1946637 -18.67112732 256.5146637 C-19.66112732 256.1846637 -20.65112732 255.8546637 -21.67112732 255.5146637 C-25.79251361 250.11091904 -26.247998 244.40611874 -26.18579102 237.84353638 C-26.19273654 236.89975048 -26.19968207 235.95596457 -26.20683807 234.9835791 C-26.22506137 231.83687706 -26.21485657 228.69093292 -26.20457458 225.54420471 C-26.21163539 223.28178851 -26.22038108 221.01937703 -26.23068237 218.75697327 C-26.25316758 212.62266328 -26.25023855 206.48861142 -26.2413609 200.35427594 C-26.23624777 195.22995822 -26.24354624 190.10568885 -26.25083297 184.98137611 C-26.26880045 172.20055985 -26.26242414 159.41992256 -26.24466317 146.63911789 C-26.22996846 135.55227845 -26.24459421 124.46571008 -26.27343334 113.37890554 C-26.30286194 101.98013159 -26.31328194 90.58152921 -26.30425113 79.18271011 C-26.29932411 72.78905112 -26.30152584 66.3956028 -26.32203865 60.00197029 C-26.34040558 53.98947649 -26.33442392 47.97748605 -26.30983925 41.96501923 C-26.30483476 39.76120441 -26.30831162 37.55735117 -26.3209877 35.35356712 C-26.33695073 32.33939357 -26.32193582 29.32687103 -26.29931641 26.31277466 C-26.31115213 25.44563813 -26.32298786 24.57850161 -26.33518225 23.68508822 C-26.23695908 17.21978886 -24.20987868 12.87822424 -20.67112732 7.5146637 C-20.01112732 7.5146637 -19.35112732 7.5146637 -18.67112732 7.5146637 C-18.34112732 6.5246637 -18.01112732 5.5346637 -17.67112732 4.5146637 C-12.26738266 0.3932774 -6.56258236 -0.06220698 0 0 Z M-8.39085764 17.90222681 C-10.11709148 20.07633369 -10.01667056 21.43123393 -9.96409607 24.18263245 C-9.9544281 25.07530823 -9.94476013 25.96798401 -9.93479919 26.88771057 C-9.90966248 27.8164801 -9.88452576 28.74524963 -9.85862732 29.7021637 C-9.84509216 30.64253479 -9.83155701 31.58290588 -9.81761169 32.55177307 C-9.78225828 34.87331408 -9.73291406 37.19370023 -9.67112732 39.5146637 C-6.30214819 41.19915326 -2.48677611 40.65103296 1.21841431 40.64164734 C2.15046753 40.64320733 3.08252075 40.64476732 4.04281801 40.64637458 C7.18514174 40.65038278 10.32741768 40.64719563 13.46974182 40.64405823 C15.71469145 40.64541234 17.95964086 40.64719233 20.20458984 40.64936829 C26.31591942 40.65394118 32.42723218 40.65215371 38.53856206 40.6489892 C44.92028046 40.64646518 51.30199737 40.64880323 57.68371582 40.65037537 C69.08879755 40.65231362 80.49386994 40.64919771 91.89895009 40.64411603 C102.24969958 40.639647 112.60043785 40.64042493 122.95118713 40.64503479 C134.95966407 40.65038041 146.96813252 40.65238155 158.97661108 40.64942253 C165.33761104 40.64785942 171.69860327 40.64766693 178.05960274 40.65095901 C184.03735057 40.65383644 190.01507712 40.65186443 195.99282265 40.64606476 C198.19354466 40.64473652 200.39426845 40.64513234 202.59498978 40.64732742 C205.58545604 40.65003642 208.57585292 40.64666091 211.5663147 40.64164734 C212.44917383 40.64387806 213.33203296 40.64610878 214.2416454 40.6484071 C218.09560157 41.0156105 218.09560157 41.0156105 221.32887268 39.5146637 C221.63438042 36.23203569 221.60719108 32.93476963 221.64137268 29.6396637 C221.67037659 28.71540588 221.69938049 27.79114807 221.72926331 26.83888245 C221.73764221 25.95071838 221.74602112 25.06255432 221.75465393 24.1474762 C221.76923645 23.33166077 221.78381897 22.51584534 221.79884338 21.67530823 C221.49993148 19.4318874 221.49993148 19.4318874 219.85979557 17.90343285 C216.13810056 15.86126268 212.50230148 16.10143149 208.36413574 16.13371277 C207.44811901 16.1290328 206.53210228 16.12435282 205.58832747 16.11953104 C202.51203153 16.10754355 199.43617797 16.11705298 196.35987854 16.1264801 C194.15728495 16.1224161 191.95469339 16.11707519 189.75210571 16.11054993 C183.76467813 16.09685097 177.77740529 16.10218546 171.78997493 16.11168718 C165.53198621 16.11926944 159.27401095 16.11224225 153.01602173 16.10752869 C141.83333461 16.10171731 130.65070443 16.11105367 119.46803094 16.1263067 C109.32484884 16.13971338 99.18176972 16.1373793 89.03858948 16.12355042 C77.26299294 16.1075035 65.48744657 16.1015155 53.71183878 16.11038721 C47.47709686 16.11507188 41.24242592 16.11566669 35.00768852 16.10577774 C29.14803543 16.09713323 23.28857748 16.10308392 17.42894554 16.12046051 C15.27421646 16.12443864 13.11947104 16.12326879 10.96474838 16.11667252 C8.03181664 16.1085194 5.09951704 16.11870293 2.16662598 16.13371277 C1.30652056 16.1270206 0.44641515 16.12032844 -0.43975407 16.11343348 C-4.71783622 16.0242037 -4.71783622 16.0242037 -8.39085764 17.90222681 Z M-9.67112732 55.5146637 C-9.67112732 73.0046637 -9.67112732 90.4946637 -9.67112732 108.5146637 C12.10887268 108.5146637 33.88887268 108.5146637 56.32887268 108.5146637 C56.32887268 91.0246637 56.32887268 73.5346637 56.32887268 55.5146637 C34.54887268 55.5146637 12.76887268 55.5146637 -9.67112732 55.5146637 Z M72.32887268 55.5146637 C72.32887268 73.0046637 72.32887268 90.4946637 72.32887268 108.5146637 C94.43887268 108.5146637 116.54887268 108.5146637 139.32887268 108.5146637 C139.32887268 91.0246637 139.32887268 73.5346637 139.32887268 55.5146637 C117.21887268 55.5146637 95.10887268 55.5146637 72.32887268 55.5146637 Z M155.32887268 55.5146637 C155.32887268 73.0046637 155.32887268 90.4946637 155.32887268 108.5146637 C177.10887268 108.5146637 198.88887268 108.5146637 221.32887268 108.5146637 C221.32887268 91.0246637 221.32887268 73.5346637 221.32887268 55.5146637 C199.54887268 55.5146637 177.76887268 55.5146637 155.32887268 55.5146637 Z M-9.67112732 124.5146637 C-9.67112732 142.3346637 -9.67112732 160.1546637 -9.67112732 178.5146637 C12.10887268 178.5146637 33.88887268 178.5146637 56.32887268 178.5146637 C56.32887268 160.6946637 56.32887268 142.8746637 56.32887268 124.5146637 C34.54887268 124.5146637 12.76887268 124.5146637 -9.67112732 124.5146637 Z M72.32887268 124.5146637 C72.32887268 142.3346637 72.32887268 160.1546637 72.32887268 178.5146637 C94.43887268 178.5146637 116.54887268 178.5146637 139.32887268 178.5146637 C139.32887268 160.6946637 139.32887268 142.8746637 139.32887268 124.5146637 C117.21887268 124.5146637 95.10887268 124.5146637 72.32887268 124.5146637 Z M155.32887268 124.5146637 C155.32887268 142.3346637 155.32887268 160.1546637 155.32887268 178.5146637 C177.10887268 178.5146637 198.88887268 178.5146637 221.32887268 178.5146637 C221.32887268 160.6946637 221.32887268 142.8746637 221.32887268 124.5146637 C199.54887268 124.5146637 177.76887268 124.5146637 155.32887268 124.5146637 Z M-9.67112732 194.5146637 C-9.73300232 202.5171637 -9.79487732 210.5196637 -9.85862732 218.7646637 C-9.88593933 221.28639221 -9.91325134 223.80812073 -9.94139099 226.40626526 C-9.95015316 228.40593486 -9.95779774 230.40560981 -9.96409607 232.4052887 C-9.97944397 233.44282288 -9.99479187 234.48035706 -10.01060486 235.54933167 C-10.01096741 236.54368225 -10.01132996 237.53803284 -10.01170349 238.56251526 C-10.01836533 239.42411255 -10.02502716 240.28570984 -10.03189087 241.17341614 C-9.57158664 244.16065293 -8.89690796 245.45936713 -6.67112732 247.5146637 C-3.83081429 248.09613012 -3.83081429 248.09613012 -0.54734802 247.96876526 C0.71373276 247.96846313 1.97481354 247.96816101 3.27410889 247.96784973 C4.65044281 247.94742315 6.02677029 247.92655917 7.40309143 247.9052887 C8.81127113 247.89782718 10.21946123 247.89213382 11.62765503 247.88813782 C15.33181997 247.87287408 19.0353563 247.83358705 22.73927307 247.7893219 C26.51970258 247.74838447 30.30023681 247.72991095 34.08082581 247.7099762 C41.49739639 247.66921461 48.9122414 247.59092726 56.32887268 247.5146637 C56.32887268 230.0246637 56.32887268 212.5346637 56.32887268 194.5146637 C34.54887268 194.5146637 12.76887268 194.5146637 -9.67112732 194.5146637 Z M72.32887268 194.5146637 C72.32887268 212.0046637 72.32887268 229.4946637 72.32887268 247.5146637 C94.43887268 247.5146637 116.54887268 247.5146637 139.32887268 247.5146637 C139.32887268 230.0246637 139.32887268 212.5346637 139.32887268 194.5146637 C117.21887268 194.5146637 95.10887268 194.5146637 72.32887268 194.5146637 Z M155.32887268 194.5146637 C155.32887268 212.0046637 155.32887268 229.4946637 155.32887268 247.5146637 C163.48405392 247.57755712 171.6383581 247.63766289 179.79357147 247.66991425 C183.59116988 247.68576275 187.38856776 247.70694454 191.18605042 247.74098206 C194.84297869 247.77355499 198.49971238 247.79151224 202.15677452 247.79929543 C203.55266064 247.80484271 204.94853599 247.81567519 206.34433937 247.83185387 C208.29781858 247.85359799 210.25149319 247.85488884 212.20509338 247.85523987 C213.87388298 247.86523262 213.87388298 247.86523262 215.5763855 247.87542725 C218.30842356 247.71915695 218.30842356 247.71915695 220.19032288 246.30152893 C221.69780252 243.93565705 221.69060011 242.38325975 221.66944885 239.58424377 C221.66890503 238.06208252 221.66890503 238.06208252 221.66835022 236.50917053 C221.64532837 234.91280762 221.64532837 234.91280762 221.62184143 233.28419495 C221.61882019 232.30430603 221.61579895 231.32441711 221.61268616 230.31483459 C221.59698236 226.65217059 221.55509839 222.98965664 221.51637268 219.3271637 C221.45449768 211.1390387 221.39262268 202.9509137 221.32887268 194.5146637 C199.54887268 194.5146637 177.76887268 194.5146637 155.32887268 194.5146637 Z " fill="#2FC2DC" transform="translate(143.67112731933594,117.48533630371094)"/>
<path d="M0 0 C24.09 0 48.18 0 73 0 C75.25 11.25 75.25 11.25 75.22705078 15.26611328 C75.22689972 16.16629181 75.22674866 17.06647034 75.22659302 17.993927 C75.21627045 18.92663422 75.20594788 19.85934143 75.1953125 20.8203125 C75.1924826 21.80498505 75.18965271 22.78965759 75.18673706 23.8041687 C75.17565195 26.91124261 75.15056991 30.01801504 75.125 33.125 C75.11495509 35.24739163 75.1058319 37.36978784 75.09765625 39.4921875 C75.07575099 44.66157231 75.04130328 49.83073526 75 55 C74.34 55 73.68 55 73 55 C73 55.99 73 56.98 73 58 C50.23 58 27.46 58 4 58 C1.75027063 49.00108251 1.75027063 49.00108251 1.69702148 45.25561523 C1.68037949 44.41792099 1.66373749 43.58022675 1.64659119 42.71714783 C1.63396996 41.40116356 1.63396996 41.40116356 1.62109375 40.05859375 C1.60409927 39.13208511 1.5871048 38.20557648 1.56959534 37.25099182 C1.51685488 34.31322909 1.47635765 31.37547642 1.4375 28.4375 C1.39335977 25.49602387 1.34649355 22.55464795 1.29469299 19.61329651 C1.26310355 17.79024375 1.23610475 15.96710362 1.21446228 14.14390564 C1.20097244 13.30936356 1.1874826 12.47482147 1.17358398 11.61499023 C1.16407211 10.89077377 1.15456024 10.16655731 1.14476013 9.4203949 C0.95590952 6.26280554 0.44734852 3.13143967 0 0 Z M4 1 C4 18.82 4 36.64 4 55 C26.11 55 48.22 55 71 55 C71 37.18 71 19.36 71 1 C48.89 1 26.78 1 4 1 Z " fill="#65CBDF" transform="translate(212,241)"/>
<path d="M0 0 C1.77247856 -0.00450165 1.77247856 -0.00450165 3.58076477 -0.00909424 C5.49794563 0.00942596 5.49794563 0.00942596 7.45385742 0.02832031 C8.76714523 0.03019348 10.08043304 0.03206665 11.43351746 0.03399658 C14.21524337 0.0385995 16.99667978 0.05301905 19.77832031 0.07519531 C23.33238556 0.10339493 26.88622219 0.11439899 30.44038868 0.11887741 C33.84074644 0.12405369 37.24102674 0.13859402 40.64135742 0.15332031 C42.54942924 0.15969513 42.54942924 0.15969513 44.49604797 0.16619873 C46.28271126 0.18061005 46.28271126 0.18061005 48.10546875 0.1953125 C49.14899002 0.2021405 50.19251129 0.20896851 51.26765442 0.21600342 C54.24682617 0.35644531 54.24682617 0.35644531 60.24682617 1.35644531 C60.24682617 17.85644531 60.24682617 34.35644531 60.24682617 51.35644531 C59.91682617 51.35644531 59.58682617 51.35644531 59.24682617 51.35644531 C59.24682617 35.51644531 59.24682617 19.67644531 59.24682617 3.35644531 C37.46682617 3.35644531 15.68682617 3.35644531 -6.75317383 3.35644531 C-6.75317383 20.84644531 -6.75317383 38.33644531 -6.75317383 56.35644531 C13.37682617 56.35644531 33.50682617 56.35644531 54.24682617 56.35644531 C54.57682617 57.01644531 54.90682617 57.67644531 55.24682617 58.35644531 C47.04992056 58.37957241 38.85302849 58.39736227 30.65609837 58.40825748 C26.8503104 58.41348551 23.04454469 58.42058169 19.23876953 58.43188477 C15.56890073 58.44271651 11.89905339 58.44872275 8.22916985 58.45132256 C6.82607625 58.45317629 5.42298388 58.45679591 4.01989937 58.46217537 C2.06112937 58.46938951 0.10233797 58.4698534 -1.85644531 58.4699707 C-2.97341293 58.47219131 -4.09038055 58.47441193 -5.24119568 58.47669983 C-7.75317383 58.35644531 -7.75317383 58.35644531 -8.75317383 57.35644531 C-8.86236089 55.68482978 -8.90224187 54.00863034 -8.91430664 52.33349609 C-8.92391418 51.26213409 -8.93352173 50.19077209 -8.94342041 49.08694458 C-8.94767029 47.92033295 -8.95192017 46.75372131 -8.95629883 45.55175781 C-8.9619989 44.36170135 -8.96769897 43.1716449 -8.97357178 41.94552612 C-8.9830391 39.42186375 -8.9895626 36.89818892 -8.9934082 34.37451172 C-9.00311477 30.50498985 -9.03412313 26.63599863 -9.06567383 22.76660156 C-9.07220331 20.31999015 -9.07745399 17.87337492 -9.08129883 15.42675781 C-9.09981903 13.68291306 -9.09981903 13.68291306 -9.11871338 11.90383911 C-9.11571228 10.82617279 -9.11271118 9.74850647 -9.10961914 8.63818359 C-9.11326477 7.68855743 -9.1169104 6.73893127 -9.1206665 5.76052856 C-8.75317383 3.35644531 -8.75317383 3.35644531 -7.59046936 1.5486145 C-4.99478985 -0.13564863 -3.08305553 -0.01079561 0 0 Z " fill="#6CCFE1" transform="translate(305.753173828125,308.6435546875)"/>
<path d="M0 0 C1.33278992 0.00303635 1.33278992 0.00303635 2.69250488 0.00613403 C3.5987561 0.00517731 4.50500732 0.00422058 5.4387207 0.00323486 C7.35876535 0.002553 9.27881229 0.00440771 11.19885254 0.00857544 C14.14861192 0.01392361 17.09821902 0.00863066 20.04797363 0.00222778 C21.90865105 0.00288856 23.76932838 0.00416972 25.63000488 0.00613403 C26.51853149 0.0041098 27.40705811 0.00208557 28.32250977 0 C34.546305 0.02399665 34.546305 0.02399665 35.66125488 1.13894653 C35.90006085 8.66133459 35.90006085 8.66133459 34.66125488 11.13894653 C28.84053866 11.16359291 23.01985254 11.18178083 17.19909668 11.19387817 C15.21732047 11.19891921 13.23554799 11.20575191 11.25378418 11.21438599 C8.4117338 11.22646168 5.56973241 11.23217698 2.72766113 11.23660278 C1.39016563 11.24434471 1.39016563 11.24434471 0.02565002 11.25224304 C-2.09615113 11.2524383 -4.21785292 11.20104683 -6.33874512 11.13894653 C-7.33874512 10.13894653 -7.33874512 10.13894653 -7.47155762 8.10769653 C-7.46897949 7.29300903 -7.46640137 6.47832153 -7.46374512 5.63894653 C-7.46632324 4.82425903 -7.46890137 4.00957153 -7.47155762 3.17019653 C-7.17876442 -1.30781712 -3.6972369 0.01425518 0 0 Z " fill="#67CCDD" transform="translate(318.3387451171875,263.8610534667969)"/>
<path d="M0 0 C13.53 0 27.06 0 41 0 C42.62651522 3.25303044 42.11453156 6.39225602 42 10 C41 11 41 11 37.12280273 11.11352539 C35.39305833 11.11336621 33.66330919 11.10766849 31.93359375 11.09765625 C31.02497086 11.0962413 30.11634796 11.09482635 29.18019104 11.09336853 C26.26592779 11.08775193 23.35174019 11.07519665 20.4375 11.0625 C18.46679798 11.05748714 16.49609476 11.05292386 14.52539062 11.04882812 C9.68356441 11.03777711 4.84179505 11.02050138 0 11 C-1.49297212 8.01405576 -1.11755228 5.29146376 -1 2 C-0.67 1.34 -0.34 0.68 0 0 Z " fill="#29C3DD" transform="translate(228,264)"/>
<path d="M0 0 C1 2 1 2 0.57238865 4.05829906 C-0.20927423 8.07553181 -0.15353662 11.98371837 -0.15821838 16.06721497 C-0.16315636 16.98211927 -0.16809434 17.89702357 -0.17318195 18.83965224 C-0.18854225 21.90587637 -0.19691363 24.97207959 -0.20532227 28.03833008 C-0.21490194 30.23608585 -0.22491207 32.43383979 -0.23532104 34.6315918 C-0.26236647 40.60010187 -0.28337804 46.56861984 -0.30332303 52.5371573 C-0.32518478 58.77386559 -0.35257256 65.01054952 -0.37937927 71.24723816 C-0.42362918 81.71584003 -0.46446487 92.18445064 -0.50268555 102.65307617 C-0.54205937 113.43498714 -0.58349011 124.21688697 -0.62768555 134.9987793 C-0.63177196 135.99595889 -0.63177196 135.99595889 -0.63594092 137.01328353 C-0.64962071 140.34837839 -0.66334312 143.68347306 -0.67708123 147.01856768 C-0.79089726 174.67902232 -0.89773715 202.3395004 -1 230 C-1.66 229.67 -2.32 229.34 -3 229 C-3 155.08 -3 81.16 -3 5 C-2.34 5 -1.68 5 -1 5 C-0.67 3.35 -0.34 1.7 0 0 Z " fill="#3EAFC9" transform="translate(121,133)"/>
<path d="M0 0 C0.8816835 -0.0033284 1.763367 -0.0066568 2.67176819 -0.01008606 C4.54053219 -0.01515908 6.40930529 -0.01749427 8.27807617 -0.01733398 C11.14451969 -0.01951933 14.01057785 -0.0376678 16.87695312 -0.05664062 C18.68880076 -0.05957464 20.50065023 -0.06155938 22.3125 -0.0625 C23.60473732 -0.07327827 23.60473732 -0.07327827 24.92308044 -0.08427429 C30.99383465 -0.06085285 30.99383465 -0.06085285 33.22265625 2.16796875 C33.41015625 5.73046875 33.41015625 5.73046875 33.22265625 9.16796875 C32.22265625 10.16796875 32.22265625 10.16796875 28.25366211 10.28149414 C26.48160018 10.28133495 24.70953365 10.2756366 22.9375 10.265625 C22.00668106 10.26421005 21.07586212 10.2627951 20.11683655 10.26133728 C17.13124434 10.25572047 14.14572596 10.24316515 11.16015625 10.23046875 C9.14127712 10.22545591 7.12239682 10.22089263 5.10351562 10.21679688 C0.14320053 10.20574558 -4.81705907 10.1884697 -9.77734375 10.16796875 C-9.80423591 8.68889983 -9.82368996 7.20969392 -9.83984375 5.73046875 C-9.85144531 4.90675781 -9.86304688 4.08304688 -9.875 3.234375 C-9.63755327 -1.78999777 -3.83073412 0.00493671 0 0 Z " fill="#2AC1D9" transform="translate(320.77734375,194.83203125)"/>
<path d="M0 0 C0.33 0 0.66 0 1 0 C1.76252659 3.38660192 2.12267782 6.50510571 2.11352539 9.97387695 C2.11340454 10.94780396 2.11328369 11.92173096 2.11315918 12.9251709 C2.10804321 13.93599731 2.10292725 14.94682373 2.09765625 15.98828125 C2.09664917 16.9268396 2.09564209 17.86539795 2.09460449 18.83239746 C2.08938734 22.32577747 2.07542608 25.81914001 2.0625 29.3125 C2.041875 37.129375 2.02125 44.94625 2 53 C24.11 53 46.22 53 69 53 C69 35.51 69 18.02 69 0 C71.18411163 3.27616745 71.24895195 4.21222229 71.24291992 8.00634766 C71.24753487 9.53275375 71.24753487 9.53275375 71.25224304 11.08999634 C71.24146477 12.73540909 71.24146477 12.73540909 71.23046875 14.4140625 C71.23001053 15.53944427 71.22955231 16.66482605 71.2290802 17.8243103 C71.22605825 20.20319676 71.21817366 22.58208125 71.20581055 24.9609375 C71.18753869 28.61725816 71.18530095 32.27332593 71.18554688 35.9296875 C71.18063237 38.23698137 71.17480435 40.54427352 71.16796875 42.8515625 C71.16685593 43.9525528 71.1657431 45.05354309 71.16459656 46.18789673 C71.15821671 47.19919647 71.15183685 48.21049622 71.14526367 49.25244141 C71.14145187 50.1471817 71.13764008 51.041922 71.13371277 51.96377563 C71 54 71 54 70 55 C67.90568522 55.14495252 65.80652745 55.22025761 63.70776367 55.26879883 C63.05080002 55.2851236 62.39383636 55.30144836 61.71696472 55.31826782 C59.53405347 55.37045612 57.35109025 55.41458908 55.16796875 55.45703125 C54.42366419 55.47213934 53.67935963 55.48724743 52.91250038 55.50281334 C48.9722764 55.58202121 45.0319893 55.6546463 41.09155273 55.72241211 C37.01886237 55.79386104 32.94707661 55.88884719 28.87501049 55.98918629 C25.74651279 56.06182775 22.61788389 56.11646973 19.48894691 56.16626549 C17.98771653 56.19336285 16.48659388 56.22733092 14.98567772 56.26828957 C12.88375375 56.32402253 10.78291276 56.35416142 8.68041992 56.37817383 C7.48430588 56.40180496 6.28819183 56.4254361 5.05583191 56.44978333 C2 56 2 56 -0.39389038 54.2963562 C-2.31674922 51.54712367 -2.46609337 50.20666303 -2.37817383 46.88012695 C-2.36107864 45.86259842 -2.34398346 44.84506989 -2.32637024 43.79670715 C-2.28698837 42.70492661 -2.24760651 41.61314606 -2.20703125 40.48828125 C-2.18154709 39.36431442 -2.15606293 38.2403476 -2.12980652 37.08232117 C-2.07247985 34.70917438 -2.00545082 32.33624499 -1.92944336 29.96362305 C-1.81262786 26.31649194 -1.72297214 22.66949859 -1.63867188 19.02148438 C-1.57969462 16.71870926 -1.51920018 14.4159724 -1.45703125 12.11328125 C-1.42777054 11.01542801 -1.39850983 9.91757477 -1.36836243 8.78645325 C-1.33550644 7.7783812 -1.30265045 6.77030914 -1.26879883 5.73168945 C-1.24118973 4.83996536 -1.21358063 3.94824127 -1.18513489 3.02949524 C-1 1 -1 1 0 0 Z " fill="#65C5D5" transform="translate(214,173)"/>
<path d="M0 0 C1.77206192 0.00015919 3.54412846 0.00585754 5.31616211 0.01586914 C6.24698105 0.01728409 7.17779999 0.01869904 8.13682556 0.02015686 C11.12241777 0.02577367 14.10793615 0.03832899 17.09350586 0.05102539 C19.11238499 0.05603823 21.13126529 0.06060151 23.15014648 0.06469727 C28.11046158 0.07574856 33.07072118 0.09302444 38.03100586 0.11352539 C38.03100586 3.08352539 38.03100586 6.05352539 38.03100586 9.11352539 C33.60555169 10.20666764 29.26875609 10.27481946 24.73803711 10.28149414 C23.95079758 10.28482254 23.16355804 10.28815094 22.35246277 10.2915802 C20.6959186 10.29662503 19.03936434 10.29898928 17.3828125 10.29882812 C14.84154823 10.30102708 12.30070976 10.31924208 9.75952148 10.33813477 C8.14819484 10.34106665 6.53686614 10.34305282 4.92553711 10.34399414 C3.78336479 10.35477242 3.78336479 10.35477242 2.61811829 10.36576843 C-2.74015267 10.34236686 -2.74015267 10.34236686 -4.96899414 8.11352539 C-5.15649414 4.55102539 -5.15649414 4.55102539 -4.96899414 1.11352539 C-3.96899414 0.11352539 -3.96899414 0.11352539 0 0 Z " fill="#2CC0DA" transform="translate(231.968994140625,333.886474609375)"/>
<path d="M0 0 C0.83648071 0.00718552 1.67296143 0.01437103 2.53479004 0.02177429 C3.8218988 0.02246162 3.8218988 0.02246162 5.13500977 0.02316284 C6.95073833 0.0261863 8.76646428 0.03407541 10.58215332 0.0464325 C13.36723991 0.06466905 16.15199378 0.06694233 18.93713379 0.06669617 C20.69885542 0.07161209 22.4605748 0.07744073 24.22229004 0.08427429 C25.05877075 0.08538712 25.89525146 0.08649994 26.75708008 0.08764648 C32.64640947 0.13617776 32.64640947 0.13617776 34.87854004 1.25224304 C34.97619629 7.40458679 34.97619629 7.40458679 34.87854004 9.25224304 C32.95596829 11.17481479 30.09768896 10.38132728 27.53979492 10.39118958 C26.65126831 10.38916534 25.7627417 10.38714111 24.84729004 10.38505554 C23.94103882 10.38601227 23.0347876 10.38696899 22.10107422 10.38795471 C20.18102957 10.38863658 18.26098263 10.38678186 16.34094238 10.38261414 C13.391183 10.37726596 10.4415759 10.38255892 7.49182129 10.38896179 C5.63114387 10.38830101 3.77046654 10.38701985 1.90979004 10.38505554 C0.57700012 10.38809189 0.57700012 10.38809189 -0.78271484 10.39118958 C-7.00651008 10.36719293 -7.00651008 10.36719293 -8.12145996 9.25224304 C-8.30895996 5.81474304 -8.30895996 5.81474304 -8.12145996 2.25224304 C-5.48605443 -0.38316249 -3.58610879 0.01425095 0 0 Z " fill="#25C5E1" transform="translate(235.1214599609375,194.7477569580078)"/>
<path d="M0 0 C14.19 0 28.38 0 43 0 C43 2.64 43 5.28 43 8 C40.82217319 10.17782681 35.74896922 9.26089916 32.71484375 9.31640625 C31.78402481 9.33718735 30.85320587 9.35796844 29.8941803 9.37937927 C26.90869818 9.44497931 23.92312516 9.50380802 20.9375 9.5625 C18.91861024 9.6056753 16.8997298 9.64928925 14.88085938 9.69335938 C9.92066703 9.80067129 4.96038291 9.90190888 0 10 C0 6.7 0 3.4 0 0 Z " fill="#25C2E0" transform="translate(311,334)"/>
<path d="M0 0 C16.89026526 -0.04010881 16.89026526 -0.04010881 24.07421875 -0.04882812 C28.98161903 -0.05481249 33.8890007 -0.061902 38.79638672 -0.07543945 C42.75154957 -0.08628218 46.70669248 -0.09227979 50.66186905 -0.09487724 C52.17298827 -0.09672898 53.68410637 -0.10034482 55.19521713 -0.10573006 C57.30708958 -0.11295886 59.41887895 -0.11399016 61.53076172 -0.11352539 C62.73433319 -0.115746 63.93790466 -0.11796661 65.177948 -0.12025452 C68 0 68 0 70 1 C70.33 18.82 70.66 36.64 71 55 C66.83081326 57.08459337 65.19751973 57.22436062 60.67089844 57.13525391 C58.74935944 57.10499619 58.74935944 57.10499619 56.78900146 57.0741272 C55.3957875 57.04182655 54.00257877 57.00929969 52.609375 56.9765625 C51.18021234 56.95038339 49.75103268 56.92511734 48.32183838 56.90072632 C44.56679724 56.83419241 40.81211502 56.7552748 37.05737305 56.67376709 C33.22328428 56.59273236 29.38898548 56.52342371 25.5546875 56.453125 C18.03620385 56.31355246 10.51806078 56.16089532 3 56 C3 55.67 3 55.34 3 55 C24.12 55 45.24 55 67 55 C67 37.18 67 19.36 67 1 C45.22 1 23.44 1 1 1 C1 18.82 1 36.64 1 55 C0.67 55 0.34 55 0 55 C0 36.85 0 18.7 0 0 Z " fill="#78D2E7" transform="translate(133,241)"/>
<path d="M0 0 C1.48831242 0.00667405 2.97660807 0.01863442 4.46484375 0.03515625 C5.22345703 0.03966797 5.98207031 0.04417969 6.76367188 0.04882812 C8.64326246 0.06064945 10.52281274 0.07858547 12.40234375 0.09765625 C14.61981531 3.6561284 14.64123854 6.5830397 14.58984375 10.72265625 C14.58339844 11.86992187 14.57695312 13.0171875 14.5703125 14.19921875 C14.40234375 17.09765625 14.40234375 17.09765625 13.40234375 19.09765625 C10.58978094 19.12449937 7.77747134 19.14441813 4.96484375 19.16015625 C4.16240234 19.16853516 3.35996094 19.17691406 2.53320312 19.18554688 C0.48939154 19.19417055 -1.55449527 19.14993775 -3.59765625 19.09765625 C-5.48318155 17.21213095 -4.73012314 14.51996794 -4.734375 12.015625 C-4.73050781 11.21769531 -4.72664062 10.41976563 -4.72265625 9.59765625 C-4.72652344 8.79972656 -4.73039063 8.00179688 -4.734375 7.1796875 C-4.72240301 0.12818684 -4.72240301 0.12818684 0 0 Z " fill="#48C7E0" transform="translate(160.59765625,259.90234375)"/>
<path d="M0 0 C1.11858398 0.00580078 1.11858398 0.00580078 2.25976562 0.01171875 C3.37254883 0.00591797 3.37254883 0.00591797 4.5078125 0 C10.06899561 0.01008374 10.06899561 0.01008374 12.32226562 1.13671875 C12.37623897 3.57451505 12.41592178 6.0111156 12.44726562 8.44921875 C12.47240234 9.4846582 12.47240234 9.4846582 12.49804688 10.54101562 C12.53444356 14.30807271 12.46605426 15.92103579 10.32226562 19.13671875 C7.53373672 19.35779662 4.97573382 19.4177941 2.19726562 19.32421875 C1.06611328 19.30391602 1.06611328 19.30391602 -0.08789062 19.28320312 C-1.95147565 19.2478186 -3.81469415 19.19401042 -5.67773438 19.13671875 C-7.26470282 15.96278186 -6.82087907 12.5549767 -6.80273438 9.07421875 C-6.80660156 8.32849609 -6.81046875 7.58277344 -6.81445312 6.81445312 C-6.80247679 0.22148321 -6.59296992 0.01197633 0 0 Z " fill="#2AC3DE" transform="translate(162.677734375,328.86328125)"/>
<path d="M0 0 C1.32421988 3.4979393 1.09945529 7.05447077 1.0625 10.75 C1.05347656 11.92046875 1.04445312 13.0909375 1.03515625 14.296875 C1.02355469 15.18890625 1.01195312 16.0809375 1 17 C-1.79134852 17.19425873 -4.58283687 17.38069517 -7.375 17.5625 C-8.1690625 17.61857422 -8.963125 17.67464844 -9.78125 17.73242188 C-15.7734375 18.11328125 -15.7734375 18.11328125 -18 17 C-18.02684679 14.35409986 -18.04676357 11.70846904 -18.0625 9.0625 C-18.07087891 8.30775391 -18.07925781 7.55300781 -18.08789062 6.77539062 C-18.09652441 4.85005687 -18.05224333 2.92464419 -18 1 C-16.01304416 -0.98695584 -12.28886897 -0.45381524 -9.5625 -0.625 C-8.86833984 -0.6765625 -8.17417969 -0.728125 -7.45898438 -0.78125 C-2.24848963 -1.12424481 -2.24848963 -1.12424481 0 0 Z " fill="#28C2DD" transform="translate(174,192)"/>
<path d="M0 0 C0.66 0 1.32 0 2 0 C1.6875 1.9375 1.6875 1.9375 1 4 C0.01 4.33 -0.98 4.66 -2 5 C-1.28995535 8.27856999 -1.28995535 8.27856999 1.9375 9.5625 C2.948125 10.036875 3.95875 10.51125 5 11 C5.66 11.66 6.32 12.32 7 13 C10.02032414 13.20595087 12.95004277 13.28504935 15.97219849 13.2784729 C16.91312438 13.2842653 17.85405027 13.2900577 18.82348907 13.29602563 C21.99580415 13.31311431 25.16797454 13.31590974 28.34033203 13.31884766 C30.60661174 13.32813972 32.872888 13.33830729 35.13916016 13.34928894 C41.30825914 13.37668442 47.47733518 13.39176655 53.64647913 13.40471697 C60.08741559 13.42030588 66.52830488 13.44710951 72.96920776 13.4727478 C83.78528595 13.51428044 94.60136289 13.54885339 105.41748047 13.578125 C116.55942637 13.60829739 127.70134649 13.6426416 138.84326172 13.68261719 C139.87298702 13.68630951 139.87298702 13.68630951 140.92351486 13.69007643 C144.36731023 13.70245077 147.81110529 13.71490735 151.25490022 13.72740483 C179.83656375 13.83102079 208.41826099 13.92006037 237 14 C237 14.33 237 14.66 237 15 C207.58079877 15.11410673 178.16161325 15.2025709 148.74223593 15.25532665 C145.26761005 15.26158005 141.7929846 15.26805167 138.31835938 15.2746582 C137.62663523 15.27596976 136.93491109 15.27728131 136.22222561 15.2786326 C125.02753802 15.30037863 113.83297905 15.33979565 102.63836771 15.38576398 C91.14836398 15.43255115 79.65845067 15.45992597 68.16835356 15.47044247 C61.71587224 15.47696213 55.26368246 15.49229031 48.81129456 15.52865028 C42.73741993 15.56259983 36.66395683 15.57305479 30.58999634 15.56553841 C28.3615546 15.56691339 26.13309904 15.57685166 23.90473938 15.59602737 C20.85920678 15.6209485 17.81522263 15.61490786 14.76965332 15.60127258 C13.45055741 15.62311889 13.45055741 15.62311889 12.1048131 15.64540654 C6.0792153 15.57261438 1.55156193 14.1030135 -3 10 C-3 9.34 -3 8.68 -3 8 C-3.99 7.67 -4.98 7.34 -6 7 C-7.1875 3.9375 -7.1875 3.9375 -8 1 C-7.34 1 -6.68 1 -6 1 C-6 1.66 -6 2.32 -6 3 C-3.52733235 2.65555119 -3.52733235 2.65555119 -1 2 C-0.67 1.34 -0.34 0.68 0 0 Z " fill="#57B1C4" transform="translate(128,366)"/>
<path d="M0 0 C-0.33 8.91 -0.66 17.82 -1 27 C-1.33 27 -1.66 27 -2 27 C-2 18.42 -2 9.84 -2 1 C-24.11 1 -46.22 1 -69 1 C-69 18.49 -69 35.98 -69 54 C-46.89 54 -24.78 54 -2 54 C-2 51.69 -2 49.38 -2 47 C-1.67 47 -1.34 47 -1 47 C-1 49.64 -1 52.28 -1 55 C-24.43 55 -47.86 55 -72 55 C-72.020625 46.110625 -72.04125 37.22125 -72.0625 28.0625 C-72.071604 25.25242432 -72.08070801 22.44234863 -72.09008789 19.54711914 C-72.09300683 17.33479866 -72.09555544 15.12247765 -72.09765625 12.91015625 C-72.10277222 11.74931519 -72.10788818 10.58847412 -72.11315918 9.39245605 C-72.11328003 8.29622925 -72.11340088 7.20000244 -72.11352539 6.07055664 C-72.115746 5.11347305 -72.11796661 4.15638947 -72.12025452 3.17030334 C-72 1 -72 1 -71 0 C-68.97183946 -0.12905521 -66.93922669 -0.18854293 -64.90722656 -0.22119141 C-63.60207092 -0.24436432 -62.29691528 -0.26753723 -60.95220947 -0.29141235 C-59.51501836 -0.31172636 -58.07782339 -0.33176971 -56.640625 -0.3515625 C-55.17429169 -0.37467357 -53.70796276 -0.39806387 -52.24163818 -0.42172241 C-49.16145651 -0.47025795 -46.08124794 -0.51516847 -43.00097656 -0.55761719 C-39.05879703 -0.61226267 -35.11683144 -0.67612989 -31.17483902 -0.74279213 C-28.14309985 -0.79297739 -25.11130087 -0.8380576 -22.07946014 -0.88163376 C-20.62662033 -0.90315834 -19.17380352 -0.92629919 -17.72101593 -0.9510994 C-15.68420808 -0.9851334 -13.64727686 -1.01152314 -11.61035156 -1.03759766 C-9.87280609 -1.06305161 -9.87280609 -1.06305161 -8.10015869 -1.08901978 C-5 -1 -5 -1 0 0 Z " fill="#82D3E2" transform="translate(285,311)"/>
<path d="M0 0 C23.1 0 46.2 0 70 0 C71.12451678 3.37355035 70.7384888 4.6090237 70 8 C69.92289312 9.58993561 69.89196377 11.18264368 69.90234375 12.77441406 C69.90564697 13.69176331 69.9089502 14.60911255 69.91235352 15.55426025 C69.92480103 17.0201358 69.92480103 17.0201358 69.9375 18.515625 C69.94128662 19.52719666 69.94507324 20.53876831 69.94897461 21.58099365 C69.96117157 24.80403943 69.97981416 28.02699495 70 31.25 C70.02647684 35.5052057 70.04651079 39.76036848 70.0625 44.015625 C70.07494751 45.49364594 70.07494751 45.49364594 70.08764648 47.00152588 C70.09094971 47.90626648 70.09425293 48.81100708 70.09765625 49.74316406 C70.10289307 50.54304749 70.10812988 51.34293091 70.11352539 52.16705322 C70 54 70 54 69 55 C67.03630847 55.0940067 65.06920801 55.11743381 63.10327148 55.11352539 C61.84203964 55.11344986 60.5808078 55.11337433 59.28135681 55.11329651 C57.89460206 55.1081891 56.50784771 55.10297309 55.12109375 55.09765625 C53.71004791 55.09579201 52.29900143 55.09436814 50.88795471 55.09336853 C47.16759465 55.08954379 43.4472734 55.0797139 39.72692871 55.06866455 C35.93319219 55.05844948 32.13944942 55.05387071 28.34570312 55.04882812 C20.89711769 55.03809158 13.44856428 55.0210157 6 55 C6 54.67 6 54.34 6 54 C26.13 54 46.26 54 67 54 C67 36.51 67 19.02 67 1 C45.22 1 23.44 1 1 1 C1 16.84 1 32.68 1 49 C0.67 49 0.34 49 0 49 C0 32.83 0 16.66 0 0 Z " fill="#89D9E6" transform="translate(133,311)"/>
<path d="M0 0 C0.66 0 1.32 0 2 0 C3.07321269 6.08648997 3.12920676 12.01286141 3.09765625 18.18359375 C3.09664917 19.12013794 3.09564209 20.05668213 3.09460449 21.02160645 C3.08940377 24.49358356 3.07544267 27.96554311 3.0625 31.4375 C3.041875 39.213125 3.02125 46.98875 3 55 C-20.1 55 -43.2 55 -67 55 C-67 37.18 -67 19.36 -67 1 C-66.67 1 -66.34 1 -66 1 C-66 18.49 -66 35.98 -66 54 C-44.22 54 -22.44 54 0 54 C0 36.18 0 18.36 0 0 Z " fill="#71CEE1" transform="translate(200,172)"/>
<path d="M0 0 C0.66 0 1.32 0 2 0 C2 18.15 2 36.3 2 55 C35.165 55.495 35.165 55.495 69 56 C69 56.66 69 57.32 69 58 C46.89 58.33 24.78 58.66 2 59 C0.03488284 55.06976569 -0.24631096 53.69578987 -0.22705078 49.49707031 C-0.22689972 48.39623108 -0.22674866 47.29539185 -0.22659302 46.16119385 C-0.21627045 44.97878113 -0.20594788 43.79636841 -0.1953125 42.578125 C-0.1924826 41.36300232 -0.18965271 40.14787964 -0.18673706 38.89593506 C-0.17553954 35.01385665 -0.15043534 31.13200871 -0.125 27.25 C-0.11496966 24.61849291 -0.10584391 21.98698221 -0.09765625 19.35546875 C-0.07560157 12.90356716 -0.04212804 6.45180005 0 0 Z " fill="#39B1C8" transform="translate(131,241)"/>
<path d="M0 0 C1.80868813 0.00333092 1.80868813 0.00333092 3.65391541 0.00672913 C4.64899864 0.00651009 4.64899864 0.00651009 5.66418457 0.00628662 C7.86644207 0.00698571 10.06861596 0.01477787 12.27085876 0.02259827 C13.79400588 0.02446246 15.31715359 0.02588636 16.84030151 0.02688599 C20.85657903 0.03071105 24.87282059 0.04054124 28.88908386 0.05158997 C32.98443617 0.06180433 37.07979427 0.06638366 41.17515564 0.07142639 C49.21618779 0.08216352 57.25719069 0.0992398 65.29820251 0.12025452 C65.29820251 0.45025452 65.29820251 0.78025452 65.29820251 1.12025452 C43.18820251 1.12025452 21.07820251 1.12025452 -1.70179749 1.12025452 C-1.63992249 9.10212952 -1.57804749 17.08400452 -1.51429749 25.30775452 C-1.50761047 27.82037903 -1.50092346 30.33300354 -1.49403381 32.92176819 C-1.46758373 34.91894668 -1.43930567 36.91610216 -1.40882874 38.91322327 C-1.41281677 39.94564148 -1.41680481 40.97805969 -1.4209137 42.04176331 C-1.3342179 46.41750736 -1.09626841 49.37901613 0.97789001 53.27650452 C6.4366209 56.30770567 11.99172275 55.84573491 18.13023376 55.82728577 C19.4907451 55.84040886 20.85123699 55.85571499 22.21170044 55.87310791 C25.78084117 55.91290101 29.3494716 55.9231445 32.91880798 55.92713928 C36.56561202 55.93648173 40.21211758 55.97390202 43.85874939 56.00892639 C51.00518974 56.07344342 58.15146894 56.10673162 65.29820251 56.12025452 C65.29820251 56.45025452 65.29820251 56.78025452 65.29820251 57.12025452 C57.30079366 57.18984019 49.30351182 57.24310899 41.30587482 57.27569103 C37.59202677 57.29133075 33.87838623 57.3125376 30.16465759 57.34657288 C26.5790421 57.37922747 22.9936259 57.39712028 19.40787315 57.40488625 C18.04155021 57.41041887 16.67523786 57.42122288 15.30900002 57.43744469 C13.39185394 57.45929727 11.4745063 57.46048059 9.55723572 57.46083069 C8.46691544 57.46749252 7.37659515 57.47415436 6.25323486 57.48101807 C2.85898249 57.06663257 1.0255118 56.15457258 -1.70179749 54.12025452 C-3.87197235 50.86499222 -3.95081727 49.96644956 -3.94471741 46.20570374 C-3.94779404 45.20812042 -3.95087067 44.21053711 -3.95404053 43.182724 C-3.94685501 42.10765594 -3.93966949 41.03258789 -3.93226624 39.92494202 C-3.93180801 38.82175629 -3.93134979 37.71857056 -3.93087769 36.58195496 C-3.9278559 34.25014673 -3.91997182 31.91834052 -3.90760803 29.58656311 C-3.88933529 26.00266941 -3.88709845 22.41903371 -3.88734436 18.83509827 C-3.88242988 16.57337727 -3.87660187 14.31165803 -3.86976624 12.04994202 C-3.86865341 10.9708255 -3.86754059 9.89170898 -3.86639404 8.77989197 C-3.86001419 7.78861298 -3.85363434 6.79733398 -3.84706116 5.77601624 C-3.84324936 4.89904083 -3.83943756 4.02206543 -3.83551025 3.11851501 C-3.62664364 -0.00287659 -3.15993699 0.14064588 0 0 Z " fill="#37B1C7" transform="translate(134.70179748535156,309.87974548339844)"/>
<path d="M0 0 C0.66 0 1.32 0 2 0 C2 17.49 2 34.98 2 53 C22.13 53 42.26 53 63 53 C63.33 53.66 63.66 54.32 64 55 C55.80309439 55.0231271 47.60620232 55.04091696 39.40927219 55.05181217 C35.60348423 55.0570402 31.79771852 55.06413638 27.99194336 55.07543945 C24.32207456 55.0862712 20.65222722 55.09227744 16.98234367 55.09487724 C15.57925008 55.09673097 14.17615771 55.1003506 12.7730732 55.10573006 C10.8143032 55.11294419 8.8555118 55.11340809 6.89672852 55.11352539 C5.77976089 55.115746 4.66279327 55.11796661 3.51197815 55.12025452 C1 55 1 55 0 54 C-0.09353163 52.31198015 -0.11744791 50.62004793 -0.11352539 48.92944336 C-0.11344986 47.84839828 -0.11337433 46.76735321 -0.11329651 45.65354919 C-0.10813522 44.4775264 -0.10297394 43.3015036 -0.09765625 42.08984375 C-0.0962413 40.89267227 -0.09482635 39.69550079 -0.09336853 38.46205139 C-0.08774979 34.62050934 -0.07519411 30.77902457 -0.0625 26.9375 C-0.05748741 24.34049563 -0.05292409 21.74349035 -0.04882812 19.14648438 C-0.03777427 12.76430321 -0.02101792 6.3821557 0 0 Z " fill="#6FC6D6" transform="translate(297,312)"/>
<path d="M0 0 C12.69045192 -0.18043297 25.32683275 0.37897682 38 1 C38 2.65 38 4.3 38 6 C32.74912156 6.16723026 27.49809906 6.32782815 22.24682617 6.48217773 C20.45900968 6.53567402 18.67124725 6.59100904 16.88354492 6.64819336 C14.31961734 6.72989235 11.75557047 6.80505945 9.19140625 6.87890625 C8.3872377 6.90594131 7.58306915 6.93297638 6.75453186 6.96083069 C4.83701578 7.01285627 2.91818497 7.01187441 1 7 C0 6 0 6 -0.0625 2.9375 C-0.041875 1.968125 -0.02125 0.99875 0 0 Z " fill="#27C5E1" transform="translate(313,266)"/>
<path d="M0 0 C0.83648071 0.00718552 1.67296143 0.01437103 2.53479004 0.02177429 C3.8218988 0.02246162 3.8218988 0.02246162 5.13500977 0.02316284 C6.95073833 0.0261863 8.76646428 0.03407541 10.58215332 0.0464325 C13.36723991 0.06466905 16.15199378 0.06694233 18.93713379 0.06669617 C20.69885542 0.07161209 22.4605748 0.07744073 24.22229004 0.08427429 C25.05877075 0.08538712 25.89525146 0.08649994 26.75708008 0.08764648 C32.64640947 0.13617776 32.64640947 0.13617776 34.87854004 1.25224304 C34.97619629 7.40458679 34.97619629 7.40458679 34.87854004 9.25224304 C32.95596829 11.17481479 30.09768896 10.38132728 27.53979492 10.39118958 C26.65126831 10.38916534 25.7627417 10.38714111 24.84729004 10.38505554 C23.94103882 10.38601227 23.0347876 10.38696899 22.10107422 10.38795471 C20.18102957 10.38863658 18.26098263 10.38678186 16.34094238 10.38261414 C13.391183 10.37726596 10.4415759 10.38255892 7.49182129 10.38896179 C5.63114387 10.38830101 3.77046654 10.38701985 1.90979004 10.38505554 C0.57700012 10.38809189 0.57700012 10.38809189 -0.78271484 10.39118958 C-7.00651008 10.36719293 -7.00651008 10.36719293 -8.12145996 9.25224304 C-8.30895996 5.81474304 -8.30895996 5.81474304 -8.12145996 2.25224304 C-5.48605443 -0.38316249 -3.58610879 0.01425095 0 0 Z M-5.12145996 5.25224304 C-5.12145996 6.57224304 -5.12145996 7.89224304 -5.12145996 9.25224304 C7.08854004 9.25224304 19.29854004 9.25224304 31.87854004 9.25224304 C31.87854004 7.60224304 31.87854004 5.95224304 31.87854004 4.25224304 C31.1682666 4.2638446 30.45799316 4.27544617 29.72619629 4.28739929 C28.80709473 4.29642273 27.88799316 4.30544617 26.94104004 4.31474304 C26.0245166 4.3263446 25.10799316 4.33794617 24.16369629 4.34989929 C21.87854004 4.25224304 21.87854004 4.25224304 20.87854004 3.25224304 C17.09358449 2.99971461 13.29592308 3.06701665 9.50354004 3.06474304 C8.43619629 3.05249695 7.36885254 3.04025085 6.26916504 3.02763367 C5.24564941 3.02570007 4.22213379 3.02376648 3.16760254 3.02177429 C2.22610352 3.01766541 1.28460449 3.01355652 0.3145752 3.00932312 C-2.37992673 3.08554269 -2.37992673 3.08554269 -5.12145996 5.25224304 Z " fill="#58C0D2" transform="translate(235.1214599609375,194.7477569580078)"/>
<path d="M0 0 C14.19 0 28.38 0 43 0 C43 2.64 43 5.28 43 8 C40.82217319 10.17782681 35.74896922 9.26089916 32.71484375 9.31640625 C31.78402481 9.33718735 30.85320587 9.35796844 29.8941803 9.37937927 C26.90869818 9.44497931 23.92312516 9.50380802 20.9375 9.5625 C18.91861024 9.6056753 16.8997298 9.64928925 14.88085938 9.69335938 C9.92066703 9.80067129 4.96038291 9.90190888 0 10 C0 6.7 0 3.4 0 0 Z M2 1 C2 2.98 2 4.96 2 7 C14.67904525 7.22686164 27.33666467 6.55656506 40 6 C40 4.35 40 2.7 40 1 C27.46 1 14.92 1 2 1 Z " fill="#59BDCF" transform="translate(311,334)"/>
<path d="M0 0 C1.32421988 3.4979393 1.09945529 7.05447077 1.0625 10.75 C1.05347656 11.92046875 1.04445312 13.0909375 1.03515625 14.296875 C1.02355469 15.18890625 1.01195312 16.0809375 1 17 C-1.79134852 17.19425873 -4.58283687 17.38069517 -7.375 17.5625 C-8.1690625 17.61857422 -8.963125 17.67464844 -9.78125 17.73242188 C-15.7734375 18.11328125 -15.7734375 18.11328125 -18 17 C-18.02684679 14.35409986 -18.04676357 11.70846904 -18.0625 9.0625 C-18.07087891 8.30775391 -18.07925781 7.55300781 -18.08789062 6.77539062 C-18.09652441 4.85005687 -18.05224333 2.92464419 -18 1 C-16.01304416 -0.98695584 -12.28886897 -0.45381524 -9.5625 -0.625 C-8.86833984 -0.6765625 -8.17417969 -0.728125 -7.45898438 -0.78125 C-2.24848963 -1.12424481 -2.24848963 -1.12424481 0 0 Z M-16 1 C-16 5.62 -16 10.24 -16 15 C-10.555 14.505 -10.555 14.505 -5 14 C-5 13.34 -5 12.68 -5 12 C-4.34 11.67 -3.68 11.34 -3 11 C-2.53248212 8.64400765 -2.53248212 8.64400765 -2.375 5.9375 C-2.25125 4.308125 -2.1275 2.67875 -2 1 C-6.62 1 -11.24 1 -16 1 Z " fill="#54B5D0" transform="translate(174,192)"/>
<path d="M0 0 C0.8816835 -0.0033284 1.763367 -0.0066568 2.67176819 -0.01008606 C4.54053219 -0.01515908 6.40930529 -0.01749427 8.27807617 -0.01733398 C11.14451969 -0.01951933 14.01057785 -0.0376678 16.87695312 -0.05664062 C18.68880076 -0.05957464 20.50065023 -0.06155938 22.3125 -0.0625 C23.60473732 -0.07327827 23.60473732 -0.07327827 24.92308044 -0.08427429 C30.99383465 -0.06085285 30.99383465 -0.06085285 33.22265625 2.16796875 C33.41015625 5.73046875 33.41015625 5.73046875 33.22265625 9.16796875 C32.22265625 10.16796875 32.22265625 10.16796875 28.25366211 10.28149414 C26.48160018 10.28133495 24.70953365 10.2756366 22.9375 10.265625 C22.00668106 10.26421005 21.07586212 10.2627951 20.11683655 10.26133728 C17.13124434 10.25572047 14.14572596 10.24316515 11.16015625 10.23046875 C9.14127712 10.22545591 7.12239682 10.22089263 5.10351562 10.21679688 C0.14320053 10.20574558 -4.81705907 10.1884697 -9.77734375 10.16796875 C-9.80423591 8.68889983 -9.82368996 7.20969392 -9.83984375 5.73046875 C-9.85144531 4.90675781 -9.86304688 4.08304688 -9.875 3.234375 C-9.63755327 -1.78999777 -3.83073412 0.00493671 0 0 Z M-8.77734375 3.16796875 C-8.77734375 5.14796875 -8.77734375 7.12796875 -8.77734375 9.16796875 C4.42265625 9.16796875 17.62265625 9.16796875 31.22265625 9.16796875 C31.22265625 6.85796875 31.22265625 4.54796875 31.22265625 2.16796875 C25.68677092 2.143321 20.15091725 2.12513379 14.61499023 2.11303711 C12.73021895 2.10799631 10.8454516 2.10116377 8.96069336 2.0925293 C6.25763989 2.08045258 3.55463794 2.07473807 0.8515625 2.0703125 C0.00364639 2.06515121 -0.84426971 2.05998993 -1.71788025 2.05467224 C-5.55644409 1.67370793 -5.55644409 1.67370793 -8.77734375 3.16796875 Z " fill="#80C8D4" transform="translate(320.77734375,194.83203125)"/>
<path d="M0 0 C0.66 0.33 1.32 0.66 2 1 C1.67 2.98 1.34 4.96 1 7 C13.87 7 26.74 7 40 7 C39.505 4.525 39.505 4.525 39 2 C36.69 1.67 34.38 1.34 32 1 C32 0.67 32 0.34 32 0 C35.3 0 38.6 0 42 0 C42 2.97 42 5.94 42 9 C37.57454583 10.09314225 33.23775023 10.16129407 28.70703125 10.16796875 C27.91979172 10.17129715 27.13255219 10.17462555 26.32145691 10.17805481 C24.66491274 10.18309964 23.00835848 10.18546389 21.35180664 10.18530273 C18.81054237 10.18750169 16.2697039 10.20571669 13.72851562 10.22460938 C12.11718898 10.22754126 10.50586028 10.22952743 8.89453125 10.23046875 C7.75235893 10.24124702 7.75235893 10.24124702 6.58711243 10.25224304 C1.22884147 10.22884147 1.22884147 10.22884147 -1 8 C-1.1875 4.4375 -1.1875 4.4375 -1 1 C-0.67 0.67 -0.34 0.34 0 0 Z " fill="#5AC0D4" transform="translate(228,334)"/>
<path d="M0 0 C5.67830078 -0.02464705 11.35657069 -0.04283462 17.03491211 -0.05493164 C18.96818585 -0.05997256 20.90145576 -0.06680519 22.8347168 -0.07543945 C25.60726872 -0.08751565 28.37977041 -0.09323057 31.15234375 -0.09765625 C32.45702858 -0.10539818 32.45702858 -0.10539818 33.78807068 -0.11329651 C35.85905814 -0.11349185 37.92994324 -0.06208168 40 0 C41 1 41 1 41 9 C28.46 9 15.92 9 3 9 C3 8.67 3 8.34 3 8 C14.55 8 26.1 8 38 8 C37.505 5.525 37.505 5.525 37 3 C36.34104736 2.97494385 35.68209473 2.9498877 35.00317383 2.92407227 C10.8134746 1.99264318 10.8134746 1.99264318 0 1 C0 0.67 0 0.34 0 0 Z " fill="#48B6CA" transform="translate(229,265)"/>
<path d="M0 0 C0.33 0 0.66 0 1 0 C1.07611202 6.88672806 1.12862596 13.77334749 1.16479492 20.66040039 C1.17987428 23.00288954 1.20034078 25.3453505 1.22631836 27.68774414 C1.26273821 31.05622317 1.27973513 34.42432864 1.29296875 37.79296875 C1.30845261 38.83897751 1.32393646 39.88498627 1.33988953 40.96269226 C1.34197702 49.99683865 1.34197702 49.99683865 -2 54 C-4 56 -4 56 -6.63223267 56.24050903 C-7.74697968 56.23606781 -8.86172668 56.23162659 -10.01025391 56.22705078 C-11.90198837 56.22682419 -11.90198837 56.22682419 -13.8319397 56.22659302 C-15.21348222 56.21637898 -16.59502315 56.20594697 -17.9765625 56.1953125 C-19.38617757 56.19158288 -20.79579523 56.18873567 -22.20541382 56.18673706 C-25.91759382 56.17909655 -29.62961761 56.15944461 -33.34173584 56.1373291 C-37.12884406 56.11687959 -40.9159775 56.10773727 -44.703125 56.09765625 C-52.13548793 56.076199 -59.56772208 56.04205816 -67 56 C-67 55.67 -67 55.34 -67 55 C-66.24689041 55.00079559 -65.49378082 55.00159119 -64.71784973 55.00241089 C-57.61114257 55.00462113 -50.50525023 54.97816612 -43.39882374 54.9197216 C-39.74544601 54.89068102 -36.09270923 54.87262488 -32.43920898 54.87988281 C-28.91145965 54.88648325 -25.38497602 54.86395434 -21.85748863 54.82144547 C-19.86069005 54.80492461 -17.86371629 54.81836714 -15.86689758 54.83224487 C-8.68731562 54.97138855 -8.68731562 54.97138855 -2.6796875 51.64257812 C0.04386806 47.1743758 -0.27339593 41.98550205 -0.29296875 36.9140625 C-0.27028679 35.32868179 -0.27028679 35.32868179 -0.24714661 33.71127319 C-0.20429832 30.34896461 -0.19543395 26.98755432 -0.1875 23.625 C-0.16435361 21.33981992 -0.13898798 19.05466116 -0.11132812 16.76953125 C-0.04850422 11.17967895 -0.01354724 5.59017727 0 0 Z " fill="#23BDD6" transform="translate(366,312)"/>
<path d="M0 0 C13.53 0 27.06 0 41 0 C41 0.33 41 0.66 41 1 C27.635 1.495 27.635 1.495 14 2 C14 2.33 14 2.66 14 3 C10.7 3.33 7.4 3.66 4 4 C3.34 5.65 2.68 7.3 2 9 C21.305 9.495 21.305 9.495 41 10 C41 10.33 41 10.66 41 11 C27.47 11 13.94 11 0 11 C-1.49297212 8.01405576 -1.11755228 5.29146376 -1 2 C-0.67 1.34 -0.34 0.68 0 0 Z " fill="#97F0F4" transform="translate(228,264)"/>
<path d="M0 0 C1.32 0 2.64 0 4 0 C4 18.15 4 36.3 4 55 C3.67 55 3.34 55 3 55 C1.76467283 50.14246351 1.79446247 45.33089296 1.71875 40.3515625 C1.70034058 39.42080902 1.68193115 38.49005554 1.66296387 37.53109741 C1.60438892 34.56246063 1.55151769 31.59376712 1.5 28.625 C1.43201463 24.72124181 1.35830089 20.81765108 1.28125 16.9140625 C1.26767456 16.02530426 1.25409912 15.13654602 1.2401123 14.22085571 C1.14447484 9.39122121 0.79816603 4.76556826 0 0 Z " fill="#4EB9D1" transform="translate(212,241)"/>
<path d="M0 0 C1.34383255 0.03966133 1.34383255 0.03966133 2.71481323 0.0801239 C5.53719229 0.16691913 8.35814041 0.27639645 11.1796875 0.38671875 C13.10932598 0.45007856 15.03901425 0.51194095 16.96875 0.57226562 C21.66481501 0.7223022 26.35973965 0.8926655 31.0546875 1.07421875 C31.0546875 1.40421875 31.0546875 1.73421875 31.0546875 2.07421875 C29.74798096 2.08356445 28.44127441 2.09291016 27.0949707 2.10253906 C22.23980816 2.14245713 17.38527806 2.2082215 12.53051758 2.28173828 C10.43066542 2.30993727 8.33070733 2.33115712 6.23071289 2.34521484 C3.20924691 2.36665889 0.18905316 2.41331742 -2.83203125 2.46484375 C-3.76867111 2.46607239 -4.70531097 2.46730103 -5.67033386 2.46856689 C-9.82817516 2.5616772 -12.35737217 2.74287477 -16.03320312 4.81445312 C-18.21131181 7.38858158 -18.58833638 8.51146032 -18.65234375 11.83984375 C-18.68134766 12.72929687 -18.71035156 13.61875 -18.74023438 14.53515625 C-18.74603516 15.45554688 -18.75183594 16.3759375 -18.7578125 17.32421875 C-18.78294922 18.26007813 -18.80808594 19.1959375 -18.83398438 20.16015625 C-18.8927882 22.46526607 -18.92911517 24.76848049 -18.9453125 27.07421875 C-18.2853125 27.40421875 -17.6253125 27.73421875 -16.9453125 28.07421875 C-18.2653125 27.74421875 -19.5853125 27.41421875 -20.9453125 27.07421875 C-20.9723616 24.01165914 -20.99217548 20.94934015 -21.0078125 17.88671875 C-21.01619141 17.02240234 -21.02457031 16.15808594 -21.03320312 15.26757812 C-21.03642578 14.42646484 -21.03964844 13.58535156 -21.04296875 12.71875 C-21.04820557 11.94893799 -21.05344238 11.17912598 -21.05883789 10.38598633 C-20.9352344 7.86899399 -20.46080287 5.53766683 -19.9453125 3.07421875 C-13.10018215 0.63972654 -7.23976729 -0.31999138 0 0 Z " fill="#53C3D7" transform="translate(152.9453125,129.92578125)"/>
<path d="M0 0 C-0.33 8.91 -0.66 17.82 -1 27 C-1.33 27 -1.66 27 -2 27 C-2 18.42 -2 9.84 -2 1 C-24.11 1 -46.22 1 -69 1 C-69.33 1.66 -69.66 2.32 -70 3 C-70 2.01 -70 1.02 -70 0 C-61.61150821 -0.15402873 -53.22294202 -0.30220813 -44.83421803 -0.4429636 C-40.93881901 -0.50850792 -37.04347621 -0.57605092 -33.14819336 -0.64819336 C-29.38760484 -0.71776712 -25.62695938 -0.78204924 -21.86621666 -0.84269524 C-20.43290625 -0.86673283 -18.99962626 -0.89266274 -17.56638527 -0.92053413 C-15.55582234 -0.95930606 -13.54512069 -0.990669 -11.53442383 -1.02172852 C-10.39080887 -1.04171402 -9.24719391 -1.06169952 -8.06892395 -1.08229065 C-5 -1 -5 -1 0 0 Z " fill="#8CDAED" transform="translate(285,311)"/>
<path d="M0 0 C1.11858398 0.00580078 1.11858398 0.00580078 2.25976562 0.01171875 C3.37254883 0.00591797 3.37254883 0.00591797 4.5078125 0 C10.06899561 0.01008374 10.06899561 0.01008374 12.32226562 1.13671875 C12.37623897 3.57451505 12.41592178 6.0111156 12.44726562 8.44921875 C12.47240234 9.4846582 12.47240234 9.4846582 12.49804688 10.54101562 C12.53444356 14.30807271 12.46605426 15.92103579 10.32226562 19.13671875 C9.99226563 13.52671875 9.66226563 7.91671875 9.32226562 2.13671875 C4.70226562 2.13671875 0.08226562 2.13671875 -4.67773438 2.13671875 C-4.34773437 6.75671875 -4.01773438 11.37671875 -3.67773438 16.13671875 C-0.04773438 16.46671875 3.58226562 16.79671875 7.32226562 17.13671875 C7.32226562 17.46671875 7.32226562 17.79671875 7.32226562 18.13671875 C0.88726562 18.63171875 0.88726562 18.63171875 -5.67773438 19.13671875 C-7.26470282 15.96278186 -6.82087907 12.5549767 -6.80273438 9.07421875 C-6.80660156 8.32849609 -6.81046875 7.58277344 -6.81445312 6.81445312 C-6.80247679 0.22148321 -6.59296992 0.01197633 0 0 Z " fill="#78BECE" transform="translate(162.677734375,328.86328125)"/>
<path d="M0 0 C0.33 0 0.66 0 1 0 C1.33 1.65 1.66 3.3 2 5 C21.305 5.495 21.305 5.495 41 6 C41 6.66 41 7.32 41 8 C27.47 8 13.94 8 0 8 C0 5.36 0 2.72 0 0 Z " fill="#8DD1E0" transform="translate(312,267)"/>
<path d="M0 0 C1.03125 0.00322266 2.0625 0.00644531 3.125 0.00976562 C4.74535156 0.02233398 4.74535156 0.02233398 6.3984375 0.03515625 C8.03039062 0.04192383 8.03039062 0.04192383 9.6953125 0.04882812 C12.38807539 0.06063849 15.08072938 0.07710847 17.7734375 0.09765625 C17.7734375 0.42765625 17.7734375 0.75765625 17.7734375 1.09765625 C11.8334375 1.42765625 5.8934375 1.75765625 -0.2265625 2.09765625 C-0.2265625 2.75765625 -0.2265625 3.41765625 -0.2265625 4.09765625 C9.3434375 4.42765625 18.9134375 4.75765625 28.7734375 5.09765625 C28.7734375 5.42765625 28.7734375 5.75765625 28.7734375 6.09765625 C16.5634375 6.09765625 4.3534375 6.09765625 -8.2265625 6.09765625 C-7.8965625 4.44765625 -7.5665625 2.79765625 -7.2265625 1.09765625 C-4.66933021 -0.1809599 -2.85919148 -0.01570984 0 0 Z " fill="#2CBED7" transform="translate(238.2265625,197.90234375)"/>
<path d="M0 0 C-3 2 -3 2 -5 2 C-5.33 3.98 -5.66 5.96 -6 8 C-10.455 8.495 -10.455 8.495 -15 9 C-15.28875 9.886875 -15.5775 10.77375 -15.875 11.6875 C-16.83148748 14.50382424 -17.86798946 17.25083156 -19 20 C-19.66 20 -20.32 20 -21 20 C-20.56744475 14.59305933 -19.41778487 11.24633878 -16 7 C-15.34 7 -14.68 7 -14 7 C-13.67 6.01 -13.34 5.02 -13 4 C-9.02943602 1.22617142 -4.90232302 -0.61279038 0 0 Z " fill="#32C0DA" transform="translate(139,118)"/>
<path d="M0 0 C1.52657208 3.81643021 1.19181831 7.97181556 1 12 C0.01 13.485 0.01 13.485 -1 15 C-3.8203125 15.29296875 -3.8203125 15.29296875 -7.125 15.1875 C-8.22070312 15.16042969 -9.31640625 15.13335937 -10.4453125 15.10546875 C-11.70988281 15.05326172 -11.70988281 15.05326172 -13 15 C-13 14.67 -13 14.34 -13 14 C-10.36 14 -7.72 14 -5 14 C-5.33 12.68 -5.66 11.36 -6 10 C-5.01 10 -4.02 10 -3 10 C-3.020625 8.88625 -3.04125 7.7725 -3.0625 6.625 C-3 3 -3 3 -2 1 C-6.95 1 -11.9 1 -17 1 C-17 0.67 -17 0.34 -17 0 C-14.54203147 -0.19436491 -12.08390706 -0.3807742 -9.625 -0.5625 C-8.92632812 -0.61857422 -8.22765625 -0.67464844 -7.5078125 -0.73242188 C-2.2265625 -1.11328125 -2.2265625 -1.11328125 0 0 Z " fill="#55C0D7" transform="translate(174,192)"/>
<path d="M0 0 C0.66 0 1.32 0 2 0 C1.6875 1.9375 1.6875 1.9375 1 4 C0.01 4.33 -0.98 4.66 -2 5 C-1.30353684 8.24647855 -1.30353684 8.24647855 1.75 9.4375 C3.35875 10.2109375 3.35875 10.2109375 5 11 C6.69859667 12.29241051 8.37609523 13.61490475 10 15 C4.59305933 14.56744475 1.24633878 13.41778487 -3 10 C-3 9.34 -3 8.68 -3 8 C-3.99 7.67 -4.98 7.34 -6 7 C-7.1875 3.9375 -7.1875 3.9375 -8 1 C-7.34 1 -6.68 1 -6 1 C-6 1.66 -6 2.32 -6 3 C-3.52733235 2.65555119 -3.52733235 2.65555119 -1 2 C-0.67 1.34 -0.34 0.68 0 0 Z " fill="#31C1D4" transform="translate(128,366)"/>
<path d="M0 0 C0.33 0 0.66 0 1 0 C1.07611202 6.88672806 1.12862596 13.77334749 1.16479492 20.66040039 C1.17987428 23.00288954 1.20034078 25.3453505 1.22631836 27.68774414 C1.26273821 31.05622317 1.27973513 34.42432864 1.29296875 37.79296875 C1.30845261 38.83897751 1.32393646 39.88498627 1.33988953 40.96269226 C1.34196413 49.94107471 1.34196413 49.94107471 -2 54 C-3.32 53.67 -4.64 53.34 -6 53 C-5.18958252 52.4016333 -4.37916504 51.8032666 -3.54418945 51.18676758 C0.38908278 47.22089366 -0.27272343 42.28397901 -0.29296875 37.01171875 C-0.27784744 35.95338333 -0.26272614 34.89504791 -0.24714661 33.80464172 C-0.20423841 30.43204494 -0.19542819 27.06034266 -0.1875 23.6875 C-0.16435826 21.39776262 -0.13899361 19.10804656 -0.11132812 16.81835938 C-0.04844505 11.21223113 -0.01353557 5.60645288 0 0 Z " fill="#3FB0C8" transform="translate(366,312)"/>
<path d="M0 0 C5.28 0 10.56 0 16 0 C16 0.33 16 0.66 16 1 C11.38 1 6.76 1 2 1 C2.33 5.62 2.66 10.24 3 15 C6.3 15.33 9.6 15.66 13 16 C13 16.33 13 16.66 13 17 C8.71 17 4.42 17 0 17 C0 11.39 0 5.78 0 0 Z " fill="#50B5C7" transform="translate(156,261)"/>
<path d="M0 0 C4.75 0.75 4.75 0.75 7 3 C7.22705078 5.24658203 7.22705078 5.24658203 7.1953125 8.0078125 C7.18886719 8.99394531 7.18242187 9.98007813 7.17578125 10.99609375 C7.15902344 12.02863281 7.14226562 13.06117188 7.125 14.125 C7.11597656 15.16527344 7.10695313 16.20554688 7.09765625 17.27734375 C7.07403747 19.85179092 7.04110149 22.42578212 7 25 C6.01 24.67 5.02 24.34 4 24 C4.02094727 23.41508789 4.04189453 22.83017578 4.06347656 22.22753906 C4.14680115 19.56853535 4.19870897 16.90980645 4.25 14.25 C4.28351563 13.32960937 4.31703125 12.40921875 4.3515625 11.4609375 C4.52745326 6.01231696 4.52745326 6.01231696 1.984375 1.359375 C1.32953125 0.91078125 0.6746875 0.4621875 0 0 Z " fill="#76D1DF" transform="translate(360,133)"/>
<path d="M0 0 C12.54 0 25.08 0 38 0 C38 0.33 38 0.66 38 1 C37.22398437 1.02505615 36.44796875 1.0501123 35.6484375 1.07592773 C32.09882269 1.19267745 28.54942232 1.3150431 25 1.4375 C23.16888672 1.49647461 23.16888672 1.49647461 21.30078125 1.55664062 C15.14055436 1.77308103 9.09870047 2.09281831 3 3 C3 2.34 3 1.68 3 1 C2.01 0.67 1.02 0.34 0 0 Z " fill="#39C0D4" transform="translate(313,197)"/>
<path d="M0 0 C1 1 1 1 1.09765625 4.59765625 C1.0909822 6.08596867 1.07902183 7.57426432 1.0625 9.0625 C1.05798828 9.82111328 1.05347656 10.57972656 1.04882812 11.36132812 C1.0370068 13.24091871 1.01907078 15.12046899 1 17 C0.01 16.67 -0.98 16.34 -2 16 C-1.34 16 -0.68 16 0 16 C-0.33 11.71 -0.66 7.42 -1 3 C-5.29 2.67 -9.58 2.34 -14 2 C-14 1.67 -14 1.34 -14 1 C-9.39288558 -0.18893275 -4.73225005 -0.33243079 0 0 Z " fill="#40B4C9" transform="translate(172,330)"/>
<path d="M0 0 C0.66 0 1.32 0 2 0 C2 1.65 2 3.3 2 5 C1.01 5.33 0.02 5.66 -1 6 C-1.33 6.99 -1.66 7.98 -2 9 C-4.4375 10.75 -4.4375 10.75 -7 12 C-7.66 11.67 -8.32 11.34 -9 11 C-8.01 8.69 -7.02 6.38 -6 4 C-5.67 4.66 -5.34 5.32 -5 6 C-3.35 5.67 -1.7 5.34 0 5 C-0.2784375 4.0409375 -0.2784375 4.0409375 -0.5625 3.0625 C-0.706875 2.381875 -0.85125 1.70125 -1 1 C-0.67 0.67 -0.34 0.34 0 0 Z " fill="#65CADA" transform="translate(375,368)"/>
<path d="M0 0 C0.33 0 0.66 0 1 0 C1.33 4.29 1.66 8.58 2 13 C5.63 13.33 9.26 13.66 13 14 C13 14.33 13 14.66 13 15 C6.565 15.495 6.565 15.495 0 16 C-1.29758261 13.40483479 -1.13269102 11.45816973 -1.125 8.5625 C-1.12757813 7.59441406 -1.13015625 6.62632812 -1.1328125 5.62890625 C-1 3 -1 3 0 0 Z " fill="#5ABFD3" transform="translate(157,332)"/>
<path d="M0 0 C4.95 0 9.9 0 15 0 C15 0.66 15 1.32 15 2 C13.04235617 2.19456705 11.08384679 2.38044247 9.125 2.5625 C8.03445313 2.66691406 6.94390625 2.77132813 5.8203125 2.87890625 C3 3 3 3 1 2 C1.75150023 5.27773504 1.75150023 5.27773504 5 7 C3.35 6.67 1.7 6.34 0 6 C0 4.02 0 2.04 0 0 Z " fill="#29C0D7" transform="translate(313,266)"/>
<path d="M0 0 C0.76570312 0.80824219 1.53140625 1.61648438 2.3203125 2.44921875 C6.69609412 6.09570344 11.39880571 5.77910857 16.875 5.8125 C17.84953125 5.83763672 18.8240625 5.86277344 19.828125 5.88867188 C22.21915628 5.94727558 24.60836847 5.98374991 27 6 C27 6.33 27 6.66 27 7 C23.43765572 7.08741124 19.87558892 7.14052896 16.3125 7.1875 C15.30509766 7.21263672 14.29769531 7.23777344 13.25976562 7.26367188 C3.46636413 7.36063625 3.46636413 7.36063625 0 4 C0 2.68 0 1.36 0 0 Z " fill="#38B0C9" transform="translate(133,360)"/>
<path d="M0 0 C0.99 0.495 0.99 0.495 2 1 C2 1.66 2 2.32 2 3 C2.99 3.33 3.98 3.66 5 4 C8.11588996 8.5402968 9.54998918 11.36261092 9 17 C8.67 17 8.34 17 8 17 C8 15.35 8 13.7 8 12 C7.01 12 6.02 12 5 12 C4.54625 10.865625 4.0925 9.73125 3.625 8.5625 C2.42904194 4.95278308 2.42904194 4.95278308 0 4 C0 2.68 0 1.36 0 0 Z " fill="#81CEDA" transform="translate(372,122)"/>
<path d="M0 0 C0.33 0.99 0.66 1.98 1 3 C0.0390625 4.90234375 0.0390625 4.90234375 -1.375 6.9375 C-3.23160962 9.62906534 -4.37958012 11.77525948 -5 15 C-5.66 15 -6.32 15 -7 15 C-6.56744475 9.59305933 -5.41778487 6.24633878 -2 2 C-1.34 2 -0.68 2 0 2 C0 1.34 0 0.68 0 0 Z " fill="#63C0CB" transform="translate(125,123)"/>
<path d="M0 0 C6.75 -0.125 6.75 -0.125 9 1 C9 3.64 9 6.28 9 9 C8.01 8.67 7.02 8.34 6 8 C6 6.35 6 4.7 6 3 C3.03 2.505 3.03 2.505 0 2 C0 1.34 0 0.68 0 0 Z " fill="#83CBD5" transform="translate(261,195)"/>
<path d="M0 0 C0.66 0.33 1.32 0.66 2 1 C2 3.64 2 6.28 2 9 C5.63 9 9.26 9 13 9 C13 9.33 13 9.66 13 10 C11.04196493 10.05389087 9.08351091 10.09274217 7.125 10.125 C6.03445312 10.14820313 4.94390625 10.17140625 3.8203125 10.1953125 C1 10 1 10 -1 8 C-1.1875 4.4375 -1.1875 4.4375 -1 1 C-0.67 0.67 -0.34 0.34 0 0 Z " fill="#B6E0E4" transform="translate(228,334)"/>
<path d="M0 0 C6.53290083 0.6163114 6.53290083 0.6163114 8.75 2.4375 C9.36875 3.2109375 9.36875 3.2109375 10 4 C10.99 4.66 11.98 5.32 13 6 C7.57689095 5.56615128 4.29855944 4.35497322 0 1 C0 0.67 0 0.34 0 0 Z " fill="#80CFDA" transform="translate(125,375)"/>
<path d="M0 0 C1.65322266 0.01740234 1.65322266 0.01740234 3.33984375 0.03515625 C4.99693359 0.04869141 4.99693359 0.04869141 6.6875 0.0625 C7.54214844 0.07410156 8.39679688 0.08570313 9.27734375 0.09765625 C9.27734375 0.42765625 9.27734375 0.75765625 9.27734375 1.09765625 C8.12105469 1.26201172 8.12105469 1.26201172 6.94140625 1.4296875 C5.93851563 1.58824219 4.935625 1.74679687 3.90234375 1.91015625 C2.40574219 2.13638672 2.40574219 2.13638672 0.87890625 2.3671875 C-2.05139265 2.88537923 -2.05139265 2.88537923 -3.72265625 6.09765625 C-3.76537725 4.4315372 -3.76329457 2.7638274 -3.72265625 1.09765625 C-2.72265625 0.09765625 -2.72265625 0.09765625 0 0 Z " fill="#85D2D7" transform="translate(159.72265625,328.90234375)"/>
<path d="M0 0 C-2.38457948 1.58971965 -4.6304124 2.86741593 -7.1875 4.125 C-7.90292969 4.47820312 -8.61835938 4.83140625 -9.35546875 5.1953125 C-9.89816406 5.46085937 -10.44085938 5.72640625 -11 6 C-11.66 5.34 -12.32 4.68 -13 4 C-4.738041 -0.59225513 -4.738041 -0.59225513 0 0 Z " fill="#72CBDB" transform="translate(139,118)"/>
<path d="M0 0 C4.55737263 0.43820891 7.57653445 0.85041169 11 4 C10.01 4.33 9.02 4.66 8 5 C8 4.34 8 3.68 8 3 C6.02 3 4.04 3 2 3 C2 2.34 2 1.68 2 1 C1.34 0.67 0.68 0.34 0 0 Z " fill="#76CAD9" transform="translate(360,118)"/>
<path d="M0 0 C0.33 0 0.66 0 1 0 C1.12375 1.11375 1.2475 2.2275 1.375 3.375 C1.6465813 7.03103677 1.6465813 7.03103677 4 9 C2.35 8.67 0.7 8.34 -1 8 C-1.04241723 5.66705225 -1.04092937 3.33297433 -1 1 C-0.67 0.67 -0.34 0.34 0 0 Z " fill="#8FC8CF" transform="translate(228,265)"/>
<path d="M0 0 C0.66 0 1.32 0 2 0 C2 0.66 2 1.32 2 2 C2.99 2 3.98 2 5 2 C4.67 3.65 4.34 5.3 4 7 C1.49962266 4.82575883 0.56371414 3.26954202 0 0 Z " fill="#66C6D6" transform="translate(120,367)"/>
<path d="M0 0 C5.75 4.75 5.75 4.75 8 7 C2.25 6.25 2.25 6.25 0 4 C0 2.68 0 1.36 0 0 Z " fill="#54BECD" transform="translate(133,360)"/>
<path d="M0 0 C1.98 0 3.96 0 6 0 C4.35830472 2.02054804 2.69088222 4.02043058 1 6 C0.67 6 0.34 6 0 6 C0 4.02 0 2.04 0 0 Z " fill="#5AC0D6" transform="translate(133,133)"/>
</svg>
