<?xml version="1.0" encoding="UTF-8"?>
<svg version="1.1" xmlns="http://www.w3.org/2000/svg" width="500" height="500">
<path d="M0 0 C1.86652125 2.31910089 3.39557952 4.4819127 4.9375 7 C5.80840495 8.36991171 6.67949821 9.73970372 7.55078125 11.109375 C8.17654053 12.11000977 8.17654053 12.11000977 8.81494141 13.13085938 C10.78895663 16.24438647 12.92221399 19.24823873 15.0390625 22.265625 C16 24 16 24 16 27 C16.66 27 17.32 27 18 27 C22 33.75 22 33.75 22 36 C22.96873047 35.76603516 22.96873047 35.76603516 23.95703125 35.52734375 C29.06606922 34.47198844 33.42133133 33.76767225 38.5703125 34.79296875 C45.82070734 36.15888256 45.82070734 36.15888256 53 35 C58.34190245 30.46642923 61.40174798 23.81087666 64.57861328 17.68505859 C66.66519348 13.74342186 69.04565542 10.03218528 71.5 6.3125 C71.88551025 5.68408203 72.27102051 5.05566406 72.66821289 4.40820312 C74.32883627 1.82347325 75.51068567 0.20454943 78.3828125 -0.99609375 C81.65009859 -1.0009703 84.24750118 -0.33001712 87.375 0.625 C89.21191406 1.18380859 89.21191406 1.18380859 91.0859375 1.75390625 C92.39115939 2.16758853 93.69583748 2.58299001 95 3 C95.66547852 3.20995605 96.33095703 3.41991211 97.01660156 3.63623047 C103.55729417 5.70960792 109.90486057 7.79447697 116 11 C115.47069332 25.72161088 114.47173791 40.34260439 113 55 C113.65613281 55.20625 114.31226563 55.4125 114.98828125 55.625 C119.16217007 57.53058867 122.5595394 60.21582752 126.1875 63 C126.91130859 63.5465625 127.63511719 64.093125 128.38085938 64.65625 C133.67446911 68.67446911 133.67446911 68.67446911 136 71 C140.76142105 70.65589511 144.86473985 68.98535327 149.19140625 67.09375 C149.85913559 66.80898804 150.52686493 66.52422607 151.21482849 66.23083496 C153.33343431 65.32674289 155.44824197 64.41420855 157.5625 63.5 C159.68058128 62.58643131 161.79944123 61.67490428 163.92088318 60.76916504 C165.23627262 60.20739499 166.54975521 59.64113189 167.86097717 59.06970215 C171.21861299 57.63385457 174.38717502 56.55865336 178 56 C183.86869506 62.73861225 189.36066797 69.67143644 194.5625 76.9375 C195.08682617 77.6586499 195.61115234 78.3797998 196.15136719 79.12280273 C201.28149468 86.38652753 201.28149468 86.38652753 201 90 C199.41036043 92.70755843 197.43069122 95.01071772 195.375 97.375 C194.29771843 98.65216273 193.22218423 99.9308015 192.1484375 101.2109375 C191.61959961 101.83323242 191.09076172 102.45552734 190.54589844 103.09667969 C189.00157599 104.99805963 187.61035173 106.95629123 186.2265625 108.9765625 C185.49179687 109.97429687 184.75703125 110.97203125 184 112 C183.34 112 182.68 112 182 112 C181.34 113.65 180.68 115.3 180 117 C179.34 117 178.68 117 178 117 C175.96153695 119.99773978 175.81544895 122.22391382 176.453125 125.75390625 C178.30650045 133.36598399 180.86686449 140.81616053 183.484375 148.1953125 C184 150 184 150 184 153 C184.94746094 153.11730469 185.89492188 153.23460937 186.87109375 153.35546875 C191.67119711 154.0436081 196.35210248 155.17500595 201.0625 156.3125 C201.98119873 156.53252686 202.89989746 156.75255371 203.84643555 156.97924805 C211.29364841 158.78362736 218.66132488 160.79223051 226 163 C226.87953083 167.53390717 227.12875728 171.82989381 227.1328125 176.4453125 C227.13424759 177.48375809 227.13424759 177.48375809 227.13571167 178.54318237 C227.13638832 179.9970509 227.13457021 181.45092254 227.13037109 182.90478516 C227.12499905 185.12539446 227.13034193 187.34580303 227.13671875 189.56640625 C227.1360582 190.98437544 227.1347775 192.40234451 227.1328125 193.8203125 C227.13168457 195.10180176 227.13055664 196.38329102 227.12939453 197.70361328 C227.02526726 200.3563047 226.7957354 202.48952199 226 205 C225.23558594 205.17015625 224.47117187 205.3403125 223.68359375 205.515625 C217.60627543 206.89051771 211.57447126 208.36151727 205.5625 210 C198.42096657 211.9341653 191.24990415 213.52544322 184 215 C183.92523438 215.6084375 183.85046875 216.216875 183.7734375 216.84375 C182.7248005 223.83466334 180.65542654 230.02360278 177.94482422 236.515625 C176.38828619 240.28147111 176.38828619 240.28147111 176.26171875 244.28515625 C176.50535156 244.85105469 176.74898438 245.41695312 177 246 C177.33 246.99 177.66 247.98 178 249 C178.66 249 179.32 249 180 249 C181.2265625 250.3984375 181.2265625 250.3984375 182.625 252.375 C184.96924069 255.60686581 187.37348174 258.76287492 189.875 261.875 C190.54144531 262.7103125 191.20789063 263.545625 191.89453125 264.40625 C193.347654 266.19636782 194.82599467 267.96620553 196.32421875 269.71875 C197.06285156 270.5953125 197.80148437 271.471875 198.5625 272.375 C199.24441406 273.16648437 199.92632812 273.95796875 200.62890625 274.7734375 C202 277 202 277 201.8984375 278.98046875 C198.09665363 287.52621771 191.88254045 294.93908929 186.13671875 302.25 C183.95326167 304.99158201 183.95326167 304.99158201 182 308 C181.34 308 180.68 308 180 308 C179.67 308.99 179.34 309.98 179 311 C170.14232672 308.20867406 161.56391273 304.73743569 152.9375 301.3125 C151.38875914 300.69964922 149.83993171 300.08701716 148.29101562 299.47460938 C144.52634046 297.98559395 140.7628509 296.49361915 137 295 C137 295.66 137 296.32 137 297 C135.05586103 298.67069748 133.11291545 300.21946791 131.0625 301.75 C130.47364014 302.19520996 129.88478027 302.64041992 129.27807617 303.09912109 C116.08588224 313 116.08588224 313 113 313 C113.1539624 313.51336914 113.3079248 314.02673828 113.46655273 314.55566406 C114.1615624 317.74030334 114.33370888 320.85563834 114.53515625 324.109375 C114.59962196 325.13783539 114.59962196 325.13783539 114.66539001 326.18707275 C114.75536397 327.63599815 114.84350462 329.0850384 114.92993164 330.53417969 C115.06123356 332.72883198 115.19908966 334.92299814 115.33789062 337.1171875 C115.7462849 343.75633545 116.04748811 350.3479757 116 357 C108.70848396 360.69881479 101.43415605 363.11433615 93.53125 365.08203125 C89.89126676 366.02826583 86.42380257 367.19982107 82.9296875 368.58203125 C80.1232427 369.18990492 78.70129081 369.06489242 76 368 C74.13347875 365.68089911 72.60442048 363.5180873 71.0625 361 C70.19159505 359.63008829 69.32050179 358.26029628 68.44921875 356.890625 C68.0320459 356.22353516 67.61487305 355.55644531 67.18505859 354.86914062 C65.21104337 351.75561353 63.07778601 348.75176127 60.9609375 345.734375 C60 344 60 344 60 341 C59.34 341 58.68 341 58 341 C54 334.25 54 334.25 54 332 C53.35417969 332.15597656 52.70835937 332.31195313 52.04296875 332.47265625 C46.93393078 333.52801156 42.57866867 334.23232775 37.4296875 333.20703125 C30.17929266 331.84111744 30.17929266 331.84111744 23 333 C17.65809755 337.53357077 14.59825202 344.18912334 11.42138672 350.31494141 C9.33480652 354.25657814 6.95434458 357.96781472 4.5 361.6875 C4.11448975 362.31591797 3.72897949 362.94433594 3.33178711 363.59179688 C1.67116373 366.17652675 0.48931433 367.79545057 -2.3828125 368.99609375 C-5.65009859 369.0009703 -8.24750118 368.33001712 -11.375 367.375 C-12.59960938 367.00246094 -13.82421875 366.62992187 -15.0859375 366.24609375 C-16.39115939 365.83241147 -17.69583748 365.41700999 -19 365 C-19.66547852 364.79004395 -20.33095703 364.58008789 -21.01660156 364.36376953 C-27.55729417 362.29039208 -33.90486057 360.20552303 -40 357 C-39.47069332 342.27838912 -38.47173791 327.65739561 -37 313 C-37.98419922 312.690625 -37.98419922 312.690625 -38.98828125 312.375 C-43.16217007 310.46941133 -46.5595394 307.78417248 -50.1875 305 C-51.27321289 304.18015625 -51.27321289 304.18015625 -52.38085938 303.34375 C-57.67446911 299.32553089 -57.67446911 299.32553089 -60 297 C-64.76142105 297.34410489 -68.86473985 299.01464673 -73.19140625 300.90625 C-73.85913559 301.19101196 -74.52686493 301.47577393 -75.21482849 301.76916504 C-77.33343431 302.67325711 -79.44824197 303.58579145 -81.5625 304.5 C-83.68058128 305.41356869 -85.79944123 306.32509572 -87.92088318 307.23083496 C-89.23627262 307.79260501 -90.54975521 308.35886811 -91.86097717 308.93029785 C-95.21861299 310.36614543 -98.38717502 311.44134664 -102 312 C-107.86869506 305.26138775 -113.36066797 298.32856356 -118.5625 291.0625 C-119.08682617 290.3413501 -119.61115234 289.6202002 -120.15136719 288.87719727 C-125.28149468 281.61347247 -125.28149468 281.61347247 -125 278 C-123.41036043 275.29244157 -121.43069122 272.98928228 -119.375 270.625 C-118.29771843 269.34783727 -117.22218423 268.0691985 -116.1484375 266.7890625 C-115.61959961 266.16676758 -115.09076172 265.54447266 -114.54589844 264.90332031 C-113.00157599 263.00194037 -111.61035173 261.04370877 -110.2265625 259.0234375 C-109.12441406 257.52683594 -109.12441406 257.52683594 -108 256 C-107.34 256 -106.68 256 -106 256 C-105.34 254.35 -104.68 252.7 -104 251 C-103.34 251 -102.68 251 -102 251 C-99.96153695 248.00226022 -99.81544895 245.77608618 -100.453125 242.24609375 C-102.30650045 234.63401601 -104.86686449 227.18383947 -107.484375 219.8046875 C-108 218 -108 218 -108 215 C-108.94746094 214.88269531 -109.89492187 214.76539063 -110.87109375 214.64453125 C-115.67119711 213.9563919 -120.35210248 212.82499405 -125.0625 211.6875 C-125.98119873 211.46747314 -126.89989746 211.24744629 -127.84643555 211.02075195 C-135.29364841 209.21637264 -142.66132488 207.20776949 -150 205 C-150.87953083 200.46609283 -151.12875728 196.17010619 -151.1328125 191.5546875 C-151.13376923 190.86239044 -151.13472595 190.17009338 -151.13571167 189.45681763 C-151.13638832 188.0029491 -151.13457021 186.54907746 -151.13037109 185.09521484 C-151.12499905 182.87460554 -151.13034193 180.65419697 -151.13671875 178.43359375 C-151.1360582 177.01562456 -151.1347775 175.59765549 -151.1328125 174.1796875 C-151.13168457 172.89819824 -151.13055664 171.61670898 -151.12939453 170.29638672 C-151.02526726 167.6436953 -150.7957354 165.51047801 -150 163 C-149.23558594 162.82984375 -148.47117188 162.6596875 -147.68359375 162.484375 C-141.60627543 161.10948229 -135.57447126 159.63848273 -129.5625 158 C-122.42096657 156.0658347 -115.24990415 154.47455678 -108 153 C-107.92523438 152.3915625 -107.85046875 151.783125 -107.7734375 151.15625 C-106.7248005 144.16533666 -104.65542654 137.97639722 -101.94482422 131.484375 C-100.38828619 127.71852889 -100.38828619 127.71852889 -100.26171875 123.71484375 C-100.50535156 123.14894531 -100.74898437 122.58304687 -101 122 C-101.33 121.01 -101.66 120.02 -102 119 C-102.66 119 -103.32 119 -104 119 C-105.2265625 117.6015625 -105.2265625 117.6015625 -106.625 115.625 C-108.96924069 112.39313419 -111.37348174 109.23712508 -113.875 106.125 C-114.54144531 105.2896875 -115.20789063 104.454375 -115.89453125 103.59375 C-117.347654 101.80363218 -118.82599467 100.03379447 -120.32421875 98.28125 C-121.06285156 97.4046875 -121.80148438 96.528125 -122.5625 95.625 C-123.24441406 94.83351563 -123.92632812 94.04203125 -124.62890625 93.2265625 C-126 91 -126 91 -125.8984375 89.01953125 C-122.09665363 80.47378229 -115.88254045 73.06091071 -110.13671875 65.75 C-107.95326167 63.00841799 -107.95326167 63.00841799 -106 60 C-105.34 60 -104.68 60 -104 60 C-103.67 59.01 -103.34 58.02 -103 57 C-94.14232672 59.79132594 -85.56391273 63.26256431 -76.9375 66.6875 C-75.38875914 67.30035078 -73.83993171 67.91298284 -72.29101562 68.52539062 C-68.52634046 70.01440605 -64.7628509 71.50638085 -61 73 C-61 72.34 -61 71.68 -61 71 C-59.05586103 69.32930252 -57.11291545 67.78053209 -55.0625 66.25 C-54.47364014 65.80479004 -53.88478027 65.35958008 -53.27807617 64.90087891 C-40.08588224 55 -40.08588224 55 -37 55 C-37.2309436 54.22994629 -37.2309436 54.22994629 -37.46655273 53.44433594 C-38.1615624 50.25969666 -38.33370888 47.14436166 -38.53515625 43.890625 C-38.59962196 42.86216461 -38.59962196 42.86216461 -38.66539001 41.81292725 C-38.75536397 40.36400185 -38.84350462 38.9149616 -38.92993164 37.46582031 C-39.06123356 35.27116802 -39.19908966 33.07700186 -39.33789062 30.8828125 C-39.7462849 24.24366455 -40.04748811 17.6520243 -40 11 C-32.70848396 7.30118521 -25.43415605 4.88566385 -17.53125 2.91796875 C-13.89126676 1.97173417 -10.42380257 0.80017893 -6.9296875 -0.58203125 C-4.1232427 -1.18990492 -2.70129081 -1.06489242 0 0 Z M11.6484375 149.515625 C4.63479155 155.34719579 1.21293354 161.96683705 0 171 C-0.02816499 172.66642867 -0.03507995 174.33370256 0 176 C-0.60585937 175.94199219 -1.21171875 175.88398438 -1.8359375 175.82421875 C-9.58035477 175.40721167 -15.85450083 177.4169099 -21.78515625 182.54296875 C-23.2134623 183.93984308 -23.2134623 183.93984308 -23 186 C-23.66 186 -24.32 186 -25 186 C-28.43217393 192.86434786 -28.44453145 200.61683928 -27 208 C-26.34 208 -25.68 208 -25 208 C-25 209.32 -25 210.64 -25 212 C-24.34 212 -23.68 212 -23 212 C-22.79375 212.556875 -22.5875 213.11375 -22.375 213.6875 C-19.55884119 218.42376708 -15.20574556 221.4269055 -10 223 C-6.92036165 223.29372287 -3.85460151 223.29376505 -0.76269531 223.29052734 C0.15992096 223.29724457 1.08253723 223.30396179 2.03311157 223.31088257 C5.07942105 223.32986013 8.1255101 223.33378691 11.171875 223.3359375 C13.2955128 223.34236649 15.4191497 223.34909493 17.54278564 223.35610962 C21.99469047 223.36808243 26.44651771 223.37179052 30.8984375 223.37060547 C36.58894512 223.37040249 42.27895215 223.39768316 47.96934128 223.43214989 C52.35669211 223.45444578 56.74392309 223.45844215 61.13132477 223.45738602 C63.2283831 223.45973874 65.32544489 223.46854366 67.4224472 223.48405075 C70.36368791 223.50376116 73.30385731 223.49785227 76.24511719 223.48583984 C77.10257538 223.49707886 77.96003357 223.50831787 78.84347534 223.51989746 C86.26059748 223.44335461 92.24433235 221.39623274 97.875 216.5 C98.57625 215.675 99.2775 214.85 100 214 C100.78310547 213.09701172 100.78310547 213.09701172 101.58203125 212.17578125 C104.7803251 207.26820639 104.3414333 200.73561926 103.25 195.1875 C102.8375 194.135625 102.425 193.08375 102 192 C101.649375 190.96875 101.29875 189.9375 100.9375 188.875 C97.65859953 184.00953478 92.46585342 181.82195114 87 180 C86.26171875 177.99609375 86.26171875 177.99609375 85.6875 175.4375 C83.63502599 168.06964456 80.18624949 163.03856218 73.625 159 C68.26728484 156.36139237 63.96041282 156.02336897 58.34765625 157.875 C55.15996072 159.11897874 52.06020311 160.46989844 49 162 C48.835 161.154375 48.67 160.30875 48.5 159.4375 C46.12228864 153.98857814 42.05875494 150.39727177 36.6484375 147.92578125 C34.43994884 147.16869066 32.27304587 146.5305134 30 146 C29.195625 145.79117188 28.39125 145.58234375 27.5625 145.3671875 C21.98808201 144.56841419 16.32223345 146.50327811 11.6484375 149.515625 Z " fill="#2350A9" transform="translate(212,66)"/>
<path d="M0 0 C4.11384066 1.12928959 8.05611091 2.37885042 12 4 C11.47069332 18.72161088 10.47173791 33.34260439 9 48 C10.2065625 48.433125 10.2065625 48.433125 11.4375 48.875 C14 50 14 50 15 52 C11.375 55 11.375 55 8 55 C6.66666667 53 5.33333333 51 4 49 C4.875 46.5 4.875 46.5 6 44 C6 43.01 6 42.02 6 41 C5.34 41 4.68 41 4 41 C4 40.34 4 39.68 4 39 C4.99 39 5.98 39 7 39 C7.08153933 37.41753293 7.13943557 35.83383727 7.1875 34.25 C7.23970703 32.92742187 7.23970703 32.92742187 7.29296875 31.578125 C6.94684513 28.53223714 5.82832297 27.38433351 4 25 C4.33 24.01 4.66 23.02 5 22 C5.99 21.67 6.98 21.34 8 21 C8 16.38 8 11.76 8 7 C6.35 6.67 4.7 6.34 3 6 C1 3 1 3 0 0 Z " fill="#2168B1" transform="translate(316,73)"/>
<path d="M0 0 C0.66 0.99 1.32 1.98 2 3 C0.98819642 6.77126791 0.32378142 7.78414572 -3 10 C-3.72382467 12.05925139 -3.72382467 12.05925139 -4 14 C-3.34 14.33 -2.68 14.66 -2 15 C-0.95550089 18.13349732 -1.06576355 18.98968256 -2 22 C0.31 22.66 2.62 23.32 5 24 C4.67 25.98 4.34 27.96 4 30 C5.32 30 6.64 30 8 30 C8.33 31.65 8.66 33.3 9 35 C10.65 35 12.3 35 14 35 C14.2475 35.61875 14.495 36.2375 14.75 36.875 C16.22246063 39.37818306 17.41028837 39.83045281 20 41 C20.33 41.66 20.66 42.32 21 43 C18.69 43.66 16.38 44.32 14 45 C8.13130494 38.26138775 2.63933203 31.32856356 -2.5625 24.0625 C-3.08682617 23.3413501 -3.61115234 22.6202002 -4.15136719 21.87719727 C-9.18618019 14.74842783 -9.18618019 14.74842783 -9 11 C-7.12890625 8.10546875 -7.12890625 8.10546875 -4.5625 5.1875 C-3.71816406 4.21167969 -2.87382813 3.23585938 -2.00390625 2.23046875 C-1.34261719 1.49441406 -0.68132812 0.75835937 0 0 Z " fill="#344A9B" transform="translate(96,333)"/>
<path d="M0 0 C2.9375 0.375 2.9375 0.375 6 1 C6.33 1.66 6.66 2.32 7 3 C7.66 2.34 8.32 1.68 9 1 C11.5 1.0625 11.5 1.0625 14 2 C15.94925061 5.34157247 16.21821974 8.18115446 16 12 C14.125 11.8125 14.125 11.8125 12 11 C10.8671875 8.44921875 10.8671875 8.44921875 10 6 C9.35417969 6.15597656 8.70835937 6.31195313 8.04296875 6.47265625 C0.30250757 8.07157504 -6.70088012 7.9372961 -14.49926758 7.01782227 C-16.76355895 6.81096223 -18.75012039 6.66377817 -21 7 C-23.61531422 9.30044294 -23.61531422 9.30044294 -25 12 C-25.125 6.25 -25.125 6.25 -24 4 C-20.37 4.33 -16.74 4.66 -13 5 C-12.67 4.34 -12.34 3.68 -12 3 C-10.68 3 -9.36 3 -8 3 C-8 3.66 -8 4.32 -8 5 C-4.535 4.505 -4.535 4.505 -1 4 C-0.67 2.68 -0.34 1.36 0 0 Z " fill="#3C4899" transform="translate(256,392)"/>
<path d="M0 0 C2.08171462 2.28633575 3.68031245 4.81874576 5.3125 7.4375 C5.9940918 8.47874023 5.9940918 8.47874023 6.68945312 9.54101562 C10 14.68356438 10 14.68356438 10 17 C8.35 17.33 6.7 17.66 5 18 C4.375 16.1875 4.375 16.1875 4 14 C4.66 13.01 5.32 12.02 6 11 C5.01 11 4.02 11 3 11 C2.67 11.99 2.34 12.98 2 14 C-0.4375 13.25 -0.4375 13.25 -3 12 C-3.70962805 10.19863649 -4 8.91823096 -4 7 C-4.33 6.01 -4.66 5.02 -5 4 C-5.66 4 -6.32 4 -7 4 C-7 4.66 -7 5.32 -7 6 C-9.97 5.505 -9.97 5.505 -13 5 C-13.33 4.01 -13.66 3.02 -14 2 C-12.60993485 1.46396181 -11.21257351 0.94682527 -9.8125 0.4375 C-9.03519531 0.14746094 -8.25789062 -0.14257812 -7.45703125 -0.44140625 C-4.36091469 -1.14529285 -2.95950295 -1.23312623 0 0 Z " fill="#1A6DBA" transform="translate(212,66)"/>
<path d="M0 0 C0.99 0.33 1.98 0.66 3 1 C3.92641679 5.06973783 4.27633734 9.04389596 4.53515625 13.20703125 C4.59962196 14.23336922 4.59962196 14.23336922 4.66539001 15.28044128 C4.75522238 16.72339868 4.84337121 18.16646177 4.92993164 19.60961914 C5.06147001 21.79538473 5.19926093 23.9806896 5.33789062 26.16601562 C5.74652516 32.78905901 6.04734402 39.36402359 6 46 C3.36 46 0.72 46 -2 46 C-1.67 44.68 -1.34 43.36 -1 42 C-0.01 42.33 0.98 42.66 2 43 C1.34 41.35 0.68 39.7 0 38 C0.495 37.505 0.495 37.505 1 37 C1.20839015 35.35892758 1.36751725 33.71143707 1.5 32.0625 C1.89022298 27.21955403 1.89022298 27.21955403 3 25 C2.01 24.67 1.02 24.34 0 24 C0 23.34 0 22.68 0 22 C0.66 22 1.32 22 2 22 C1.814375 21.21625 1.62875 20.4325 1.4375 19.625 C0.87456309 14.96066559 1.40392396 10.64022271 2 6 C1.34 6 0.68 6 0 6 C0 4.02 0 2.04 0 0 Z " fill="#4A56A0" transform="translate(322,377)"/>
<path d="M0 0 C-0.125 1.875 -0.125 1.875 -1 4 C-5.58916476 6.29458238 -9.05316434 5.98936713 -14 5 C-14 5.66 -14 6.32 -14 7 C-16.31 7 -18.62 7 -21 7 C-21.33 18.22 -21.66 29.44 -22 41 C-22.66 41 -23.32 41 -24 41 C-24.024759 36.51595436 -24.04288799 32.03194519 -24.05493164 27.54785156 C-24.05995365 26.02310493 -24.0667725 24.49836309 -24.07543945 22.97363281 C-24.08759849 20.77928481 -24.09324968 18.5850006 -24.09765625 16.390625 C-24.10289307 15.07094727 -24.10812988 13.75126953 -24.11352539 12.39160156 C-24.02311329 9.69051582 -23.81881355 7.5499384 -23 5 C-21.7315625 4.70996094 -21.7315625 4.70996094 -20.4375 4.4140625 C-12.85928732 2.6784303 -12.85928732 2.6784303 -5.3125 0.8125 C-2 0 -2 0 0 0 Z " fill="#5779B2" transform="translate(85,224)"/>
<path d="M0 0 C0.99 0.33 1.98 0.66 3 1 C1.88321917 2.6721852 0.75633648 4.33762803 -0.375 6 C-1.00148438 6.928125 -1.62796875 7.85625 -2.2734375 8.8125 C-2.84320313 9.534375 -3.41296875 10.25625 -4 11 C-4.66 11 -5.32 11 -6 11 C-6.66 12.65 -7.32 14.3 -8 16 C-8.66 16 -9.32 16 -10 16 C-11.76217951 18.59144046 -12.00276035 19.95399417 -11.8125 23.125 C-10.82203808 27.84874147 -9.46975101 32.40587264 -8 37 C-8.99 36.67 -9.98 36.34 -11 36 C-11 34.35 -11 32.7 -11 31 C-11.99 31 -12.98 31 -14 31 C-14.33776684 29.2508503 -14.67003671 27.50063855 -15 25.75 C-15.185625 24.77546875 -15.37125 23.8009375 -15.5625 22.796875 C-16.17587195 18.87567573 -16 14.96046696 -16 11 C-13.6875 9.875 -13.6875 9.875 -11 9 C-10.01 9.66 -9.02 10.32 -8 11 C-7.01 10.67 -6.02 10.34 -5 10 C-4.67 8.02 -4.34 6.04 -4 4 C-3.01 4 -2.02 4 -1 4 C-0.67 2.68 -0.34 1.36 0 0 Z " fill="#225DB2" transform="translate(400,167)"/>
<path d="M0 0 C0 0.33 0 0.66 0 1 C-1.82337891 1.09087891 -1.82337891 1.09087891 -3.68359375 1.18359375 C-5.26824228 1.26798332 -6.85287702 1.3526321 -8.4375 1.4375 C-9.23994141 1.47681641 -10.04238281 1.51613281 -10.86914062 1.55664062 C-14.75239561 1.4054296 -14.75239561 1.4054296 -18 3 C-20.78965588 3.46892503 -23.57717018 3.89872069 -26.375 4.3125 C-41.82232422 6.74714915 -54.41830391 12.87210284 -67 22 C-67 19 -67 19 -66 17 C-65.34 17 -64.68 17 -64 17 C-64 16.34 -64 15.68 -64 15 C-42.9661395 4.62161613 -23.46992313 -0.7334351 0 0 Z " fill="#233C99" transform="translate(258,146)"/>
<path d="M0 0 C0.33 0 0.66 0 1 0 C1.125 2.375 1.125 2.375 1 5 C0.34 5.66 -0.32 6.32 -1 7 C-1.99 7 -2.98 7 -4 7 C-4.103125 7.598125 -4.20625 8.19625 -4.3125 8.8125 C-5.09643187 11.30682867 -6.18521597 12.18521597 -8 14 C-8 14.99 -8 15.98 -8 17 C-8.66 17 -9.32 17 -10 17 C-10 17.66 -10 18.32 -10 19 C-10.8353125 18.690625 -10.8353125 18.690625 -11.6875 18.375 C-14.70758675 17.8852562 -16.29422051 18.64711026 -19 20 C-19.66 20.66 -20.32 21.32 -21 22 C-22.32 22 -23.64 22 -25 22 C-25 21.34 -25 20.68 -25 20 C-23.05584622 18.3292898 -21.11303297 16.78040881 -19.0625 15.25 C-18.47291504 14.80479004 -17.88333008 14.35958008 -17.27587891 13.90087891 C-4.07111585 4 -4.07111585 4 0 4 C0 2.68 0 1.36 0 0 Z " fill="#1A65B7" transform="translate(176,117)"/>
<path d="M0 0 C0.66 0.33 1.32 0.66 2 1 C0.92598892 3.91517292 0.22189824 5.77810176 -2 8 C-2.64767793 10.57061311 -2.64767793 10.57061311 -3 13 C-3.66 13 -4.32 13 -5 13 C-5 13.66 -5 14.32 -5 15 C-6.65 15.33 -8.3 15.66 -10 16 C-10.0825 16.94875 -10.165 17.8975 -10.25 18.875 C-10.4975 19.90625 -10.745 20.9375 -11 22 C-13 23.125 -13 23.125 -15 24 C-15.60061233 25.90178785 -15.60061233 25.90178785 -16 28 C-17.5625 30.25 -17.5625 30.25 -19 32 C-19.70703125 30.33984375 -19.70703125 30.33984375 -20 28 C-18.69921875 25.44140625 -18.69921875 25.44140625 -16.6875 22.5625 C-15.95660156 21.51320312 -15.22570312 20.46390625 -14.47265625 19.3828125 C-11.11827752 14.74831271 -7.63134794 10.21656852 -4.1015625 5.71484375 C-2.66625409 3.8606814 -1.30065406 1.95098109 0 0 Z " fill="#3873B4" transform="translate(106,126)"/>
<path d="M0 0 C0.66 0 1.32 0 2 0 C2.87324234 2.95869122 3.06798037 5.41135492 2.87890625 8.484375 C2.83056641 9.33773438 2.78222656 10.19109375 2.73242188 11.0703125 C2.67634766 11.95460938 2.62027344 12.83890625 2.5625 13.75 C2.45766423 15.49467434 2.35477557 17.23946685 2.25390625 18.984375 C2.20508301 19.82677734 2.15625977 20.66917969 2.10595703 21.53710938 C2.00560196 23.86978677 1.99729668 26.1814423 2.02734375 28.515625 C2 32 2 32 1 34 C1.66 34 2.32 34 3 34 C4 36 5 38 6 40 C0.25 38.125 0.25 38.125 -2 37 C-1.4738711 24.65542575 -0.90218626 12.32348046 0 0 Z " fill="#646DAA" transform="translate(174,386)"/>
<path d="M0 0 C0.33 0 0.66 0 1 0 C1.02726927 2.35424675 1.04696719 4.70816962 1.0625 7.0625 C1.07410156 8.37347656 1.08570313 9.68445313 1.09765625 11.03515625 C1.00452335 14.8163519 0.61448726 18.27920707 0 22 C1.2065625 22.433125 1.2065625 22.433125 2.4375 22.875 C5 24 5 24 6 26 C2.375 29 2.375 29 -1 29 C-2.33333333 27 -3.66666667 25 -5 23 C-4.125 20.5 -4.125 20.5 -3 18 C-3 17.01 -3 16.02 -3 15 C-3.66 15 -4.32 15 -5 15 C-5 14.34 -5 13.68 -5 13 C-4.01 13 -3.02 13 -2 13 C-1.34 8.71 -0.68 4.42 0 0 Z " fill="#3C7ABC" transform="translate(325,99)"/>
<path d="M0 0 C-0.020625 0.9075 -0.04125 1.815 -0.0625 2.75 C-0.01080926 5.43791858 0.07340854 7.49820306 1 10 C1.66 10.33 2.32 10.66 3 11 C4.45410738 15.24114653 3.54853677 17.90093209 2 22 C2 22.66 2 23.32 2 24 C1.34 24 0.68 24 0 24 C0 25.65 0 27.3 0 29 C-1.625 28 -1.625 28 -3 26 C-2.45984035 23.20917514 -1.84426971 20.69110969 -1 18 C0.05639061 14.28772781 0.05639061 14.28772781 -0.9375 10.6875 C-1.288125 10.130625 -1.63875 9.57375 -2 9 C-2.66 9 -3.32 9 -4 9 C-4.99 7.02 -5.98 5.04 -7 3 C-2.25 0 -2.25 0 0 0 Z " fill="#386AB0" transform="translate(112,176)"/>
<path d="M0 0 C0.33 0.66 0.66 1.32 1 2 C0.0625 4.125 0.0625 4.125 -1 6 C-0.01 6.33 0.98 6.66 2 7 C2.6875 9.0625 2.6875 9.0625 3 11 C1.576875 11.2165625 1.576875 11.2165625 0.125 11.4375 C-2.8934494 11.82935399 -2.8934494 11.82935399 -5 13 C-4.938125 14.1446875 -4.938125 14.1446875 -4.875 15.3125 C-5 18 -5 18 -7 21 C-9.625 21.1875 -9.625 21.1875 -12 21 C-11.5853677 15.6097801 -8.48058685 11.93870373 -5.4375 7.6875 C-4.91736328 6.94693359 -4.39722656 6.20636719 -3.86132812 5.44335938 C-2.58156882 3.62351816 -1.29437782 1.80945816 0 0 Z " fill="#317ABF" transform="translate(277,83)"/>
<path d="M0 0 C2.31 0.66 4.62 1.32 7 2 C6.67 2.99 6.34 3.98 6 5 C5.01 5 4.02 5 3 5 C3.33 5.99 3.66 6.98 4 8 C2.79143116 11.40596674 0.81774616 13.76237805 -2 16 C-4.25 15.75 -4.25 15.75 -6 15 C-5.42873204 11.00112425 -4.12716428 8.40346284 -2 5 C-1.30177383 3.34630643 -0.62501395 1.68272986 0 0 Z " fill="#2C71BF" transform="translate(109,123)"/>
<path d="M0 0 C0.53625 0.226875 1.0725 0.45375 1.625 0.6875 C0.305 1.0175 -1.015 1.3475 -2.375 1.6875 C-2.375 2.3475 -2.375 3.0075 -2.375 3.6875 C-2.86395752 4.05528564 -3.35291504 4.42307129 -3.85668945 4.80200195 C-6.27434725 7.80434496 -5.74188605 11.17020462 -5.66796875 14.85546875 C-5.66372391 15.65028152 -5.65947906 16.4450943 -5.65510559 17.26399231 C-5.6383193 19.80134021 -5.60066824 22.33789238 -5.5625 24.875 C-5.54745305 26.59569165 -5.53376466 28.31639576 -5.52148438 30.03710938 C-5.48841607 34.25421262 -5.43663495 38.47072142 -5.375 42.6875 C-5.705 42.6875 -6.035 42.6875 -6.375 42.6875 C-6.66311432 38.27689887 -6.94781568 33.86609398 -7.22949219 29.45507812 C-7.3255821 27.95762328 -7.42256974 26.46022573 -7.52050781 24.96289062 C-7.66192608 22.79832537 -7.80000768 20.63356777 -7.9375 18.46875 C-8.02128906 17.17001953 -8.10507813 15.87128906 -8.19140625 14.53320312 C-8.38049385 10.57242132 -8.40585045 6.65178225 -8.375 2.6875 C-2.95961538 -0.38942308 -2.95961538 -0.38942308 0 0 Z " fill="#5E95C8" transform="translate(180.375,74.3125)"/>
<path d="M0 0 C5.19075302 0.74392435 10.14569823 2.03495498 15.1875 3.4375 C15.99380859 3.65470703 16.80011719 3.87191406 17.63085938 4.09570312 C18.79391602 4.41764648 18.79391602 4.41764648 19.98046875 4.74609375 C20.68067139 4.93872803 21.38087402 5.1313623 22.10229492 5.32983398 C24 6 24 6 27 8 C21.53245033 8.25430464 21.53245033 8.25430464 18.90625 7 C14.66894433 5.54200235 10.63235627 5.78882083 6.1875 5.875 C4.86202148 5.88853516 4.86202148 5.88853516 3.50976562 5.90234375 C1.33972641 5.92580363 -0.83017247 5.96167135 -3 6 C-3 6.66 -3 7.32 -3 8 C-3.66 7.67 -4.32 7.34 -5 7 C-3.35 4.69 -1.7 2.38 0 0 Z " fill="#327ABA" transform="translate(289,65)"/>
<path d="M0 0 C2.31 0.66 4.62 1.32 7 2 C7 2.66 7 3.32 7 4 C5.34997172 5.35386936 3.6825613 6.68678142 2 8 C1.67 8.66 1.34 9.32 1 10 C0.34 10 -0.32 10 -1 10 C-1.75241109 13.65456815 -2.40049704 17.31733897 -3 21 C-3.33 21 -3.66 21 -4 21 C-5.9333722 8.44265188 -5.9333722 8.44265188 -2.5625 3.1875 C-1.73988282 2.10039011 -0.89662128 1.0269261 0 0 Z " fill="#4564AD" transform="translate(188,242)"/>
<path d="M0 0 C0.66 0.33 1.32 0.66 2 1 C0.6302836 4.99500618 -1.25722422 7.80009492 -4 11 C-8.46254673 10.34694438 -12.71702233 9.42765922 -17 8 C-17.33 7.34 -17.66 6.68 -18 6 C-14.37 6.33 -10.74 6.66 -7 7 C-6.67 5.35 -6.34 3.7 -6 2 C-4.02 2 -2.04 2 0 2 C0 1.34 0 0.68 0 0 Z " fill="#474C98" transform="translate(215,424)"/>
<path d="M0 0 C0.83354507 0.00141495 1.66709015 0.0028299 2.52589417 0.00428772 C5.16443611 0.00984457 7.80289034 0.02238885 10.44140625 0.03515625 C12.24023314 0.04017683 14.03906138 0.04473876 15.83789062 0.04882812 C20.22659583 0.05979982 24.61523621 0.07703429 29.00390625 0.09765625 C29.00390625 0.75765625 29.00390625 1.41765625 29.00390625 2.09765625 C30.32390625 2.42765625 31.64390625 2.75765625 33.00390625 3.09765625 C30.87897484 3.124592 28.75394713 3.14402253 26.62890625 3.16015625 C25.44554687 3.17175781 24.2621875 3.18335938 23.04296875 3.1953125 C20.00390625 3.09765625 20.00390625 3.09765625 18.00390625 2.09765625 C16.48937602 2.00160491 14.97069655 1.96690988 13.453125 1.96484375 C12.07181396 1.96194336 12.07181396 1.96194336 10.66259766 1.95898438 C9.68210449 1.96349609 8.70161133 1.96800781 7.69140625 1.97265625 C6.70060059 1.97458984 5.70979492 1.97652344 4.68896484 1.97851562 C-2.58193649 2.0212089 -9.76166855 2.33326415 -16.99609375 3.09765625 C-16.66609375 2.43765625 -16.33609375 1.77765625 -15.99609375 1.09765625 C-10.66698066 -0.00164407 -5.424059 -0.03521068 0 0 Z " fill="#245BB1" transform="translate(243.99609375,144.90234375)"/>
<path d="M0 0 C0.33 0.66 0.66 1.32 1 2 C1.66902344 1.84402344 2.33804688 1.68804687 3.02734375 1.52734375 C12.20565589 -0.33295844 20.75237075 0.1891889 30 1 C29.01 2.485 29.01 2.485 28 4 C25.29443359 4.34057617 25.29443359 4.34057617 21.8984375 4.29296875 C20.08085937 4.2784668 20.08085937 4.2784668 18.2265625 4.26367188 C16.95554688 4.23853516 15.68453125 4.21339844 14.375 4.1875 C13.09625 4.17396484 11.8175 4.16042969 10.5 4.14648438 C7.33291718 4.11103196 4.16666459 4.06161441 1 4 C0.67 2.68 0.34 1.36 0 0 Z " fill="#4E86BC" transform="translate(233,100)"/>
<path d="M0 0 C3.84762566 3.4201117 6.60634022 7.46774256 9 12 C9 12.66 9 13.32 9 14 C7.35 14.33 5.7 14.66 4 15 C3.375 13.1875 3.375 13.1875 3 11 C3.66 10.01 4.32 9.02 5 8 C4.01 8 3.02 8 2 8 C1.67 8.99 1.34 9.98 1 11 C-1.4375 10.25 -1.4375 10.25 -4 9 C-4.8125 6.875 -4.8125 6.875 -5 5 C-3.68 5 -2.36 5 -1 5 C-0.67 3.35 -0.34 1.7 0 0 Z " fill="#3E85C5" transform="translate(213,69)"/>
<path d="M0 0 C1.65 0 3.3 0 5 0 C5 0.66 5 1.32 5 2 C7.97 2.33 10.94 2.66 14 3 C10.74746746 5.16835503 10.32972673 5.20659243 6.69140625 4.80078125 C5.44713867 4.68959961 5.44713867 4.68959961 4.17773438 4.57617188 C2.43690083 4.40065841 0.69723083 4.21318553 -1.04101562 4.01367188 C-3.45075216 3.80990052 -5.6032587 3.66700896 -8 4 C-10.65410061 6.28930251 -10.65410061 6.28930251 -12 9 C-12.125 3.25 -12.125 3.25 -11 1 C-7.37 1.33 -3.74 1.66 0 2 C0 1.34 0 0.68 0 0 Z " fill="#5D6AA3" transform="translate(243,395)"/>
<path d="M0 0 C2.475 0.495 2.475 0.495 5 1 C5 2.65 5 4.3 5 6 C5.66 6 6.32 6 7 6 C7 8.31 7 10.62 7 13 C7.721875 12.9175 8.44375 12.835 9.1875 12.75 C12.83548794 13.07426559 14.34568298 14.57319587 17 17 C16.67 17.99 16.34 18.98 16 20 C14.30729167 19.0234375 12.61458333 18.046875 10.921875 17.0703125 C9.00863117 15.94717231 9.00863117 15.94717231 6.8671875 15.171875 C4.27143016 13.5427386 4.09663853 12.05502632 3.375 9.125 C2.54078718 5.83722006 1.62463232 2.98543546 0 0 Z " fill="#5D73B0" transform="translate(293,232)"/>
<path d="M0 0 C2.31 0.66 4.62 1.32 7 2 C7.33 3.32 7.66 4.64 8 6 C11.465 5.505 11.465 5.505 15 5 C15 4.34 15 3.68 15 3 C17.97 3.33 20.94 3.66 24 4 C24 4.33 24 4.66 24 5 C23.20335937 5.19335938 22.40671875 5.38671875 21.5859375 5.5859375 C13.7134296 7.51794536 13.7134296 7.51794536 6 10 C5.18639005 8.70903219 4.37414954 7.41720125 3.5625 6.125 C2.88380859 5.04605469 2.88380859 5.04605469 2.19140625 3.9453125 C1 2 1 2 0 0 Z " fill="#5468A6" transform="translate(255,218)"/>
<path d="M0 0 C3.79620155 1.26540052 4.48678188 2.78218431 6.6875 6.0625 C7.31011719 6.98160156 7.93273437 7.90070313 8.57421875 8.84765625 C9.04472656 9.55792969 9.51523437 10.26820313 10 11 C9.25 12.9375 9.25 12.9375 8 15 C5.875 15.75 5.875 15.75 4 16 C3.96261719 15.38511719 3.92523438 14.77023438 3.88671875 14.13671875 C3.82097656 13.32847656 3.75523437 12.52023438 3.6875 11.6875 C3.62949219 10.88699219 3.57148438 10.08648437 3.51171875 9.26171875 C3.19302806 6.91856765 3.19302806 6.91856765 1.45703125 5.45703125 C0.97621094 4.97621094 0.49539063 4.49539062 0 4 C0 2.68 0 1.36 0 0 Z " fill="#2F6FB7" transform="translate(400,137)"/>
<path d="M0 0 C2.33524782 2.25740623 4.18705073 4.2805761 6 7 C6 7.99 6 8.98 6 10 C6.66 10 7.32 10 8 10 C8.99 12.31 9.98 14.62 11 17 C10.071875 16.690625 10.071875 16.690625 9.125 16.375 C8.42375 16.25125 7.7225 16.1275 7 16 C6.34 16.66 5.68 17.32 5 18 C4.67 16.35 4.34 14.7 4 13 C3.34 13 2.68 13 2 13 C1.93941406 12.39671875 1.87882813 11.7934375 1.81640625 11.171875 C1.69072266 9.97304687 1.69072266 9.97304687 1.5625 8.75 C1.48128906 7.96109375 1.40007812 7.1721875 1.31640625 6.359375 C1.02365007 4.17635361 0.57935581 2.1226818 0 0 Z " fill="#256FBB" transform="translate(222,83)"/>
<path d="M0 0 C1.5625 1.375 1.5625 1.375 2.5625 4.375 C2.2325 5.365 1.9025 6.355 1.5625 7.375 C0.5725 7.375 -0.4175 7.375 -1.4375 7.375 C-1.4375 6.715 -1.4375 6.055 -1.4375 5.375 C-2.4275 5.705 -3.4175 6.035 -4.4375 6.375 C-7.17562607 5.91951823 -9.7576176 5.12185247 -12.4375 4.375 C-9.20645789 1.14395789 -4.56131312 -1.16956747 0 0 Z " fill="#2868B4" transform="translate(390.4375,122.625)"/>
<path d="M0 0 C0.99 0.33 1.98 0.66 3 1 C-2.42638623 6.67877629 -2.42638623 6.67877629 -5.34375 8.3125 C-8.76100467 10.48346179 -11.14934505 13.16878364 -13.8125 16.1875 C-14.31458984 16.74630859 -14.81667969 17.30511719 -15.33398438 17.88085938 C-16.56165889 19.24883954 -17.7816269 20.62372916 -19 22 C-19 19 -19 19 -18 17 C-17.34 17 -16.68 17 -16 17 C-15.773125 16.443125 -15.54625 15.88625 -15.3125 15.3125 C-11.8153711 9.15089193 -5.25551065 4.61431545 0 0 Z " fill="#223F9B" transform="translate(187,167)"/>
<path d="M0 0 C0.66 0 1.32 0 2 0 C4.60018816 3.90028225 4.15085514 7.47434569 4 12 C1.36 12 -1.28 12 -4 12 C-3.67 10.68 -3.34 9.36 -3 8 C-2.01 8.33 -1.02 8.66 0 9 C-0.37125 8.2575 -0.7425 7.515 -1.125 6.75 C-2 4 -2 4 -1.125 1.6875 C-0.75375 1.130625 -0.3825 0.57375 0 0 Z " fill="#4750A2" transform="translate(324,411)"/>
<path d="M0 0 C-2.25242085 2.25242085 -3.14523536 2.41353935 -6.1875 3 C-8.95859116 3.54354152 -11.59491494 4.17861513 -14.3046875 4.9921875 C-18.19062714 6.05198922 -21.9490001 6.64747597 -25.9375 7.125 C-26.62134766 7.21136719 -27.30519531 7.29773438 -28.00976562 7.38671875 C-29.67257046 7.59602285 -31.33620513 7.79871722 -33 8 C-32.67 7.34 -32.34 6.68 -32 6 C-29.47041493 5.43091785 -26.99375502 4.9676036 -24.4375 4.5625 C-18.62565426 3.56830941 -13.46373657 2.26796613 -8 0 C-4.52356484 -0.92704938 -3.46125104 -1.15375035 0 0 Z " fill="#2047A2" transform="translate(290,348)"/>
<path d="M0 0 C0.33 0.99 0.66 1.98 1 3 C0.01 3.33 -0.98 3.66 -2 4 C-3.21869929 6.50447516 -3.21869929 6.50447516 -4 9 C-4.99 9 -5.98 9 -7 9 C-7 8.34 -7 7.68 -7 7 C-8.98 7.33 -10.96 7.66 -13 8 C-13 7.34 -13 6.68 -13 6 C-12.34 5.67 -11.68 5.34 -11 5 C-11 4.34 -11 3.68 -11 3 C-9.73160474 2.49384702 -8.46016898 1.99530901 -7.1875 1.5 C-6.12595703 1.08234375 -6.12595703 1.08234375 -5.04296875 0.65625 C-3 0 -3 0 0 0 Z " fill="#3372BA" transform="translate(359,135)"/>
<path d="M0 0 C0.598125 0.350625 1.19625 0.70125 1.8125 1.0625 C1.8125 2.0525 1.8125 3.0425 1.8125 4.0625 C4.2875 5.0525 4.2875 5.0525 6.8125 6.0625 C4.45296906 8.42203094 3.03354383 8.55391413 -0.1875 9.0625 C-5.1875 3.4375 -5.1875 3.4375 -5.1875 0.0625 C-2.1875 -0.9375 -2.1875 -0.9375 0 0 Z " fill="#37499B" transform="translate(110.1875,368.9375)"/>
<path d="M0 0 C5.35913191 -0.43927311 5.35913191 -0.43927311 8 0 C9.875 2.4375 9.875 2.4375 11 5 C11.66 5.33 12.32 5.66 13 6 C13 6.66 13 7.32 13 8 C13.99 7.67 14.98 7.34 16 7 C16 8.32 16 9.64 16 11 C11.87321179 9.55901911 8.69813572 7.52700506 5.1875 4.9375 C4.21167969 4.22464844 3.23585937 3.51179688 2.23046875 2.77734375 C1.49441406 2.19082031 0.75835937 1.60429687 0 1 C0 0.67 0 0.34 0 0 Z " fill="#495AA4" transform="translate(159,368)"/>
<path d="M0 0 C4.1435926 1.13745679 7.99751201 2.39900481 12 4 C11.67 11.26 11.34 18.52 11 26 C10.67 26 10.34 26 10 26 C10 19.4 10 12.8 10 6 C7.69 6 5.38 6 3 6 C1 3 1 3 0 0 Z " fill="#6F9ECB" transform="translate(316,73)"/>
<path d="M0 0 C-1.97420135 2.52259061 -2.96745642 2.9929808 -6.1875 3.6875 C-7.5796875 3.8421875 -7.5796875 3.8421875 -9 4 C-8.67 4.99 -8.34 5.98 -8 7 C-11.98196457 8.05404945 -14.98195309 7.84098656 -19 7 C-15.85488067 4.42327573 -12.67836053 2.82607507 -8.9375 1.25 C-7.89464844 0.80140625 -6.85179687 0.3528125 -5.77734375 -0.109375 C-3 -1 -3 -1 0 0 Z " fill="#437DBA" transform="translate(378,128)"/>
<path d="M0 0 C2 2 2 2 2.125 4.625 C2.08375 5.40875 2.0425 6.1925 2 7 C1.34 7 0.68 7 0 7 C-0.33 9.31 -0.66 11.62 -1 14 C-3 12.8125 -3 12.8125 -5 11 C-5.60068172 7.7391564 -5.1109675 6.22193499 -3.625 3.25 C-2 1 -2 1 0 0 Z " fill="#1D60B3" transform="translate(93,149)"/>
<path d="M0 0 C1 2 1 2 0.328125 4.12890625 C-0.02765625 4.93199219 -0.3834375 5.73507813 -0.75 6.5625 C-1.09546875 7.36816406 -1.4409375 8.17382812 -1.796875 9.00390625 C-3 11 -3 11 -6 12 C-6.36548445 13.32488113 -6.6937566 14.66018514 -7 16 C-8.5625 18.25 -8.5625 18.25 -10 20 C-10.734375 18.375 -10.734375 18.375 -11 16 C-9.453125 13.125 -9.453125 13.125 -7.25 10 C-6.53328125 8.96875 -5.8165625 7.9375 -5.078125 6.875 C-3.40814326 4.56464932 -1.72429227 2.26995438 0 0 Z " fill="#5A8AC0" transform="translate(97,138)"/>
<path d="M0 0 C1.69393215 1.64553409 3.35732623 3.30419392 5 5 C5.73283203 5.75603516 5.73283203 5.75603516 6.48046875 6.52734375 C10 10.40178571 10 10.40178571 10 13.3125 C9 15 9 15 6 16 C5.62875 14.14375 5.62875 14.14375 5.25 12.25 C4.31474488 8.40054414 2.90615402 6.71241042 0 4 C0 2.68 0 1.36 0 0 Z " fill="#4E61A7" transform="translate(404,332)"/>
<path d="M0 0 C1.50451347 2.37124406 2.08130355 3.51461782 1.609375 6.33203125 C1.32578125 7.15058594 1.0421875 7.96914063 0.75 8.8125 C0.45996094 9.68261719 0.16992188 10.55273438 -0.12890625 11.44921875 C-0.41636719 12.29097656 -0.70382812 13.13273437 -1 14 C-1.40557587 15.37215788 -1.80295169 16.74680131 -2.1875 18.125 C-2.455625 19.07375 -2.72375 20.0225 -3 21 C-5.02907167 17.6853333 -5.12742133 15.5684021 -4.625 11.75 C-4.51414062 10.85796875 -4.40328125 9.9659375 -4.2890625 9.046875 C-4.14597656 8.03367187 -4.14597656 8.03367187 -4 7 C-3.01 6.67 -2.02 6.34 -1 6 C-0.67 4.02 -0.34 2.04 0 0 Z " fill="#4A67AC" transform="translate(390,292)"/>
<path d="M0 0 C0.99 0.33 1.98 0.66 3 1 C2.69320312 1.69480469 2.38640625 2.38960937 2.0703125 3.10546875 C0.93099536 6.18661473 0.37401091 9.06892908 -0.125 12.3125 C-0.37636719 13.91544922 -0.37636719 13.91544922 -0.6328125 15.55078125 C-0.75398437 16.35902344 -0.87515625 17.16726562 -1 18 C-4.3 18 -7.6 18 -11 18 C-11 17.67 -11 17.34 -11 17 C-8.03 17 -5.06 17 -2 17 C-2.10699219 16.02417969 -2.21398437 15.04835937 -2.32421875 14.04296875 C-2.44410156 12.77066406 -2.56398437 11.49835938 -2.6875 10.1875 C-2.81511719 8.92292969 -2.94273437 7.65835938 -3.07421875 6.35546875 C-3 3 -3 3 -1.51953125 1.05078125 C-1.01808594 0.70402344 -0.51664063 0.35726562 0 0 Z " fill="#6D80BA" transform="translate(213,224)"/>
<path d="M0 0 C2.09454478 0.8251237 4.07841042 1.74959487 6.0625 2.8125 C5.0725 3.1425 4.0825 3.4725 3.0625 3.8125 C3.0625 4.4725 3.0625 5.1325 3.0625 5.8125 C0.7525 6.1425 -1.5575 6.4725 -3.9375 6.8125 C-4.625 5 -4.625 5 -4.9375 2.8125 C-3.44989478 0.54194467 -2.76667561 -0.2677428 0 0 Z " fill="#2845A0" transform="translate(266.9375,217.1875)"/>
<path d="M0 0 C0.66 0.33 1.32 0.66 2 1 C0.52267049 4.8947778 -1.45879633 5.97645504 -5 8 C-5.680625 8.721875 -6.36125 9.44375 -7.0625 10.1875 C-9 12 -9 12 -13 12 C-13 11.34 -13 10.68 -13 10 C-10.8664718 8.21229093 -8.73155942 6.53127176 -6.5 4.875 C-5.87996094 4.40707031 -5.25992188 3.93914062 -4.62109375 3.45703125 C-3.08497483 2.29903391 -1.54301941 1.14878643 0 0 Z " fill="#5785BA" transform="translate(164,127)"/>
<path d="M0 0 C2.73886155 0.02559684 4.40257532 0.30085844 7.0625 1.1875 C6.7325 1.8475 6.4025 2.5075 6.0625 3.1875 C5.2375 3.31125 4.4125 3.435 3.5625 3.5625 C-0.37333017 4.26532682 -3.42073724 5.68773605 -6.984375 7.4453125 C-7.62890625 7.69023437 -8.2734375 7.93515625 -8.9375 8.1875 C-9.5975 7.8575 -10.2575 7.5275 -10.9375 7.1875 C-10.298125 6.919375 -9.65875 6.65125 -9 6.375 C-6.60618314 5.30082248 -6.60618314 5.30082248 -5.9375 2.1875 C-3.9375 0.1875 -3.9375 0.1875 0 0 Z " fill="#485FA9" transform="translate(145.9375,359.8125)"/>
<path d="M0 0 C-0.99 0.495 -0.99 0.495 -2 1 C-2.33 1.66 -2.66 2.32 -3 3 C-5.5625 3.625 -5.5625 3.625 -8 4 C-8.66 6.31 -9.32 8.62 -10 11 C-11.32 11 -12.64 11 -14 11 C-14.33 9.68 -14.66 8.36 -15 7 C-14.01 7 -13.02 7 -12 7 C-11.67 5.35 -11.34 3.7 -11 2 C-7.17679443 0.57741188 -4.08718695 -0.24042276 0 0 Z " fill="#26469D" transform="translate(120,316)"/>
<path d="M0 0 C3.21458724 1.48195421 5.93335896 3.29740509 8.75 5.4375 C9.94882812 6.33275391 9.94882812 6.33275391 11.171875 7.24609375 C12.07679688 8.11427734 12.07679688 8.11427734 13 9 C13 9.99 13 10.98 13 12 C12.484375 11.319375 11.96875 10.63875 11.4375 9.9375 C9.02745496 7.57571378 9.02745496 7.57571378 5.25 8.25 C4.1775 8.4975 3.105 8.745 2 9 C2.04125 8.2575 2.0825 7.515 2.125 6.75 C1.99601866 3.91241048 1.42948778 2.41226062 0 0 Z " fill="#5087C0" transform="translate(334,127)"/>
<path d="M0 0 C3 1 6 2 9 3 C9.99 3 10.98 3 12 3 C11.67 3.99 11.34 4.98 11 6 C2.18584071 6.29380531 2.18584071 6.29380531 -1 4 C-1.33 3.34 -1.66 2.68 -2 2 C-1.34 2 -0.68 2 0 2 C0 1.34 0 0.68 0 0 Z " fill="#2A479B" transform="translate(276,217)"/>
<path d="M0 0 C2.31 0.33 4.62 0.66 7 1 C7 2.65 7 4.3 7 6 C6.67 4.68 6.34 3.36 6 2 C5.01 2.495 5.01 2.495 4 3 C4.33 3.53625 4.66 4.0725 5 4.625 C6.22699204 7.5391061 6.14233286 9.86867708 6 13 C5.01 13.495 5.01 13.495 4 14 C3.67 11.36 3.34 8.72 3 6 C2.34 6 1.68 6 1 6 C1 5.34 1 4.68 1 4 C0.34 4 -0.32 4 -1 4 C-0.67 2.68 -0.34 1.36 0 0 Z " fill="#3967B4" transform="translate(431,228)"/>
<path d="M0 0 C-0.53625 0.2475 -1.0725 0.495 -1.625 0.75 C-6.47584895 3.30307839 -10.7777182 6.52282675 -15 10 C-15 8.35 -15 6.7 -15 5 C-14.34 5 -13.68 5 -13 5 C-12.67 4.01 -12.34 3.02 -12 2 C-11.34 2.33 -10.68 2.66 -10 3 C-10 2.34 -10 1.68 -10 1 C-6.52674819 -0.1577506 -3.63932552 -0.06866652 0 0 Z " fill="#6778B3" transform="translate(232,212)"/>
<path d="M0 0 C0.33 0.66 0.66 1.32 1 2 C3.34386809 2.91031272 3.34386809 2.91031272 6.0625 3.625 C6.98160156 3.88539063 7.90070313 4.14578125 8.84765625 4.4140625 C9.55792969 4.60742188 10.26820313 4.80078125 11 5 C11 5.99 11 6.98 11 8 C11.99 7.67 12.98 7.34 14 7 C13.67 7.99 13.34 8.98 13 10 C11.865625 9.38125 10.73125 8.7625 9.5625 8.125 C5.17163089 5.90992828 0.82170604 4.8482631 -4 4 C-2.68 3.67 -1.36 3.34 0 3 C0 2.01 0 1.02 0 0 Z " fill="#6475B3" transform="translate(242,208)"/>
<path d="M0 0 C0.66 0 1.32 0 2 0 C2.92321855 3.03905386 3.02162761 5.39994788 2.66015625 8.546875 C2.56669922 9.39121094 2.47324219 10.23554688 2.37695312 11.10546875 C2.27318359 11.97816406 2.16941406 12.85085938 2.0625 13.75 C1.96259766 14.63816406 1.86269531 15.52632813 1.75976562 16.44140625 C1.51284599 18.62840871 1.25938365 20.81444667 1 23 C0.67 23 0.34 23 0 23 C0 15.41 0 7.82 0 0 Z " fill="#4F5B9F" transform="translate(174,386)"/>
<path d="M0 0 C4.40114397 0.50298788 6.71195019 2.08772731 10 5 C9.67 5.66 9.34 6.32 9 7 C1.375 5.25 1.375 5.25 -2 3 C-1.34 2.67 -0.68 2.34 0 2 C0 1.34 0 0.68 0 0 Z " fill="#5058A3" transform="translate(186,424)"/>
<path d="M0 0 C0.33 0.66 0.66 1.32 1 2 C1.99 2.33 2.98 2.66 4 3 C2.71344735 4.81613362 1.42060005 6.62780954 0.125 8.4375 C-0.95394531 9.95150391 -0.95394531 9.95150391 -2.0546875 11.49609375 C-4 14 -4 14 -6 15 C-6 13.68 -6 12.36 -6 11 C-5.34 11 -4.68 11 -4 11 C-4 10.34 -4 9.68 -4 9 C-3.34 9 -2.68 9 -2 9 C-2.33 7.68 -2.66 6.36 -3 5 C-2.01 5 -1.02 5 0 5 C-0.33 4.01 -0.66 3.02 -1 2 C-0.67 1.34 -0.34 0.68 0 0 Z " fill="#5E6DAA" transform="translate(401,356)"/>
<path d="M0 0 C0.99 0.33 1.98 0.66 3 1 C1.88321917 2.6721852 0.75633648 4.33762803 -0.375 6 C-1.00148438 6.928125 -1.62796875 7.85625 -2.2734375 8.8125 C-2.84320313 9.534375 -3.41296875 10.25625 -4 11 C-4.66 11 -5.32 11 -6 11 C-6.66 12.65 -7.32 14.3 -8 16 C-8.33 14.68 -8.66 13.36 -9 12 C-8.34 12 -7.68 12 -7 12 C-7 11.34 -7 10.68 -7 10 C-6.34 10 -5.68 10 -5 10 C-4.67 8.02 -4.34 6.04 -4 4 C-3.01 4 -2.02 4 -1 4 C-0.67 2.68 -0.34 1.36 0 0 Z " fill="#678EC2" transform="translate(400,167)"/>
<path d="M0 0 C0.99 0.33 1.98 0.66 3 1 C-2.0022779 10.59453303 -2.0022779 10.59453303 -6 14 C-6.33 12.68 -6.66 11.36 -7 10 C-5.68 9.67 -4.36 9.34 -3 9 C-3.33 7.68 -3.66 6.36 -4 5 C-3.34 4.67 -2.68 4.34 -2 4 C-0.86649466 1.98330173 -0.86649466 1.98330173 0 0 Z " fill="#5E68A9" transform="translate(228,403)"/>
<path d="M0 0 C-0.54723683 3.37462715 -1.0549 5.08235 -3 8 C-4.32 8 -5.64 8 -7 8 C-7.33 6.35 -7.66 4.7 -8 3 C-2.25 0 -2.25 0 0 0 Z " fill="#3F55A0" transform="translate(409,350)"/>
<path d="M0 0 C7.90709331 0.645477 15.39133967 2.86997139 23 5 C23 5.33 23 5.66 23 6 C17.30948637 5.4618629 11.65134116 4.8599867 6 4 C6 3.34 6 2.68 6 2 C3.03 1.505 3.03 1.505 0 1 C0 0.67 0 0.34 0 0 Z " fill="#6380B8" transform="translate(403,221)"/>
<path d="M0 0 C0 0.66 0 1.32 0 2 C0.66 2.33 1.32 2.66 2 3 C1.01 3 0.02 3 -1 3 C-1.33 4.65 -1.66 6.3 -2 8 C-6.455 7.01 -6.455 7.01 -11 6 C-7 4 -7 4 -5 4 C-4.67 3.01 -4.34 2.02 -4 1 C-2 0 -2 0 0 0 Z " fill="#3766B4" transform="translate(109,215)"/>
<path d="M0 0 C4.875 3.625 4.875 3.625 6 7 C3.625 8.5625 3.625 8.5625 1 10 C0.34 9.67 -0.32 9.34 -1 9 C-0.67 6.03 -0.34 3.06 0 0 Z " fill="#3B77BC" transform="translate(393,127)"/>
<path d="M0 0 C0 0.99 0 1.98 0 3 C-0.99 3.33 -1.98 3.66 -3 4 C-2.9175 4.86625 -2.835 5.7325 -2.75 6.625 C-3.05628741 10.75988007 -4.52108722 12.74642697 -7 16 C-7.33 14.68 -7.66 13.36 -8 12 C-7.34 12 -6.68 12 -6 12 C-6.020625 10.72125 -6.04125 9.4425 -6.0625 8.125 C-6.125 4.25 -6.125 4.25 -5 2 C-2 0 -2 0 0 0 Z " fill="#49539C" transform="translate(225,409)"/>
<path d="M0 0 C0.99 0.66 1.98 1.32 3 2 C2.67 3.65 2.34 5.3 2 7 C1.195625 7.12375 0.39125 7.2475 -0.4375 7.375 C-1.7059375 7.684375 -1.7059375 7.684375 -3 8 C-3.33 8.66 -3.66 9.32 -4 10 C-5.32 9.67 -6.64 9.34 -8 9 C-6.8553125 7.88625 -6.8553125 7.88625 -5.6875 6.75 C-3.5606298 4.5736677 -1.7440044 2.47832204 0 0 Z " fill="#547CBB" transform="translate(314,276)"/>
<path d="M0 0 C4.35304083 -0.37311779 6.34851063 0.75292962 10 3 C11.32 3 12.64 3 14 3 C14 3.99 14 4.98 14 6 C9.05 5.01 4.1 4.02 -1 3 C-0.67 2.01 -0.34 1.02 0 0 Z " fill="#435FA8" transform="translate(85,274)"/>
<path d="M0 0 C7.29112858 1.90203354 14.2960634 4.54785794 21 8 C21 8.66 21 9.32 21 10 C16.53540225 8.58439584 12.29910673 6.85306325 8 5 C5.34271696 3.97257949 2.67348085 2.98496663 0 2 C0 1.34 0 0.68 0 0 Z " fill="#245CB2" transform="translate(279,148)"/>
<path d="M0 0 C0.20086443 3.71599191 0.1519437 4.77208445 -2 8 C-4.625 8.1875 -4.625 8.1875 -7 8 C-6.8125 5.6875 -6.8125 5.6875 -6 3 C-1.86206897 0 -1.86206897 0 0 0 Z " fill="#3175BE" transform="translate(272,96)"/>
<path d="M0 0 C3.66172475 0.62678171 6.8818995 1.64451846 10.3125 3.0625 C11.19550781 3.42472656 12.07851562 3.78695312 12.98828125 4.16015625 C13.65214844 4.43730469 14.31601563 4.71445313 15 5 C12 7 12 7 9.51953125 6.7578125 C8.62621094 6.54898438 7.73289063 6.34015625 6.8125 6.125 C5.91144531 5.92132813 5.01039063 5.71765625 4.08203125 5.5078125 C3.39496094 5.34023437 2.70789063 5.17265625 2 5 C2 3.68 2 2.36 2 1 C1.34 0.67 0.68 0.34 0 0 Z " fill="#6892C1" transform="translate(128,131)"/>
<path d="M0 0 C0.66 0 1.32 0 2 0 C2.67184618 2.10251861 3.33730968 4.20707763 4 6.3125 C4.37125 7.48425781 4.7425 8.65601563 5.125 9.86328125 C6 13 6 13 6 16 C5.34 15.67 4.68 15.34 4 15 C4 13.35 4 11.7 4 10 C3.01 10 2.02 10 1 10 C0.67 6.7 0.34 3.4 0 0 Z " fill="#5A85BB" transform="translate(385,188)"/>
<path d="M0 0 C0 2.64 0 5.28 0 8 C-2.375 7.75 -2.375 7.75 -5 7 C-6.3125 4.9375 -6.3125 4.9375 -7 3 C-2.25 0 -2.25 0 0 0 Z " fill="#3069B7" transform="translate(112,176)"/>
<path d="M0 0 C0.33 0.99 0.66 1.98 1 3 C-2.63 3 -6.26 3 -10 3 C-10.33 3.66 -10.66 4.32 -11 5 C-11.66 5 -12.32 5 -13 5 C-13.33 4.01 -13.66 3.02 -14 2 C-4.58997722 -1.62870159 -4.58997722 -1.62870159 0 0 Z " fill="#5990C5" transform="translate(212,66)"/>
<path d="M0 0 C2 3 2 3 2 6 C2.66 6 3.32 6 4 6 C3.34 7.32 2.68 8.64 2 10 C1.34 10 0.68 10 0 10 C-1.62514468 11.45833358 -1.62514468 11.45833358 -3 13 C-2.68817931 11.58318366 -2.37551263 10.16655349 -2.0625 8.75 C-1.88847656 7.96109375 -1.71445313 7.1721875 -1.53515625 6.359375 C-1.052444 4.23121297 -0.53836822 2.11467158 0 0 Z " fill="#4674B9" transform="translate(108,202)"/>
<path d="M0 0 C2.64 0.66 5.28 1.32 8 2 C7.01 2.33 6.02 2.66 5 3 C5 3.66 5 4.32 5 5 C1.37673261 6.2077558 0.35853631 5.54311128 -3 4 C-2.01 2.68 -1.02 1.36 0 0 Z " fill="#293E97" transform="translate(114,369)"/>
<path d="M0 0 C6.30214697 0.33169195 10.85216936 3.67323988 16 7 C14 8 14 8 11.72265625 7.2578125 C10.40587891 6.69707031 10.40587891 6.69707031 9.0625 6.125 C6.38124664 4.99563555 3.76180239 3.9206008 1 3 C0.67 2.01 0.34 1.02 0 0 Z " fill="#26409E" transform="translate(287,153)"/>
<path d="M0 0 C0.33 0.66 0.66 1.32 1 2 C1.66 2.33 2.32 2.66 3 3 C2.34 4.32 1.68 5.64 1 7 C0.34 7 -0.32 7 -1 7 C-1.33 7.99 -1.66 8.98 -2 10 C-2.99 9.34 -3.98 8.68 -5 8 C-3.35 5.36 -1.7 2.72 0 0 Z " fill="#4788C7" transform="translate(283,73)"/>
<path d="M0 0 C0.99 0.33 1.98 0.66 3 1 C3.33 1.99 3.66 2.98 4 4 C2.8125 5.5625 2.8125 5.5625 1 7 C-1.6875 6.6875 -1.6875 6.6875 -4 6 C-1.125 1.125 -1.125 1.125 0 0 Z " fill="#343D91" transform="translate(306,424)"/>
<path d="M0 0 C1.98 0 3.96 0 6 0 C6 0.99 6 1.98 6 3 C6.33 3.66 6.66 4.32 7 5 C6.72057545 6.67654729 6.39171753 8.34608154 6 10 C3.25722422 6.80009492 1.3697164 3.99500618 0 0 Z " fill="#6369AD" transform="translate(278,417)"/>
<path d="M0 0 C0.66 0 1.32 0 2 0 C2 4.95 2 9.9 2 15 C1.67 14.01 1.34 13.02 1 12 C0.34 12 -0.32 12 -1 12 C-1.08159574 7.83861737 -0.98248524 4.0527516 0 0 Z " fill="#6269A6" transform="translate(325,399)"/>
<path d="M0 0 C-0.66 1.32 -1.32 2.64 -2 4 C-4.31 3.67 -6.62 3.34 -9 3 C-9 2.01 -9 1.02 -9 0 C-5.67465243 -1.10844919 -3.37817425 -0.84454356 0 0 Z " fill="#2A3B9B" transform="translate(242,393)"/>
<path d="M0 0 C0.66 0 1.32 0 2 0 C2 2.66666667 2 5.33333333 2 8 C1.34 8 0.68 8 0 8 C0 8.66 0 9.32 0 10 C-1.32 10 -2.64 10 -4 10 C-3.71125 9.46375 -3.4225 8.9275 -3.125 8.375 C-1.83288192 5.64719516 -0.91441408 2.87387282 0 0 Z " fill="#1E62AE" transform="translate(108,125)"/>
<path d="M0 0 C0.33 0 0.66 0 1 0 C1.125 2.375 1.125 2.375 1 5 C0.34 5.66 -0.32 6.32 -1 7 C-1.99 7 -2.98 7 -4 7 C-4.33 8.32 -4.66 9.64 -5 11 C-6.65 10.67 -8.3 10.34 -10 10 C-7.74259377 7.66475218 -5.7194239 5.81294927 -3 4 C-2.01 4 -1.02 4 0 4 C0 2.68 0 1.36 0 0 Z " fill="#4C81C0" transform="translate(176,117)"/>
<path d="M0 0 C-5.36000789 2.25684543 -9.1977825 3.36263859 -15 3 C-14 1 -14 1 -11.85546875 0.078125 C-10.97503906 -0.19515625 -10.09460938 -0.4684375 -9.1875 -0.75 C-8.31480469 -1.03359375 -7.44210938 -1.3171875 -6.54296875 -1.609375 C-3.59945308 -2.06152794 -2.46323577 -1.58473909 0 0 Z " fill="#578EC3" transform="translate(197,71)"/>
<path d="M0 0 C-1.91040052 0.8680908 -3.82860737 1.71901783 -5.75 2.5625 C-6.81734375 3.03816406 -7.8846875 3.51382812 -8.984375 4.00390625 C-11.98369837 4.9946154 -13.13421241 5.16161779 -16 4 C-15.34 4 -14.68 4 -14 4 C-14 3.34 -14 2.68 -14 2 C-13.46375 1.87625 -12.9275 1.7525 -12.375 1.625 C-9.86683092 1.00781887 -9.86683092 1.00781887 -7 -0.125 C-3.9141249 -1.0250469 -2.94511774 -0.90130758 0 0 Z " fill="#2262B8" transform="translate(286,347)"/>
<path d="M0 0 C1.98 0.66 3.96 1.32 6 2 C6.33 1.34 6.66 0.68 7 0 C7.99 0.99 8.98 1.98 10 3 C6.375 6 6.375 6 3 6 C1 3 1 3 0 0 Z " fill="#2E72C0" transform="translate(321,122)"/>
<path d="M0 0 C0.99 0.33 1.98 0.66 3 1 C0.84871634 4.22692549 0.63210677 4.41328964 -2.875 5.1875 C-3.55304688 5.34605469 -4.23109375 5.50460937 -4.9296875 5.66796875 C-7 6 -7 6 -11 6 C-11 5.34 -11 4.68 -11 4 C-10.37351562 3.87882812 -9.74703125 3.75765625 -9.1015625 3.6328125 C-8.28429687 3.46523438 -7.46703125 3.29765625 -6.625 3.125 C-5.81289063 2.96257812 -5.00078125 2.80015625 -4.1640625 2.6328125 C-1.81326077 2.13341068 -1.81326077 2.13341068 0 0 Z " fill="#6269A2" transform="translate(300,429)"/>
<path d="M0 0 C-1.875 1.0625 -1.875 1.0625 -4 2 C-4.66 1.67 -5.32 1.34 -6 1 C-6 1.66 -6 2.32 -6 3 C-7.11375 2.95875 -8.2275 2.9175 -9.375 2.875 C-13.04366025 2.58878141 -13.04366025 2.58878141 -15 5 C-15 3.68 -15 2.36 -15 1 C-9.94997778 -0.03590199 -5.12583611 -0.10251672 0 0 Z " fill="#496FAD" transform="translate(77,228)"/>
<path d="M0 0 C1.50433594 0.01353516 1.50433594 0.01353516 3.0390625 0.02734375 C3.80992187 0.03894531 4.58078125 0.05054688 5.375 0.0625 C5.375 0.7225 5.375 1.3825 5.375 2.0625 C1.53775828 2.96663673 -2.00002274 3.16826898 -5.9375 3.125 C-7.00613281 3.11597656 -8.07476562 3.10695312 -9.17578125 3.09765625 C-9.98402344 3.08605469 -10.79226562 3.07445312 -11.625 3.0625 C-7.35126002 0.92563001 -4.85576378 -0.05646237 0 0 Z " fill="#384B9E" transform="translate(236.625,208.9375)"/>
<path d="M0 0 C1.98 0.495 1.98 0.495 4 1 C4 3.64 4 6.28 4 9 C3.34 9 2.68 9 2 9 C1.67 9.66 1.34 10.32 1 11 C0 3.375 0 3.375 0 0 Z " fill="#1E59B0" transform="translate(385,197)"/>
<path d="M0 0 C2.64 0 5.28 0 8 0 C8.33 1.32 8.66 2.64 9 4 C6.69 4 4.38 4 2 4 C1.34 2.68 0.68 1.36 0 0 Z " fill="#293E99" transform="translate(382,370)"/>
<path d="M0 0 C0.99 0 1.98 0 3 0 C1.49776416 4.20626034 -1.28550034 5.73900021 -5 8 C-5.66 7.67 -6.32 7.34 -7 7 C-6 4 -6 4 -4 2 C-2.68 2 -1.36 2 0 2 C0 1.34 0 0.68 0 0 Z " fill="#5B69A9" transform="translate(338,367)"/>
<path d="M0 0 C0.66 0 1.32 0 2 0 C2.33 3.3 2.66 6.6 3 10 C0.49642139 9.1654738 -1.66785852 8.20628008 -4 7 C-4 6.34 -4 5.68 -4 5 C-2.35 5 -0.7 5 1 5 C0.67 3.35 0.34 1.7 0 0 Z " fill="#4366B7" transform="translate(435,261)"/>
<path d="M0 0 C3.44165321 0.35299007 5.06872538 1.04581692 8 3 C7.01 3.33 6.02 3.66 5 4 C4.67 4.66 4.34 5.32 4 6 C3.01 6 2.02 6 1 6 C0.67 5.34 0.34 4.68 0 4 C-0.99 4.495 -0.99 4.495 -2 5 C-2 2 -2 2 0 0 Z " fill="#3E79BD" transform="translate(143,137)"/>
<path d="M0 0 C-0.625 1.9375 -0.625 1.9375 -2 4 C-5.125 4.75 -5.125 4.75 -8 5 C-8 3.68 -8 2.36 -8 1 C-2.25 -1.125 -2.25 -1.125 0 0 Z " fill="#1A64B6" transform="translate(377,131)"/>
<path d="M0 0 C3.24208567 0.35049575 4.61527704 0.56221181 6.8125 3.0625 C7.204375 3.701875 7.59625 4.34125 8 5 C4.59068103 6.13643966 3.99664544 5.86747764 0.8125 4.5625 C0.09707031 4.27503906 -0.61835938 3.98757813 -1.35546875 3.69140625 C-1.89816406 3.46324219 -2.44085938 3.23507812 -3 3 C-2.01 2.67 -1.02 2.34 0 2 C0 1.34 0 0.68 0 0 Z " fill="#5565AA" transform="translate(357,360)"/>
<path d="M0 0 C0.33 0 0.66 0 1 0 C1 2.31 1 4.62 1 7 C1.66 7 2.32 7 3 7 C3 8.32 3 9.64 3 11 C3.66 11 4.32 11 5 11 C5.66 12.32 6.32 13.64 7 15 C5.35 15.33 3.7 15.66 2 16 C2 13.36 2 10.72 2 8 C1.34 8 0.68 8 0 8 C0 5.36 0 2.72 0 0 Z " fill="#6889BF" transform="translate(184,267)"/>
<path d="M0 0 C4.39158329 1.4638611 4.87947433 3.97831338 7 8 C5.68 8.33 4.36 8.66 3 9 C1.35173889 6.03312999 0.55728913 3.34373475 0 0 Z " fill="#497FB8" transform="translate(400,137)"/>
<path d="M0 0 C2.97 0.495 2.97 0.495 6 1 C6 2.32 6 3.64 6 5 C3.69 5 1.38 5 -1 5 C-0.67 3.35 -0.34 1.7 0 0 Z " fill="#2B3A98" transform="translate(256,392)"/>
<path d="M0 0 C2.31 0.33 4.62 0.66 7 1 C3.75518249 3.16321167 0.64944241 4.6314591 -3 6 C-3.99 5.67 -4.98 5.34 -6 5 C-5.34 5 -4.68 5 -4 5 C-4 4.34 -4 3.68 -4 3 C-3.01 3 -2.02 3 -1 3 C-0.67 2.01 -0.34 1.02 0 0 Z " fill="#707EB5" transform="translate(123,369)"/>
<path d="M0 0 C0.33 0.66 0.66 1.32 1 2 C1.99 2 2.98 2 4 2 C3.814375 2.598125 3.62875 3.19625 3.4375 3.8125 C2.77906313 6.16408762 2.77906313 6.16408762 4 9 C3.34 9.66 2.68 10.32 2 11 C-0.32590854 7.36576791 -0.16265833 4.22911669 0 0 Z " fill="#2C4E9F" transform="translate(107,286)"/>
<path d="M0 0 C0 0.66 0 1.32 0 2 C-2.97 2.66 -5.94 3.32 -9 4 C-9.33 2.68 -9.66 1.36 -10 0 C-6.42355152 -1.2380014 -3.66305234 -0.74926071 0 0 Z " fill="#1D61B7" transform="translate(157,140)"/>
<path d="M0 0 C2 1.375 2 1.375 4 3 C4 3.66 4 4.32 4 5 C4.99 4.67 5.98 4.34 7 4 C7 5.32 7 6.64 7 8 C3.06326356 6.68775452 0.77280706 5.08089673 -2 2 C-1.34 1.34 -0.68 0.68 0 0 Z " fill="#656FAD" transform="translate(168,371)"/>
<path d="M0 0 C1.65 0.33 3.3 0.66 5 1 C4.67 2.65 4.34 4.3 4 6 C2.35 6 0.7 6 -1 6 C-0.67 4.02 -0.34 2.04 0 0 Z " fill="#3A4EA0" transform="translate(365,361)"/>
<path d="M0 0 C0.99 0.33 1.98 0.66 3 1 C2.01 1.33 1.02 1.66 0 2 C0 1.34 0 0.68 0 0 Z M-4 1 C-3.67 1.66 -3.34 2.32 -3 3 C-2.01 2.67 -1.02 2.34 0 2 C-0.33 2.99 -0.66 3.98 -1 5 C-4.5625 6.1875 -4.5625 6.1875 -8 7 C-8 6.34 -8 5.68 -8 5 C-7.34 5 -6.68 5 -6 5 C-5.34 3.68 -4.68 2.36 -4 1 Z " fill="#3E5BA5" transform="translate(116,312)"/>
<path d="M0 0 C0.99 0.33 1.98 0.66 3 1 C3 2.32 3 3.64 3 5 C2.34 5 1.68 5 1 5 C0.67 5.99 0.34 6.98 0 8 C-0.66 8 -1.32 8 -2 8 C-1.125 2.25 -1.125 2.25 0 0 Z " fill="#2C45A3" transform="translate(115,307)"/>
<path d="M0 0 C0.66 0 1.32 0 2 0 C2 0.66 2 1.32 2 2 C3.98 2 5.96 2 8 2 C7.67 3.32 7.34 4.64 7 6 C6.01 6 5.02 6 4 6 C0 1.54285714 0 1.54285714 0 0 Z " fill="#5181C1" transform="translate(99,172)"/>
<path d="M0 0 C1.134375 0.020625 2.26875 0.04125 3.4375 0.0625 C3.7675 0.7225 4.0975 1.3825 4.4375 2.0625 C2.1275 2.7225 -0.1825 3.3825 -2.5625 4.0625 C-3.2225 3.0725 -3.8825 2.0825 -4.5625 1.0625 C-3.5625 0.0625 -3.5625 0.0625 0 0 Z " fill="#636BAA" transform="translate(112.5625,373.9375)"/>
<path d="M0 0 C1.65 0 3.3 0 5 0 C5.33 2.64 5.66 5.28 6 8 C1.125 3.375 1.125 3.375 0 0 Z " fill="#5A6AA9" transform="translate(99,363)"/>
<path d="M0 0 C2.33524782 2.25740623 4.18705073 4.2805761 6 7 C6 7.99 6 8.98 6 10 C6.66 10 7.32 10 8 10 C7.67 10.66 7.34 11.32 7 12 C6.34 12 5.68 12 5 12 C4.16180842 10.37750059 3.3295884 8.75191503 2.5 7.125 C2.0359375 6.22007813 1.571875 5.31515625 1.09375 4.3828125 C0 2 0 2 0 0 Z " fill="#73A3CC" transform="translate(222,83)"/>
<path d="M0 0 C1.98 0 3.96 0 6 0 C6 1.32 6 2.64 6 4 C3.69 4 1.38 4 -1 4 C-0.67 2.68 -0.34 1.36 0 0 Z " fill="#323A8D" transform="translate(321,419)"/>
<path d="M0 0 C1.5625 1.1875 1.5625 1.1875 3 3 C2.6875 5.6875 2.6875 5.6875 2 8 C0.35 8 -1.3 8 -3 8 C-2.2265625 7.1028125 -2.2265625 7.1028125 -1.4375 6.1875 C-0.963125 5.465625 -0.48875 4.74375 0 4 C-0.33 3.01 -0.66 2.02 -1 1 C-0.67 0.67 -0.34 0.34 0 0 Z " fill="#314396" transform="translate(329,368)"/>
<path d="M0 0 C2.64752004 2.57784846 4.94432065 4.91648098 7 8 C4.625 7.6875 4.625 7.6875 2 7 C0 4 0 4 0 0 Z " fill="#5F6EAE" transform="translate(404,332)"/>
<path d="M0 0 C0.66 0.99 1.32 1.98 2 3 C0 6 0 6 -3 7 C-3.33 7.66 -3.66 8.32 -4 9 C-4.66 9 -5.32 9 -6 9 C-4.47291037 5.56404834 -2.40072955 2.88087546 0 0 Z " fill="#5E71AE" transform="translate(96,333)"/>
<path d="M0 0 C0.99 0.33 1.98 0.66 3 1 C3 1.99 3 2.98 3 4 C4.32 3.67 5.64 3.34 7 3 C7 3.66 7 4.32 7 5 C6.34 5 5.68 5 5 5 C4.67 6.65 4.34 8.3 4 10 C2.26337666 6.77484237 1.1094072 3.48670834 0 0 Z " fill="#6581B9" transform="translate(110,302)"/>
<path d="M0 0 C0.66 0.33 1.32 0.66 2 1 C0.92598892 3.91517292 0.22189824 5.77810176 -2 8 C-2.99 7.67 -3.98 7.34 -5 7 C-3.35 4.69 -1.7 2.38 0 0 Z " fill="#608CBF" transform="translate(106,126)"/>
<path d="M0 0 C0.66 1.32 1.32 2.64 2 4 C1.67 4.99 1.34 5.98 1 7 C-0.98 7.33 -2.96 7.66 -5 8 C-3.35 5.36 -1.7 2.72 0 0 Z " fill="#5E93C8" transform="translate(273,89)"/>
<path d="M0 0 C1.32 0.33 2.64 0.66 4 1 C3.67 2.65 3.34 4.3 3 6 C1.35 5.01 -0.3 4.02 -2 3 C-1.34 2.67 -0.68 2.34 0 2 C0 1.34 0 0.68 0 0 Z " fill="#5060A9" transform="translate(156,362)"/>
<path d="M0 0 C2.64752004 2.57784846 4.94432065 4.91648098 7 8 C4.69 7.67 2.38 7.34 0 7 C0 4.69 0 2.38 0 0 Z " fill="#6077B0" transform="translate(392,317)"/>
<path d="M0 0 C0.99 0.99 1.98 1.98 3 3 C2.77438093 6.60990505 1.69790975 7.30209025 -1 10 C-0.67 6.7 -0.34 3.4 0 0 Z " fill="#6696C5" transform="translate(410,150)"/>
<path d="M0 0 C-1.76956458 2.14210449 -2.87575652 2.96060573 -5.5625 3.8125 C-6.7690625 3.9053125 -6.7690625 3.9053125 -8 4 C-8.66 3.34 -9.32 2.68 -10 2 C-3.375 -1.125 -3.375 -1.125 0 0 Z " fill="#6998C5" transform="translate(378,128)"/>
<path d="M0 0 C2.3828125 0.0234375 2.3828125 0.0234375 5.125 0.375 C6.03507812 0.48585938 6.94515625 0.59671875 7.8828125 0.7109375 C8.93082031 0.85402344 8.93082031 0.85402344 10 1 C10 1.66 10 2.32 10 3 C5.47907032 4.45606519 2.48351204 3.27032841 -2 2 C-1.34 1.34 -0.68 0.68 0 0 Z " fill="#3779BF" transform="translate(380,125)"/>
<path d="M0 0 C0.66 0.33 1.32 0.66 2 1 C1.67 1.99 1.34 2.98 1 4 C-1.06640625 4.73046875 -1.06640625 4.73046875 -3.5625 5.1875 C-4.38878906 5.34605469 -5.21507812 5.50460937 -6.06640625 5.66796875 C-7.02353516 5.83232422 -7.02353516 5.83232422 -8 6 C-6.25 3.9375 -6.25 3.9375 -4 2 C-1.75 2.25 -1.75 2.25 0 3 C0 2.01 0 1.02 0 0 Z " fill="#777EB3" transform="translate(316,424)"/>
<path d="M0 0 C0.66 0.33 1.32 0.66 2 1 C2.40729228 3.32156597 2.74438677 5.6568787 3 8 C1.0625 7.6875 1.0625 7.6875 -1 7 C-1.33 6.01 -1.66 5.02 -2 4 C-1.34 4 -0.68 4 0 4 C0 2.68 0 1.36 0 0 Z " fill="#46519B" transform="translate(286,423)"/>
<path d="M0 0 C0.33 0.99 0.66 1.98 1 3 C0.34 3 -0.32 3 -1 3 C-1 3.66 -1 4.32 -1 5 C-1.66 5 -2.32 5 -3 5 C-3.33 5.99 -3.66 6.98 -4 8 C-4.66 6.68 -5.32 5.36 -6 4 C-3.94766315 1.7522025 -2.99332739 0.9977758 0 0 Z " fill="#2C3F96" transform="translate(398,362)"/>
<path d="M0 0 C2.31 0 4.62 0 7 0 C7 0.66 7 1.32 7 2 C3.7 2.66 0.4 3.32 -3 4 C-2.34 3.67 -1.68 3.34 -1 3 C-0.67 2.01 -0.34 1.02 0 0 Z " fill="#6782B7" transform="translate(423,271)"/>
<path d="M0 0 C0.33 0 0.66 0 1 0 C1 2.31 1 4.62 1 7 C-1.64 7 -4.28 7 -7 7 C-6.34 6.34 -5.68 5.68 -5 5 C-3.68 5 -2.36 5 -1 5 C-0.67 3.35 -0.34 1.7 0 0 Z " fill="#2B4996" transform="translate(210,234)"/>
<path d="M0 0 C2.475 0.495 2.475 0.495 5 1 C5.33 3.97 5.66 6.94 6 10 C5.34 9.67 4.68 9.34 4 9 C3.4375 7.125 3.4375 7.125 3 5 C2.67 4.01 2.34 3.02 2 2 C1.34 2 0.68 2 0 2 C0 1.34 0 0.68 0 0 Z " fill="#6C91C3" transform="translate(108,183)"/>
<path d="M0 0 C0.66 0.33 1.32 0.66 2 1 C0.8141763 4.37503669 -0.27573689 6.64722731 -3 9 C-2.67 6.69 -2.34 4.38 -2 2 C-1.34 2 -0.68 2 0 2 C0 1.34 0 0.68 0 0 Z " fill="#6065A7" transform="translate(215,424)"/>
<path d="M0 0 C1.65 0.33 3.3 0.66 5 1 C5 1.66 5 2.32 5 3 C0.545 4.485 0.545 4.485 -4 6 C-3.34 5.01 -2.68 4.02 -2 3 C-1.34 3 -0.68 3 0 3 C0 2.01 0 1.02 0 0 Z " fill="#6473B1" transform="translate(139,362)"/>
<path d="M0 0 C0 1.65 0 3.3 0 5 C-1.32 5 -2.64 5 -4 5 C-4.33 3.68 -4.66 2.36 -5 1 C-2 0 -2 0 0 0 Z " fill="#27409B" transform="translate(139,360)"/>
<path d="M0 0 C0.33 0.66 0.66 1.32 1 2 C2.32 1.67 3.64 1.34 5 1 C4 4 4 4 2.0625 5.0625 C1.381875 5.371875 0.70125 5.68125 0 6 C-0.66 6.66 -1.32 7.32 -2 8 C-1.33333333 5.33333333 -0.66666667 2.66666667 0 0 Z " fill="#2759A2" transform="translate(107,210)"/>
<path d="M0 0 C0.66 0 1.32 0 2 0 C2.625 2.875 2.625 2.875 3 6 C2.34 6.66 1.68 7.32 1 8 C0.01 7.01 -0.98 6.02 -2 5 C-1.67 4.34 -1.34 3.68 -1 3 C-0.67 2.01 -0.34 1.02 0 0 Z " fill="#447CBD" transform="translate(90,155)"/>
<path d="M0 0 C0 0.99 0 1.98 0 3 C-3.3 3.66 -6.6 4.32 -10 5 C-9 3 -9 3 -6.93359375 2.1484375 C-5.69802734 1.76558594 -5.69802734 1.76558594 -4.4375 1.375 C-3.61121094 1.11460937 -2.78492188 0.85421875 -1.93359375 0.5859375 C-1.29550781 0.39257812 -0.65742188 0.19921875 0 0 Z " fill="#2659B0" transform="translate(224,147)"/>
<path d="M0 0 C3.69806223 0.50428121 7.34514648 1.24753016 11 2 C11 2.33 11 2.66 11 3 C9.5629191 3.05422947 8.12524538 3.09289723 6.6875 3.125 C5.88699219 3.14820312 5.08648437 3.17140625 4.26171875 3.1953125 C2 3 2 3 -1 1 C-0.67 0.67 -0.34 0.34 0 0 Z " fill="#5E8FC1" transform="translate(289,65)"/>
<path d="M0 0 C0.66 0.33 1.32 0.66 2 1 C2 2.65 2 4.3 2 6 C0.68 5.67 -0.64 5.34 -2 5 C-2.33 3.68 -2.66 2.36 -3 1 C-2.01 0.67 -1.02 0.34 0 0 Z " fill="#3D4796" transform="translate(270,398)"/>
<path d="M0 0 C0.99 0.33 1.98 0.66 3 1 C2.01 1.495 2.01 1.495 1 2 C0.67 2.99 0.34 3.98 0 5 C-2.31 4.34 -4.62 3.68 -7 3 C-7 2.67 -7 2.34 -7 2 C-4.69 2 -2.38 2 0 2 C0 1.34 0 0.68 0 0 Z " fill="#6F80B3" transform="translate(391,372)"/>
<path d="M0 0 C-1.65 1.32 -3.3 2.64 -5 4 C-5.66 3.67 -6.32 3.34 -7 3 C-7 2.01 -7 1.02 -7 0 C-2.25 -1.125 -2.25 -1.125 0 0 Z " fill="#4B5EA7" transform="translate(137,366)"/>
<path d="M0 0 C1.31223496 3.93670488 0.24296256 6.12488144 -1 10 C-1.33 10 -1.66 10 -2 10 C-2 7.03 -2 4.06 -2 1 C-1.34 0.67 -0.68 0.34 0 0 Z " fill="#5573B4" transform="translate(394,284)"/>
<path d="M0 0 C-0.33 0.66 -0.66 1.32 -1 2 C-3.64860427 2.59355614 -6.29197322 2.74209269 -9 3 C-9 2.34 -9 1.68 -9 1 C-3.375 -1.125 -3.375 -1.125 0 0 Z " fill="#5878B9" transform="translate(307,287)"/>
<path d="M0 0 C2.97 1.65 5.94 3.3 9 5 C8.01 5.66 7.02 6.32 6 7 C3.5625 5.75 3.5625 5.75 1 4 C0.67 2.68 0.34 1.36 0 0 Z " fill="#688ABD" transform="translate(191,282)"/>
<path d="M0 0 C2.97 0.33 5.94 0.66 9 1 C9 1.33 9 1.66 9 2 C5.37 2.33 1.74 2.66 -2 3 C-1.34 2.67 -0.68 2.34 0 2 C0 1.34 0 0.68 0 0 Z " fill="#7A89BC" transform="translate(270,221)"/>
<path d="M0 0 C0.66 0 1.32 0 2 0 C1.40072174 3.35595828 0.15377564 5.37801226 -2 8 C-2.6875 6.25 -2.6875 6.25 -3 4 C-1.6875 1.75 -1.6875 1.75 0 0 Z " fill="#6692BD" transform="translate(89,150)"/>
<path d="M0 0 C0.99 0.33 1.98 0.66 3 1 C4.1875 4.0625 4.1875 4.0625 5 7 C3.02 6.34 1.04 5.68 -1 5 C-0.67 3.35 -0.34 1.7 0 0 Z " fill="#1D6AB8" transform="translate(219,82)"/>
<path d="M0 0 C7.625 1.75 7.625 1.75 11 4 C6.78121808 4.19622241 3.82989106 3.80230168 0 2 C0 1.34 0 0.68 0 0 Z " fill="#78A8CE" transform="translate(305,69)"/>
<path d="M0 0 C2.475 0.495 2.475 0.495 5 1 C5.33 3.31 5.66 5.62 6 8 C3.33264727 5.51047079 1.44253657 3.36591866 0 0 Z " fill="#7E84B5" transform="translate(272,409)"/>
<path d="M0 0 C1.32 0 2.64 0 4 0 C4 0.66 4 1.32 4 2 C2.03852126 3.38938077 0.03833424 4.7260411 -2 6 C-2 4.68 -2 3.36 -2 2 C-1.34 2 -0.68 2 0 2 C0 1.34 0 0.68 0 0 Z " fill="#5E6CA9" transform="translate(345,361)"/>
<path d="M0 0 C1.22589844 0.01353516 1.22589844 0.01353516 2.4765625 0.02734375 C3.41628906 0.04474609 3.41628906 0.04474609 4.375 0.0625 C1.04188525 1.8449918 -1.86980943 2.55042856 -5.625 3.0625 C-5.955 2.4025 -6.285 1.7425 -6.625 1.0625 C-4.21954362 -0.14022819 -2.67503047 -0.03821472 0 0 Z " fill="#556EAE" transform="translate(401.625,277.9375)"/>
<path d="M0 0 C0.93423645 3.01031744 1.04449911 3.86650268 0 7 C-0.66 7 -1.32 7 -2 7 C-2 6.01 -2 5.02 -2 4 C-2.66 3.67 -3.32 3.34 -4 3 C-2.68 2.01 -1.36 1.02 0 0 Z " fill="#27419D" transform="translate(255,209)"/>
<path d="M0 0 C0.66 0 1.32 0 2 0 C1.835 0.928125 1.67 1.85625 1.5 2.8125 C0.92251612 5.95621353 0.92251612 5.95621353 1 9 C0.01 8.34 -0.98 7.68 -2 7 C-1.34 4.69 -0.68 2.38 0 0 Z " fill="#1D69B7" transform="translate(278,82)"/>
<path d="M0 0 C2.52259061 1.97420135 2.9929808 2.96745642 3.6875 6.1875 C3.790625 7.115625 3.89375 8.04375 4 9 C0 4.5 0 4.5 0 0 Z " fill="#6978B1" transform="translate(91,349)"/>
<path d="M0 0 C0.66666667 2 1.33333333 4 2 6 C1.34 6.66 0.68 7.32 0 8 C-2 5 -2 5 -1.6875 2.875 C-1 1 -1 1 0 0 Z " fill="#7083B6" transform="translate(89,342)"/>
<path d="M0 0 C3.3 0 6.6 0 10 0 C10 0.99 10 1.98 10 3 C6.7 2.34 3.4 1.68 0 1 C0 0.67 0 0.34 0 0 Z " fill="#5B74B6" transform="translate(89,277)"/>
<path d="M0 0 C0.33 1.32 0.66 2.64 1 4 C2.98 3.67 4.96 3.34 7 3 C7 3.99 7 4.98 7 6 C4.69 5.67 2.38 5.34 0 5 C0 3.35 0 1.7 0 0 Z " fill="#627FB7" transform="translate(62,266)"/>
<path d="M0 0 C0.66 1.32 1.32 2.64 2 4 C1.01 4.99 0.02 5.98 -1 7 C-1.33 5.02 -1.66 3.04 -2 1 C-1.34 0.67 -0.68 0.34 0 0 Z " fill="#3268B2" transform="translate(389,179)"/>
<path d="M0 0 C2.475 0.495 2.475 0.495 5 1 C5 1.99 5 2.98 5 4 C5.99 4.33 6.98 4.66 8 5 C6.02 5 4.04 5 2 5 C2 3.68 2 2.36 2 1 C1.34 0.67 0.68 0.34 0 0 Z " fill="#4C80BF" transform="translate(128,131)"/>
<path d="M0 0 C0.8971875 0.5259375 0.8971875 0.5259375 1.8125 1.0625 C1.8125 1.3925 1.8125 1.7225 1.8125 2.0625 C-1.1575 2.0625 -4.1275 2.0625 -7.1875 2.0625 C-4.72093412 -0.40406588 -3.34389711 -1.43309876 0 0 Z " fill="#7898C5" transform="translate(390.1875,122.9375)"/>
<path d="M0 0 C0.99 0.33 1.98 0.66 3 1 C3 2.65 3 4.3 3 6 C2.34 6 1.68 6 1 6 C0.34 4.35 -0.32 2.7 -1 1 C-0.67 0.67 -0.34 0.34 0 0 Z " fill="#186ABE" transform="translate(321,95)"/>
</svg>
