<?xml version="1.0" encoding="UTF-8"?>
<svg version="1.1" xmlns="http://www.w3.org/2000/svg" width="500" height="500">
<path d="M0 0 C17.97206195 0.04852942 35.16545751 3.03674982 51.41162109 11.00341797 C52.04632324 11.30731445 52.68102539 11.61121094 53.33496094 11.92431641 C63.46573575 16.81797569 72.36260545 22.46258523 80.93359375 29.75146484 C82.23410635 30.8530553 83.56121021 31.92308927 84.89208984 32.98779297 C106.73593731 51.08145777 121.89648912 81.6079554 124.67822266 109.6953125 C124.86466518 112.50640711 124.99724996 115.31300532 125.09912109 118.12841797 C125.15555786 119.63674194 125.15555786 119.63674194 125.21313477 121.17553711 C125.6639662 135.40114262 124.39607674 148.35058788 120.41162109 162.00341797 C120.12416016 163.02951172 119.83669922 164.05560547 119.54052734 165.11279297 C113.52911671 184.88365461 101.79436231 201.44606838 87.41162109 216.00341797 C86.51056641 216.92896484 85.60951172 217.85451172 84.68115234 218.80810547 C61.23034691 241.64433807 30.62667215 251.38321707 -1.46337891 251.56591797 C-2.63231186 251.57933228 -2.63231186 251.57933228 -3.82485962 251.59301758 C-15.05162702 251.67935572 -24.79665602 250.10547647 -35.58837891 247.00341797 C-37.41944865 246.57691378 -39.2523168 246.15789069 -41.08837891 245.75341797 C-59.39102085 240.68160153 -76.46579127 228.31993547 -89.58837891 215.00341797 C-90.41402344 214.22998047 -90.41402344 214.22998047 -91.25634766 213.44091797 C-100.53294818 204.66511079 -107.05693961 194.66813888 -112.96337891 183.44091797 C-113.71300903 182.02359375 -113.71300903 182.02359375 -114.4777832 180.57763672 C-129.47040147 151.2654865 -130.01922941 116.13413365 -120.58837891 85.00341797 C-109.88932922 53.04208196 -85.57325649 27.70246461 -56.00024414 12.47412109 C-38.1050152 3.65203172 -19.79755141 0.02614278 0 0 Z M-68.58837891 47.00341797 C-69.61962891 47.80779297 -70.65087891 48.61216797 -71.71337891 49.44091797 C-78.43812697 55.43471515 -83.65444647 62.50340014 -88.58837891 70.00341797 C-89.16587891 70.85033203 -89.74337891 71.69724609 -90.33837891 72.56982422 C-104.45384943 94.71977016 -108.05245732 122.9750691 -102.49072266 148.37451172 C-102.19294922 149.57205078 -101.89517578 150.76958984 -101.58837891 152.00341797 C-101.32154297 153.10814453 -101.05470703 154.21287109 -100.77978516 155.35107422 C-93.9171678 180.45300349 -76.2108706 201.26355616 -54.58837891 215.00341797 C-53.73501953 215.56802734 -52.88166016 216.13263672 -52.00244141 216.71435547 C-41.73535183 223.26004041 -30.46862188 226.69293708 -18.58837891 229.00341797 C-17.70923828 229.18904297 -16.83009766 229.37466797 -15.92431641 229.56591797 C-2.01719075 231.3898033 12.92771122 230.90237986 26.41162109 227.00341797 C27.41733154 226.71337891 27.41733154 226.71337891 28.44335938 226.41748047 C42.48796145 222.24179699 55.14413486 215.43131461 66.41162109 206.00341797 C66.41162109 205.34341797 66.41162109 204.68341797 66.41162109 204.00341797 C66.96849609 203.77654297 67.52537109 203.54966797 68.09912109 203.31591797 C71.07321697 201.62791761 73.13170974 199.5366528 75.41162109 197.00341797 C75.41162109 196.34341797 75.41162109 195.68341797 75.41162109 195.00341797 C76.07162109 195.00341797 76.73162109 195.00341797 77.41162109 195.00341797 C77.41162109 194.34341797 77.41162109 193.68341797 77.41162109 193.00341797 C78.07162109 193.00341797 78.73162109 193.00341797 79.41162109 193.00341797 C87.88089072 183.0691936 94.55061668 170.41513461 98.41162109 158.00341797 C98.68619141 157.18486328 98.96076172 156.36630859 99.24365234 155.52294922 C107.24871114 130.71909709 104.23458497 103.1866332 93.09912109 79.75341797 C89.97529866 73.90244897 86.21459506 68.42941848 82.41162109 63.00341797 C81.87794922 62.22740234 81.34427734 61.45138672 80.79443359 60.65185547 C80.10994141 59.83587891 80.10994141 59.83587891 79.41162109 59.00341797 C78.75162109 59.00341797 78.09162109 59.00341797 77.41162109 59.00341797 C77.16283203 58.43107422 76.91404297 57.85873047 76.65771484 57.26904297 C68.00010597 41.52793593 45.81427684 30.84237932 29.41162109 26.00341797 C24.76881615 24.85468272 20.11574966 23.86506528 15.41162109 23.00341797 C14.48091797 22.81779297 13.55021484 22.63216797 12.59130859 22.44091797 C-17.00035894 18.36933718 -45.95610688 28.10331765 -68.58837891 47.00341797 Z " fill="#147D40" transform="translate(250.58837890625,123.99658203125)"/>
<path d="M0 0 C4.40662979 5.15904709 4.56231652 9.29083927 4.4699707 15.92089844 C4.4732563 17.39505974 4.4732563 17.39505974 4.47660828 18.89900208 C4.4789134 22.13613928 4.45270109 25.37235961 4.42578125 28.609375 C4.42085676 30.86045035 4.41755826 33.1115298 4.41581726 35.36260986 C4.40818445 40.07341649 4.38764106 44.78391851 4.35668945 49.49462891 C4.31702423 55.54321876 4.29906538 61.59161089 4.28938007 67.64031601 C4.27942558 73.40086262 4.25952818 79.16136061 4.23828125 84.921875 C4.23318763 86.57778278 4.23318763 86.57778278 4.2279911 88.26714325 C4.2164574 91.37704819 4.19794497 94.48682562 4.17700195 97.59667969 C4.17431305 98.52448746 4.17162415 99.45229523 4.16885376 100.40821838 C4.16169846 101.25212631 4.15454315 102.09603424 4.14717102 102.96551514 C4.14289754 103.70068737 4.13862406 104.4358596 4.13422108 105.19330978 C4 107 4 107 3 109 C3.67546875 108.44570313 4.3509375 107.89140625 5.046875 107.3203125 C6.38492188 106.23363281 6.38492188 106.23363281 7.75 105.125 C8.63171875 104.40570313 9.5134375 103.68640625 10.421875 102.9453125 C12.58176924 101.31557412 14.539766 100.09215995 17 99 C17 98.34 17 97.68 17 97 C17.66 97 18.32 97 19 97 C19 96.34 19 95.68 19 95 C20.2578125 93.73046875 20.2578125 93.73046875 22.125 92.1875 C24.98696079 89.79321308 27.70271133 87.32780644 30.33203125 84.68359375 C30.9254834 84.09876221 31.51893555 83.51393066 32.13037109 82.91137695 C33.31385295 81.74148547 34.48290549 80.55677124 35.63525391 79.35620117 C39.547933 75.54383281 42.4911919 74.27134141 47.94995117 73.8996582 C51.31180471 74.06420766 53.31235368 75.01626105 56 77 C58.29968249 80.26406548 58.99816512 82.24036084 59.0078125 86.234375 C57.61712697 91.43057986 54.80005075 93.90318095 50.9375 97.5 C50.25083252 98.1614502 49.56416504 98.82290039 48.85668945 99.50439453 C44.35789135 103.81176576 39.75164017 107.97402873 35 112 C33.43239058 113.39009268 31.87032594 114.78645207 30.3125 116.1875 C29.48363281 116.93257813 28.65476562 117.67765625 27.80078125 118.4453125 C25.69880552 120.3625958 23.61542213 122.29345417 21.54296875 124.2421875 C20.95539795 124.79237549 20.36782715 125.34256348 19.76245117 125.90942383 C18.60105037 126.99874989 17.44355008 128.09225176 16.2902832 129.19018555 C12.22272232 133 12.22272232 133 10 133 C10 133.66 10 134.32 10 135 C4.8680835 140.33937695 -0.1277052 144.06020956 -7.671875 144.25 C-12.50557194 143.7309453 -15.97331108 141.68445928 -20 139 C-20 138.34 -20 137.68 -20 137 C-20.66 137 -21.32 137 -22 137 C-22 136.34 -22 135.68 -22 135 C-22.804375 134.6596875 -22.804375 134.6596875 -23.625 134.3125 C-26.82460161 132.54429911 -29.29037223 130.46329797 -32 128 C-32 127.34 -32 126.68 -32 126 C-32.87978516 125.61328125 -32.87978516 125.61328125 -33.77734375 125.21875 C-36.17337123 123.90493528 -37.68911552 122.4781599 -39.5625 120.5 C-41.67524223 118.27903267 -43.41613626 116.72257583 -46 115 C-46 114.34 -46 113.68 -46 113 C-46.89211182 112.59116577 -46.89211182 112.59116577 -47.80224609 112.17407227 C-49.94009989 111.03199951 -51.41611757 109.87707268 -53.1640625 108.21484375 C-53.72867188 107.68439453 -54.29328125 107.15394531 -54.875 106.60742188 C-55.74125 105.78081055 -55.74125 105.78081055 -56.625 104.9375 C-60.49326309 101.03429271 -60.49326309 101.03429271 -65 98 C-65 97.34 -65 96.68 -65 96 C-65.66 96 -66.32 96 -67 96 C-67 95.34 -67 94.68 -67 94 C-67.66 94 -68.32 94 -69 94 C-72.98123324 88.08847185 -72.98123324 88.08847185 -73.0625 83.375 C-71.75520504 79.222416 -70.52918496 77.55302742 -67 75 C-62.59806507 73.42194785 -59.74822528 73.68495778 -55.4375 75.5 C-52.19581004 77.63423479 -49.56411711 80.25579395 -46.90234375 83.06396484 C-45.1142081 84.88376922 -43.27301242 86.54836998 -41.3359375 88.20703125 C-36.79750774 92.14487112 -32.42515273 96.2443628 -28.0625 100.375 C-27.29615234 101.09816406 -26.52980469 101.82132812 -25.74023438 102.56640625 C-20.24503968 107.75496032 -20.24503968 107.75496032 -19 109 C-19.00222061 107.84234634 -19.00444122 106.68469269 -19.00672913 105.49195862 C-19.02703633 94.56066776 -19.04200861 83.62938076 -19.05181217 72.69807529 C-19.05702176 67.07873814 -19.06408438 61.45941626 -19.07543945 55.84008789 C-19.08633681 50.41305835 -19.09229133 44.98604347 -19.09487724 39.55900383 C-19.09671917 37.49266263 -19.10031593 35.42632219 -19.10573006 33.35998726 C-19.11303144 30.45685238 -19.11398712 27.55377741 -19.11352539 24.65063477 C-19.11712067 23.80402283 -19.12071594 22.95741089 -19.12442017 22.08514404 C-19.09629054 5.64724087 -19.09629054 5.64724087 -14 0 C-9.4248897 -2.49551471 -4.56706023 -2.58861713 0 0 Z " fill="#127D3E" transform="translate(257,173)"/>
<path d="M0 0 C4.40662979 5.15904709 4.56231652 9.29083927 4.4699707 15.92089844 C4.4721611 16.90367264 4.4743515 17.88644684 4.47660828 18.89900208 C4.4789134 22.13613928 4.45270109 25.37235961 4.42578125 28.609375 C4.42085676 30.86045035 4.41755826 33.1115298 4.41581726 35.36260986 C4.40818445 40.07341649 4.38764106 44.78391851 4.35668945 49.49462891 C4.31702423 55.54321876 4.29906538 61.59161089 4.28938007 67.64031601 C4.27942558 73.40086262 4.25952818 79.16136061 4.23828125 84.921875 C4.2348855 86.02581352 4.23148975 87.12975204 4.2279911 88.26714325 C4.2164574 91.37704819 4.19794497 94.48682562 4.17700195 97.59667969 C4.17431305 98.52448746 4.17162415 99.45229523 4.16885376 100.40821838 C4.16169846 101.25212631 4.15454315 102.09603424 4.14717102 102.96551514 C4.1407608 104.06827349 4.1407608 104.06827349 4.13422108 105.19330978 C4 107 4 107 3 109 C3.67546875 108.44570313 4.3509375 107.89140625 5.046875 107.3203125 C6.38492187 106.23363281 6.38492187 106.23363281 7.75 105.125 C8.63171875 104.40570313 9.5134375 103.68640625 10.421875 102.9453125 C12.58176924 101.31557412 14.539766 100.09215995 17 99 C17 98.34 17 97.68 17 97 C17.66 97 18.32 97 19 97 C19 96.34 19 95.68 19 95 C20.2578125 93.73046875 20.2578125 93.73046875 22.125 92.1875 C24.98696079 89.79321308 27.70271133 87.32780644 30.33203125 84.68359375 C30.9254834 84.09876221 31.51893555 83.51393066 32.13037109 82.91137695 C33.31385295 81.74148547 34.48290549 80.55677124 35.63525391 79.35620117 C39.54787073 75.54389349 42.53832506 74.25731032 47.98657227 73.80810547 C50 74 50 74 53 76 C51.89591797 76.00386719 51.89591797 76.00386719 50.76953125 76.0078125 C45.20419444 76.0905061 45.20419444 76.0905061 40.2265625 78.2265625 C38.29453448 80.50986834 37.06451499 82.81935804 36.0625 85.625 C34.53293797 89.04402101 32.19996442 90.20002001 29 92 C28.34 92 27.68 92 27 92 C26.505 93.485 26.505 93.485 26 95 C25.34 95 24.68 95 24 95 C23.773125 95.53625 23.54625 96.0725 23.3125 96.625 C21.56617944 99.78500863 19.3597151 102.2676983 17 105 C16.01 104.505 16.01 104.505 15 104 C14.67 104.66 14.34 105.32 14 106 C12.33720673 107.0064275 10.67016516 108.00585407 9 109 C8.484375 109.5775 7.96875 110.155 7.4375 110.75 C6.963125 111.1625 6.48875 111.575 6 112 C4.68 111.67 3.36 111.34 2 111 C1.67 75.36 1.34 39.72 1 3 C0.01 3 -0.98 3 -2 3 C-2.33 2.34 -2.66 1.68 -3 1 C-7.21900957 0.5638859 -7.21900957 0.5638859 -10.75 2.5 C-11.1625 2.995 -11.575 3.49 -12 4 C-12.66 4 -13.32 4 -14 4 C-14.33 4.99 -14.66 5.98 -15 7 C-15.66 7 -16.32 7 -17 7 C-17 41.65 -17 76.3 -17 112 C-19.646132 109.353868 -19.24081163 107.42247538 -19.25994873 103.8223114 C-19.25432922 102.9553212 -19.24870972 102.08833099 -19.24291992 101.19506836 C-19.24481827 100.28264374 -19.24671661 99.37021912 -19.24867249 98.43014526 C-19.25239033 95.39995855 -19.24165615 92.37000935 -19.23046875 89.33984375 C-19.22927669 87.23433968 -19.22882384 85.12883508 -19.2290802 83.02333069 C-19.22751324 78.60056244 -19.21921169 74.17787489 -19.20581055 69.75512695 C-19.18889325 64.10171023 -19.18499411 58.44838287 -19.18575573 52.79494381 C-19.18548283 48.44105688 -19.17998115 44.08718927 -19.17275429 39.73330879 C-19.16958305 37.6502249 -19.16760384 35.56713883 -19.16686058 33.48405266 C-19.16467643 30.5595623 -19.15588577 27.63516376 -19.14526367 24.71069336 C-19.14571686 23.85787277 -19.14617004 23.00505219 -19.14663696 22.12638855 C-19.05952672 5.60650259 -19.05952672 5.60650259 -14 0 C-9.4248897 -2.49551471 -4.56706023 -2.58861713 0 0 Z " fill="#286C47" transform="translate(257,173)"/>
<path d="M0 0 C2.5625 2.875 2.5625 2.875 4 6 C3.75 8.375 3.75 8.375 3 10 C3 9.01 3 8.02 3 7 C2.34 7 1.68 7 1 7 C1 5.68 1 4.36 1 3 C0.01 3 -0.98 3 -2 3 C-2.33 2.34 -2.66 1.68 -3 1 C-7.21900957 0.5638859 -7.21900957 0.5638859 -10.75 2.5 C-11.1625 2.995 -11.575 3.49 -12 4 C-12.66 4 -13.32 4 -14 4 C-14.33 4.99 -14.66 5.98 -15 7 C-15.66 7 -16.32 7 -17 7 C-17 41.65 -17 76.3 -17 112 C-19.646132 109.353868 -19.24081163 107.42247538 -19.25994873 103.8223114 C-19.25432922 102.9553212 -19.24870972 102.08833099 -19.24291992 101.19506836 C-19.24481827 100.28264374 -19.24671661 99.37021912 -19.24867249 98.43014526 C-19.25239033 95.39995855 -19.24165615 92.37000935 -19.23046875 89.33984375 C-19.22927669 87.23433968 -19.22882384 85.12883508 -19.2290802 83.02333069 C-19.22751324 78.60056244 -19.21921169 74.17787489 -19.20581055 69.75512695 C-19.18889325 64.10171023 -19.18499411 58.44838287 -19.18575573 52.79494381 C-19.18548283 48.44105688 -19.17998115 44.08718927 -19.17275429 39.73330879 C-19.16958305 37.6502249 -19.16760384 35.56713883 -19.16686058 33.48405266 C-19.16467643 30.5595623 -19.15588577 27.63516376 -19.14526367 24.71069336 C-19.14571686 23.85787277 -19.14617004 23.00505219 -19.14663696 22.12638855 C-19.05952672 5.60650259 -19.05952672 5.60650259 -14 0 C-9.21545745 -2.60975048 -4.82419948 -2.3557662 0 0 Z " fill="#9AB3A5" transform="translate(257,173)"/>
<path d="M0 0 C18.05339381 0.05531862 35.01791164 3.19657142 51.38085938 11.01220703 C49.56835938 12.07470703 49.56835938 12.07470703 47.38085938 13.01220703 C46.39085937 12.68220703 45.40085937 12.35220703 44.38085938 12.01220703 C44.38085938 11.35220703 44.38085938 10.69220703 44.38085938 10.01220703 C43.22585938 9.88845703 42.07085937 9.76470703 40.88085938 9.63720703 C35.33843811 8.94440437 30.0749342 7.47161715 24.69335938 6.01220703 C11.21495528 2.75879915 -1.82084669 2.78232388 -15.61914062 3.01220703 C-15.61914062 3.34220703 -15.61914062 3.67220703 -15.61914062 4.01220703 C-24.01561941 5.89301828 -31.95405309 7.56269495 -40.61914062 7.01220703 C-28.54456072 0.24680171 -13.45157513 0.06269377 0 0 Z " fill="#3E825C" transform="translate(250.619140625,123.98779296875)"/>
<path d="M0 0 C0.80824219 0.10183594 1.61648438 0.20367187 2.44921875 0.30859375 C3.06410156 0.39238281 3.67898438 0.47617188 4.3125 0.5625 C4.3125 0.8925 4.3125 1.2225 4.3125 1.5625 C3.20841797 1.56636719 3.20841797 1.56636719 2.08203125 1.5703125 C-3.48330556 1.6530061 -3.48330556 1.6530061 -8.4609375 3.7890625 C-10.39296552 6.07236834 -11.62298501 8.38185804 -12.625 11.1875 C-14.15456203 14.60652101 -16.48753558 15.76252001 -19.6875 17.5625 C-20.3475 17.5625 -21.0075 17.5625 -21.6875 17.5625 C-22.0175 18.5525 -22.3475 19.5425 -22.6875 20.5625 C-23.3475 20.5625 -24.0075 20.5625 -24.6875 20.5625 C-25.0278125 21.366875 -25.0278125 21.366875 -25.375 22.1875 C-27.12132056 25.34750863 -29.3277849 27.8301983 -31.6875 30.5625 C-32.3475 30.2325 -33.0075 29.9025 -33.6875 29.5625 C-34.0175 30.2225 -34.3475 30.8825 -34.6875 31.5625 C-36.75390625 32.4140625 -36.75390625 32.4140625 -39.25 33.1875 C-40.48943359 33.57808594 -40.48943359 33.57808594 -41.75390625 33.9765625 C-42.39199219 34.16992188 -43.03007812 34.36328125 -43.6875 34.5625 C-42.02083333 32.89583333 -40.35416667 31.22916667 -38.6875 29.5625 C-37.800625 28.634375 -36.91375 27.70625 -36 26.75 C-33.6875 24.5625 -33.6875 24.5625 -31.6875 24.5625 C-31.6875 23.9025 -31.6875 23.2425 -31.6875 22.5625 C-31.0275 22.5625 -30.3675 22.5625 -29.6875 22.5625 C-29.6875 21.9025 -29.6875 21.2425 -29.6875 20.5625 C-28.4296875 19.29296875 -28.4296875 19.29296875 -26.5625 17.75 C-23.6856031 15.31729185 -20.88479476 12.83060258 -18.14453125 10.24609375 C-17.21374756 9.36884644 -17.21374756 9.36884644 -16.26416016 8.47387695 C-15.01451477 7.2922208 -13.76803506 6.10720692 -12.52490234 4.91870117 C-11.94305176 4.37060791 -11.36120117 3.82251465 -10.76171875 3.2578125 C-10.24182373 2.76297363 -9.72192871 2.26813477 -9.1862793 1.75830078 C-6.15870248 -0.65725081 -3.63358977 -0.47394649 0 0 Z " fill="#2F7E51" transform="translate(305.6875,247.4375)"/>
<path d="M0 0 C2.93652657 2.07900099 5.48233949 4.43546815 8 7 C7.34 7.66 6.68 8.32 6 9 C3 8 3 8 1.75 6 C0.04609285 3.67383686 0.04609285 3.67383686 -3.375 3.125 C-6.95287893 3.00162486 -8.85910068 3.38196096 -12 5 C-12.33 8.3 -12.66 11.6 -13 15 C-12.34 15 -11.68 15 -11 15 C-11 15.66 -11 16.32 -11 17 C-9.7934375 17.433125 -9.7934375 17.433125 -8.5625 17.875 C-6 19 -6 19 -5 21 C-5.66 21 -6.32 21 -7 21 C-7 21.66 -7 22.32 -7 23 C-7.66 23 -8.32 23 -9 23 C-9 22.34 -9 21.68 -9 21 C-9.66 21 -10.32 21 -11 21 C-11 20.34 -11 19.68 -11 19 C-11.66 19 -12.32 19 -13 19 C-16.98123324 13.08847185 -16.98123324 13.08847185 -17.0625 8.375 C-15.79915278 4.36201471 -14.24692221 2.62846083 -11 0 C-7.08978708 -1.30340431 -3.87851607 -1.26995659 0 0 Z " fill="#207241" transform="translate(201,248)"/>
<path d="M0 0 C9.28379707 16.09191492 4.22642538 45.98797333 0 63 C-0.33 63 -0.66 63 -1 63 C-1.0270043 61.54176788 -1.04639787 60.08339325 -1.0625 58.625 C-1.07410156 57.81289063 -1.08570313 57.00078125 -1.09765625 56.1640625 C-1 54 -1 54 0 52 C0.09772811 49.77253661 0.13077394 47.5421053 0.1328125 45.3125 C0.13376923 44.65419189 0.13472595 43.99588379 0.13571167 43.31762695 C0.13639225 41.92561752 0.13454646 40.5336049 0.13037109 39.14160156 C0.12502104 37.00839117 0.13032012 34.87539133 0.13671875 32.7421875 C0.13605795 31.39062453 0.13477674 30.0390617 0.1328125 28.6875 C0.13168457 27.45386719 0.13055664 26.22023437 0.12939453 24.94921875 C0.20369803 22.06774669 0.20369803 22.06774669 -1 20 C-0.91043781 17.93429135 -0.75439499 15.87122531 -0.5625 13.8125 C-0.16164362 9.17695568 0.10812258 4.64927112 0 0 Z " fill="#548B6D" transform="translate(372,221)"/>
<path d="M0 0 C0.66 0.99 1.32 1.98 2 3 C1.34 3 0.68 3 0 3 C0 4.32 0 5.64 0 7 C-0.66 7 -1.32 7 -2 7 C-2.33 8.65 -2.66 10.3 -3 12 C-3.66 12 -4.32 12 -5 12 C-5.0825 13.03125 -5.165 14.0625 -5.25 15.125 C-6.06463946 19.33397057 -7.32915914 21.68168257 -10 25 C-10.66 25 -11.32 25 -12 25 C-12.226875 25.721875 -12.45375 26.44375 -12.6875 27.1875 C-14.27331875 30.58568303 -16.26123324 32.45230999 -19 35 C-20.2375 36.36125 -20.2375 36.36125 -21.5 37.75 C-24.13205177 40.11884659 -25.52815843 40.70241358 -29 41 C-29 40.34 -29 39.68 -29 39 C-27.28515625 37.34375 -27.28515625 37.34375 -25.0625 35.5 C-22.07954821 33.11073001 -22.07954821 33.11073001 -20 30 C-19.34 30 -18.68 30 -18 30 C-18 29.34 -18 28.68 -18 28 C-17.34 28 -16.68 28 -16 28 C-15.71624512 27.41444336 -15.43249023 26.82888672 -15.14013672 26.22558594 C-14.1017973 24.19871181 -12.98455608 22.30737959 -11.7578125 20.390625 C-11.33113281 19.71773438 -10.90445312 19.04484375 -10.46484375 18.3515625 C-9.58095461 16.96517078 -8.69556945 15.57973155 -7.80859375 14.1953125 C-4.89105395 9.58682622 -2.36895707 4.91420862 0 0 Z " fill="#5D9574" transform="translate(346,289)"/>
<path d="M0 0 C2.0430177 7.2988455 1.42514321 13.29242787 -2 20 C-2.66 20 -3.32 20 -4 20 C-5.0042434 25.80654227 -5.13044613 31.42365793 -5.09765625 37.30859375 C-5.0962413 38.27531509 -5.09482635 39.24203644 -5.09336853 40.23805237 C-5.08780221 43.30456732 -5.07525599 46.37100738 -5.0625 49.4375 C-5.05748065 51.52538957 -5.0529185 53.61328028 -5.04882812 55.70117188 C-5.03784382 60.8008098 -5.02060255 65.90039223 -5 71 C-5.33 71 -5.66 71 -6 71 C-10.81763298 48.90482933 -9.24517179 20.81238672 0 0 Z " fill="#629678" transform="translate(132,204)"/>
<path d="M0 0 C0.625 1.75 0.625 1.75 1 4 C0.52521682 4.92845167 0.52521682 4.92845167 0.04084206 5.87565994 C-1.10297844 8.21017716 -1.25882684 9.65925858 -1.2784729 12.23944092 C-1.28963638 13.07794083 -1.30079987 13.91644073 -1.31230164 14.78034973 C-1.31446182 15.69169174 -1.31662201 16.60303375 -1.31884766 17.54199219 C-1.32889328 18.50817978 -1.3389389 19.47436737 -1.34928894 20.46983337 C-1.38017006 23.66217455 -1.39716991 26.85443168 -1.4140625 30.046875 C-1.43277017 32.26076991 -1.45234327 34.47465767 -1.4727478 36.6885376 C-1.52411732 42.51474795 -1.56371734 48.34098144 -1.60089111 54.16729736 C-1.64090048 60.11289209 -1.69200683 66.05839021 -1.7421875 72.00390625 C-1.8390039 83.66920301 -1.92339048 95.33455426 -2 107 C-2.33 107 -2.66 107 -3 107 C-3.06942177 93.4919292 -3.1227715 79.98390064 -3.15543652 66.47568798 C-3.17111178 60.20369873 -3.19238415 53.93183126 -3.22631836 47.65991211 C-3.25884522 41.61044933 -3.27683899 35.5611039 -3.28463173 29.51156044 C-3.29018723 27.20021021 -3.30103534 24.8888666 -3.31719017 22.57756615 C-3.33887547 19.34738512 -3.34197062 16.11769293 -3.34057617 12.88745117 C-3.351362 11.92576019 -3.36214783 10.96406921 -3.3732605 9.97323608 C-3.36913651 9.09404007 -3.36501251 8.21484406 -3.36076355 7.30900574 C-3.36352893 6.54483935 -3.36629431 5.78067297 -3.36914349 4.99335003 C-2.90623482 2.49367433 -1.92095537 1.60011603 0 0 Z " fill="#1B6E3E" transform="translate(243,177)"/>
<path d="M0 0 C4.88346661 0.45427596 7.47824579 1.57342833 11 5 C12.52333919 7.28500878 13.77455471 9.54910941 15 12 C17.52733235 12.65555119 17.52733235 12.65555119 20 13 C20 13.99 20 14.98 20 16 C20.99 16.33 21.98 16.66 23 17 C23 17.99 23 18.98 23 20 C23.598125 20.103125 24.19625 20.20625 24.8125 20.3125 C27.33421352 21.10503854 28.39685699 21.91591409 30 24 C30 24.99 30 25.98 30 27 C30.66 27 31.32 27 32 27 C32 27.66 32 28.32 32 29 C32.99 29.33 33.98 29.66 35 30 C34.01 30.495 34.01 30.495 33 31 C32.34 30.67 31.68 30.34 31 30 C31 29.34 31 28.68 31 28 C30.41347656 27.7421875 29.82695312 27.484375 29.22265625 27.21875 C26.82662877 25.90493528 25.31088448 24.4781599 23.4375 22.5 C21.32475777 20.27903267 19.58386374 18.72257583 17 17 C17 16.34 17 15.68 17 15 C16.40670898 14.72744385 15.81341797 14.4548877 15.20214844 14.17407227 C13.05947056 13.03170664 11.53817415 11.85949666 9.765625 10.21484375 C8.90517578 9.41916992 8.90517578 9.41916992 8.02734375 8.60742188 C7.44082031 8.05634766 6.85429687 7.50527344 6.25 6.9375 C5.64800781 6.38255859 5.04601562 5.82761719 4.42578125 5.25585938 C2.92768667 3.86137451 1.46087426 2.43343009 0 1 C0 0.67 0 0.34 0 0 Z " fill="#508F6A" transform="translate(194,271)"/>
<path d="M0 0 C3 1 3 1 4.75 3.625 C6.30838337 7.83263509 6.18145526 9.66500256 5 14 C2.89316995 16.87489147 0.40521707 19.25206624 -2.1875 21.6875 C-2.84814453 22.33783203 -3.50878906 22.98816406 -4.18945312 23.65820312 C-7.89876803 27.25034323 -11.60046872 30.29733304 -16 33 C-15.75 30.125 -15.75 30.125 -15 27 C-13.125 25.6875 -13.125 25.6875 -11 25 C-10.01 24.67 -9.02 24.34 -8 24 C-8 23.34 -8 22.68 -8 22 C-7.34 22 -6.68 22 -6 22 C-5.34 20.68 -4.68 19.36 -4 18 C-3.01 18 -2.02 18 -1 18 C-1 17.01 -1 16.02 -1 15 C-0.01 15 0.98 15 2 15 C1.85879286 13.06215735 1.71187127 11.12473045 1.5625 9.1875 C1.48128906 8.10855469 1.40007812 7.02960938 1.31640625 5.91796875 C1.09787539 2.94010095 1.09787539 2.94010095 0 0 Z " fill="#478461" transform="translate(310,249)"/>
<path d="M0 0 C1.32 0.66 2.64 1.32 4 2 C2.625 3.5 2.625 3.5 1 5 C0.34 5 -0.32 5 -1 5 C-1 5.66 -1 6.32 -1 7 C-6.12861823 12.33594535 -11.12404598 16.05971567 -18.6640625 16.25 C-22.32205643 15.85850901 -24.80619549 14.83473876 -28 13 C-28.33 12.34 -28.66 11.68 -29 11 C-28.01 10.67 -27.02 10.34 -26 10 C-25.34 10.33 -24.68 10.66 -24 11 C-24 11.66 -24 12.32 -24 13 C-19.38 13 -14.76 13 -10 13 C-9.67 11.68 -9.34 10.36 -9 9 C-8.01 9 -7.02 9 -6 9 C-6 7.35 -6 5.7 -6 4 C-5.01 4.33 -4.02 4.66 -3 5 C-3 4.01 -3 3.02 -3 2 C-2.01 2 -1.02 2 0 2 C0 1.34 0 0.68 0 0 Z " fill="#659778" transform="translate(268,301)"/>
<path d="M0 0 C0.33 0 0.66 0 1 0 C1.17015625 1.00417969 1.3403125 2.00835937 1.515625 3.04296875 C3.07222594 11.93252558 5.11590849 20.42946086 8 29 C8.36996094 30.11117188 8.73992187 31.22234375 9.12109375 32.3671875 C9.41113281 33.23601562 9.70117188 34.10484375 10 35 C8.109375 34.8046875 8.109375 34.8046875 6 34 C4.953125 31.8203125 4.953125 31.8203125 4.25 29.125 C4.00765625 28.24070312 3.7653125 27.35640625 3.515625 26.4453125 C3 24 3 24 3 21 C2.34 21 1.68 21 1 21 C1 20.01 1 19.02 1 18 C0.34 18 -0.32 18 -1 18 C-1.33 17.01 -1.66 16.02 -2 15 C-1.67 14.67 -1.34 14.34 -1 14 C0.03844843 9.26929047 0.08299878 4.81392914 0 0 Z " fill="#4C906A" transform="translate(146,260)"/>
<path d="M0 0 C0 0.33 0 0.66 0 1 C-1.10408203 1.00386719 -1.10408203 1.00386719 -2.23046875 1.0078125 C-7.79580556 1.0905061 -7.79580556 1.0905061 -12.7734375 3.2265625 C-14.71129129 5.51675334 -15.92973813 7.78921439 -16.875 10.625 C-18.67250645 14.41973584 -21.20256748 15.29770266 -25 17 C-27.2265625 16.6015625 -27.2265625 16.6015625 -29 16 C-11.42776129 -2.06645792 -11.42776129 -2.06645792 0 0 Z " fill="#619B78" transform="translate(310,248)"/>
<path d="M0 0 C0.99 0 1.98 0 3 0 C1.88046018 2.81224117 0.74661768 5.61757529 -0.40234375 8.41796875 C-4.37346607 18.13328804 -8.02459846 27.46566335 -9 38 C-9.33 38 -9.66 38 -10 38 C-10.72843014 28.44947153 -8.5571371 20.09838514 -6 11 C-5.01 11 -4.02 11 -3 11 C-3.020625 10.2575 -3.04125 9.515 -3.0625 8.75 C-3.00671312 6.29537721 -2.6930096 4.33890739 -2 2 C-1.34 2 -0.68 2 0 2 C0 1.34 0 0.68 0 0 Z " fill="#639D7B" transform="translate(157,197)"/>
<path d="M0 0 C-5.52760359 2.10575375 -10.06997733 3.37851209 -16 3 C-16 3.66 -16 4.32 -16 5 C-23.37540139 5.84290302 -30.60890773 6.06886889 -38.03125 5.9375 C-41.05742492 5.85459172 -41.05742492 5.85459172 -44 7 C-46.6875 6.5625 -46.6875 6.5625 -49 6 C-49.33 5.01 -49.66 4.02 -50 3 C-49.23034912 3.01571045 -48.46069824 3.0314209 -47.66772461 3.04760742 C-34.98163542 3.27240018 -11.11857704 -3.45059288 0 0 Z " fill="#5D9877" transform="translate(284,350)"/>
<path d="M0 0 C-3.46712111 1.15570704 -6.5414956 1.32835293 -10.1875 1.5625 C-12.09595703 1.68818359 -12.09595703 1.68818359 -14.04296875 1.81640625 C-15.01878906 1.87699219 -15.99460938 1.93757813 -17 2 C-17 2.33 -17 2.66 -17 3 C-25.39647878 4.88081125 -33.33491247 6.55048791 -42 6 C-31.02391028 -0.14991962 -12.15416823 -3.4353854 0 0 Z " fill="#578B6D" transform="translate(252,125)"/>
<path d="M0 0 C3.25023353 0.90989041 6.1995336 1.57295665 9.5625 2 C12.78489981 2.52610609 14.25031564 3.31529039 16.625 5.5 C7.82144609 6.12882528 0.03799043 3.78943674 -8.375 1.5 C-9.70721524 1.16222574 -11.03986942 0.82606017 -12.375 0.5 C-12.375 -0.16 -12.375 -0.82 -12.375 -1.5 C-8.53932683 -3.41783659 -3.94605783 -1.1306756 0 0 Z " fill="#4F8C68" transform="translate(223.375,369.5)"/>
<path d="M0 0 C0.33 0 0.66 0 1 0 C1.06735589 3.83928545 1.10167755 7.35776328 0.5 11.15820312 C-0.01293565 15.09939224 -0.12749343 18.93830735 -0.09765625 22.90234375 C-0.0962413 23.6249086 -0.09482635 24.34747345 -0.09336853 25.0919342 C-0.08782225 27.37383365 -0.0752802 29.65563079 -0.0625 31.9375 C-0.05747804 33.49544128 -0.05291636 35.05338412 -0.04882812 36.61132812 C-0.0378705 40.40759081 -0.02064372 44.20377813 0 48 C-2.54749691 44.17875464 -2.28820855 41.06846126 -2.265625 36.640625 C-2.26753845 35.81802185 -2.2694519 34.9954187 -2.27142334 34.14788818 C-2.27278432 32.4062062 -2.26909394 30.66451405 -2.26074219 28.92285156 C-2.25009586 26.27385237 -2.26061191 23.62553982 -2.2734375 20.9765625 C-2.27211482 19.28124852 -2.26955019 17.58593496 -2.265625 15.890625 C-2.26967346 15.10496155 -2.27372192 14.3192981 -2.27789307 13.50982666 C-2.23700574 8.64188358 -1.54374101 4.62202498 0 0 Z " fill="#1B7141" transform="translate(128,224)"/>
<path d="M0 0 C-0.13702643 2.94606829 -0.29875555 5.20159518 -2.296875 7.4765625 C-4.77732781 9.57635176 -6.90857036 10.96952345 -10 12 C-11.70855022 15.00007271 -11.70855022 15.00007271 -13 18 C-13.99 18 -14.98 18 -16 18 C-14.49279298 12.99795671 -11.5059646 9.89604982 -8 6.1875 C-7.18015625 5.2912793 -7.18015625 5.2912793 -6.34375 4.37695312 C-2.26192857 0 -2.26192857 0 0 0 Z " fill="#4F8E6A" transform="translate(165,158)"/>
<path d="M0 0 C0.99 0.33 1.98 0.66 3 1 C1.88121617 2.17262904 0.75476949 3.33795138 -0.375 4.5 C-1.00148437 5.1496875 -1.62796875 5.799375 -2.2734375 6.46875 C-4 8 -4 8 -6 8 C-6.25523437 8.57234375 -6.51046875 9.1446875 -6.7734375 9.734375 C-8.13087159 12.24173733 -9.71974104 14.1330456 -11.625 16.25 C-12.25664062 16.95640625 -12.88828125 17.6628125 -13.5390625 18.390625 C-14.02117187 18.92171875 -14.50328125 19.4528125 -15 20 C-15.61328125 18.171875 -15.61328125 18.171875 -16 16 C-14.1875 13.25 -14.1875 13.25 -12 11 C-11.34 11 -10.68 11 -10 11 C-9.67 9.68 -9.34 8.36 -9 7 C-8.01 7 -7.02 7 -6 7 C-5.62875 6.0409375 -5.62875 6.0409375 -5.25 5.0625 C-4 3 -4 3 -1.875 2.25 C-1.25625 2.1675 -0.6375 2.085 0 2 C0 1.34 0 0.68 0 0 Z " fill="#5B9670" transform="translate(182,168)"/>
<path d="M0 0 C11.55 0 23.1 0 35 0 C35 0.33 35 0.66 35 1 C33.1128125 1.07347656 33.1128125 1.07347656 31.1875 1.1484375 C20.36149791 1.6081922 9.72808382 2.4567142 -1 4 C-0.67 2.68 -0.34 1.36 0 0 Z " fill="#4E8B69" transform="translate(225,145)"/>
<path d="M0 0 C0.33 0 0.66 0 1 0 C1.33 2.31 1.66 4.62 2 7 C1.67 7 1.34 7 1 7 C0.86722656 8.04800781 0.73445313 9.09601563 0.59765625 10.17578125 C0.41942765 11.55470778 0.24103359 12.93361293 0.0625 14.3125 C-0.02451172 15.00279297 -0.11152344 15.69308594 -0.20117188 16.40429688 C-0.59210135 19.40142288 -1.0415004 22.12450119 -2 25 C-2.66 25 -3.32 25 -4 25 C-4.33 26.32 -4.66 27.64 -5 29 C-6.4405466 25.18301027 -5.49507205 22.7702431 -4.1875 19 C-2.13128982 12.71753084 -0.895573 6.54003964 0 0 Z " fill="#67997B" transform="translate(353,260)"/>
<path d="M0 0 C0.99 0 1.98 0 3 0 C1.56347895 4.91441412 -0.54159615 9.00238358 -3.125 13.375 C-3.49753906 14.01566406 -3.87007813 14.65632813 -4.25390625 15.31640625 C-5.16434002 16.88048477 -6.08148191 18.44065534 -7 20 C-7.66 18.68 -8.32 17.36 -9 16 C-8.01 16 -7.02 16 -6 16 C-5.87625 15.29875 -5.7525 14.5975 -5.625 13.875 C-4.96161655 10.82343613 -4.02788045 7.94659062 -3 5 C-2.34 5 -1.68 5 -1 5 C-0.67 3.35 -0.34 1.7 0 0 Z " fill="#478462" transform="translate(362,300)"/>
<path d="M0 0 C1.98 0.66 3.96 1.32 6 2 C6 2.99 6 3.98 6 5 C6.99 5 7.98 5 9 5 C9.33 5.99 9.66 6.98 10 8 C10.66 8.33 11.32 8.66 12 9 C12 9.66 12 10.32 12 11 C12.66 11 13.32 11 14 11 C14.66 12.98 15.32 14.96 16 17 C15.01 17 14.02 17 13 17 C11.39453125 15.3203125 11.39453125 15.3203125 9.8125 13.125 C9.28269531 12.40570313 8.75289063 11.68640625 8.20703125 10.9453125 C7 9 7 9 7 7 C6.34 7 5.68 7 5 7 C3.7109375 5.46875 3.7109375 5.46875 2.375 3.5 C1.70597656 2.52546875 1.70597656 2.52546875 1.0234375 1.53125 C0.68570312 1.0259375 0.34796875 0.520625 0 0 Z " fill="#52976B" transform="translate(323,176)"/>
<path d="M0 0 C0.33 0.99 0.66 1.98 1 3 C2.91666667 4.16666667 2.91666667 4.16666667 5 5 C7 6 7 6 7.74609375 7.70703125 C7.97425781 8.40183594 8.20242187 9.09664063 8.4375 9.8125 C9.55589021 12.99078239 10.75477781 15.43403178 13 18 C12.01 18 11.02 18 10 18 C8.0625 15.98828125 8.0625 15.98828125 6 13.3125 C5.319375 12.44238281 4.63875 11.57226562 3.9375 10.67578125 C2.11685886 8.16138775 0.3982252 5.77345328 -1 3 C-0.67 2.01 -0.34 1.02 0 0 Z " fill="#51906C" transform="translate(142,311)"/>
<path d="M0 0 C2.64 0.33 5.28 0.66 8 1 C8 1.33 8 1.66 8 2 C-1.91860067 4.33378839 -10.78161497 5.42511001 -21 5 C-18.06419434 3.04279623 -17.10177164 2.69804825 -13.76953125 2.3671875 C-12.96708984 2.28339844 -12.16464844 2.19960938 -11.33789062 2.11328125 C-10.08782227 1.99533203 -10.08782227 1.99533203 -8.8125 1.875 C-7.96751953 1.78863281 -7.12253906 1.70226562 -6.25195312 1.61328125 C-4.16871077 1.4014261 -2.08443958 1.19973223 0 1 C0 0.67 0 0.34 0 0 Z " fill="#5A906F" transform="translate(275,370)"/>
<path d="M0 0 C4.32152118 1.28753286 7.83881582 2.93264457 11.625 5.375 C12.54539062 5.96023437 13.46578125 6.54546875 14.4140625 7.1484375 C16.88642824 8.91868125 18.92321816 10.78671606 21 13 C17 13 17 13 15.25 11.5 C14.8375 11.005 14.425 10.51 14 10 C13.67 10.66 13.34 11.32 13 12 C10.47154472 10.73577236 10.23577236 9.47154472 9 7 C8.34 6.67 7.68 6.34 7 6 C7 5.34 7 4.68 7 4 C4.03 3.505 4.03 3.505 1 3 C0.67 2.01 0.34 1.02 0 0 Z " fill="#5E9974" transform="translate(306,138)"/>
<path d="M0 0 C4.01634066 3.46330053 6.02328912 7.44613754 8.3125 12.125 C8.68439453 12.85332031 9.05628906 13.58164063 9.43945312 14.33203125 C10.36110629 16.18906799 11.18865541 18.09218713 12 20 C11.67 20.66 11.34 21.32 11 22 C8.17970072 20.58985036 7.41850081 18.77252431 6 16 C6 14.68 6 13.36 6 12 C5.34 12 4.68 12 4 12 C4 10.35 4 8.7 4 7 C3.34 7 2.68 7 2 7 C0 4 0 4 0 0 Z " fill="#508965" transform="translate(354,180)"/>
<path d="M0 0 C0.33 0 0.66 0 1 0 C3.10396411 5.93317878 4.75971762 11.82777121 6 18 C6.33 18 6.66 18 7 18 C6.67 21.63 6.34 25.26 6 29 C5.67 29 5.34 29 5 29 C4.81824219 28.03320312 4.63648438 27.06640625 4.44921875 26.0703125 C3.13913867 19.24683239 1.76853229 12.62245195 -0.546875 6.05078125 C-1.06768668 3.69365943 -0.75734176 2.2669081 0 0 Z " fill="#6AA681" transform="translate(348,211)"/>
<path d="M0 0 C2.93652657 2.07900099 5.48233949 4.43546815 8 7 C7.34 7.66 6.68 8.32 6 9 C3 8 3 8 1.5625 6.0625 C-0.24478405 3.67688506 -1.15862523 2.92152695 -4 2 C-6.6911652 1.84503847 -9.299518 1.90998393 -12 2 C-9.76115492 -2.47769015 -4.08922477 -1.3389497 0 0 Z " fill="#5F9777" transform="translate(201,248)"/>
<path d="M0 0 C3.71599191 -0.20086443 4.77208445 -0.1519437 8 2 C8 2.66 8 3.32 8 4 C8.66 4 9.32 4 10 4 C10 4.99 10 5.98 10 7 C11.32 7.33 12.64 7.66 14 8 C14.33 9.65 14.66 11.3 15 13 C4.46431765 5.28295475 4.46431765 5.28295475 0 1 C0 0.67 0 0.34 0 0 Z " fill="#549873" transform="translate(308,163)"/>
<path d="M0 0 C-0.309375 0.598125 -0.61875 1.19625 -0.9375 1.8125 C-2.10209704 4.08956772 -2.10209704 4.08956772 -3 7 C-7.29299643 8.26264601 -9.87831311 7.62950412 -14 6 C-11.74402173 3.74402173 -9.95396133 3.03425808 -7 1.875 C-6.113125 1.52179688 -5.22625 1.16859375 -4.3125 0.8046875 C-2 0 -2 0 0 0 Z " fill="#338556" transform="translate(298,343)"/>
<path d="M0 0 C0.66 0.33 1.32 0.66 2 1 C-0.0173579 5.56559945 -2.14815057 8.79012547 -6 12 C-8.8125 12.8125 -8.8125 12.8125 -11 13 C-11 12.34 -11 11.68 -11 11 C-9.28515625 9.34375 -9.28515625 9.34375 -7.0625 7.5 C-4.07954821 5.11073001 -4.07954821 5.11073001 -2 2 C-1.34 2 -0.68 2 0 2 C0 1.34 0 0.68 0 0 Z " fill="#5C9673" transform="translate(328,317)"/>
<path d="M0 0 C1.32 0.66 2.64 1.32 4 2 C2.625 3.5 2.625 3.5 1 5 C0.34 5 -0.32 5 -1 5 C-1 5.66 -1 6.32 -1 7 C-2.53125 8.2890625 -2.53125 8.2890625 -4.5 9.625 C-5.1496875 10.07101562 -5.799375 10.51703125 -6.46875 10.9765625 C-6.9740625 11.31429688 -7.479375 11.65203125 -8 12 C-8.33 11.01 -8.66 10.02 -9 9 C-8.01 9 -7.02 9 -6 9 C-6 7.35 -6 5.7 -6 4 C-5.01 4.33 -4.02 4.66 -3 5 C-3 4.01 -3 3.02 -3 2 C-2.01 2 -1.02 2 0 2 C0 1.34 0 0.68 0 0 Z " fill="#3F815B" transform="translate(268,301)"/>
<path d="M0 0 C1.0828125 0.37125 1.0828125 0.37125 2.1875 0.75 C-0.84306792 3.19168979 -3.90268596 4.88027389 -7.4375 6.5 C-8.87996094 7.17289062 -8.87996094 7.17289062 -10.3515625 7.859375 C-11.16367187 8.15328125 -11.97578125 8.4471875 -12.8125 8.75 C-13.4725 8.42 -14.1325 8.09 -14.8125 7.75 C-14.1525 6.76 -13.4925 5.77 -12.8125 4.75 C-12.049375 4.605625 -11.28625 4.46125 -10.5 4.3125 C-7.62592877 3.93434907 -7.62592877 3.93434907 -5.3125 1.625 C-2.8125 -0.25 -2.8125 -0.25 0 0 Z " fill="#589275" transform="translate(307.8125,359.25)"/>
<path d="M0 0 C0.99 0.66 1.98 1.32 3 2 C1.39801112 3.46072532 -0.20667116 4.91849716 -1.8125 6.375 C-2.70582031 7.18710937 -3.59914063 7.99921875 -4.51953125 8.8359375 C-7 11 -7 11 -10 13 C-9.6875 10.625 -9.6875 10.625 -9 8 C-8.01 7.34 -7.02 6.68 -6 6 C-5.814375 5.01 -5.814375 5.01 -5.625 4 C-5 2 -5 2 -2.625 0.625 C-1.75875 0.41875 -0.8925 0.2125 0 0 Z " fill="#488F66" transform="translate(289,283)"/>
<path d="M0 0 C0.66 0.33 1.32 0.66 2 1 C-2.92105263 9.27631579 -2.92105263 9.27631579 -7.625 10.6875 C-8.85089844 11.06455078 -8.85089844 11.06455078 -10.1015625 11.44921875 C-10.72804688 11.63097656 -11.35453125 11.81273437 -12 12 C-10.33333333 10.33333333 -8.66666667 8.66666667 -7 7 C-6.113125 6.071875 -5.22625 5.14375 -4.3125 4.1875 C-2 2 -2 2 0 2 C0 1.34 0 0.68 0 0 Z " fill="#5D9677" transform="translate(274,270)"/>
<path d="M0 0 C1.125 3.75 1.125 3.75 0 6 C-0.99 6 -1.98 6 -3 6 C-3 8.31 -3 10.62 -3 13 C-4.65 13.33 -6.3 13.66 -8 14 C-6.58036591 8.32146365 -3.60636039 4.46825784 0 0 Z " fill="#52916C" transform="translate(148,176)"/>
<path d="M0 0 C4.00972202 3.67557852 6.45335415 7.18966896 9 12 C6.6875 11.8125 6.6875 11.8125 4 11 C1.23803936 7.5475492 0.50486259 4.34181831 0 0 Z " fill="#488B65" transform="translate(345,168)"/>
<path d="M0 0 C1.32 0.33 2.64 0.66 4 1 C2.75645114 2.29787866 1.5048736 3.58806759 0.25 4.875 C-0.44609375 5.59429687 -1.1421875 6.31359375 -1.859375 7.0546875 C-3.85122217 8.86479679 -5.5427658 9.94848086 -8 11 C-7.40339753 7.65902615 -6.36924875 5.45699871 -4 3 C-2.68 3 -1.36 3 0 3 C0 2.01 0 1.02 0 0 Z " fill="#4F8E69" transform="translate(336,337)"/>
<path d="M0 0 C0.33 0.66 0.66 1.32 1 2 C3.02463255 2.65213292 3.02463255 2.65213292 5 3 C5 3.66 5 4.32 5 5 C5.804375 5.28875 6.60875 5.5775 7.4375 5.875 C10 7 10 7 11 9 C10.34 9 9.68 9 9 9 C9 9.66 9 10.32 9 11 C8.34 11 7.68 11 7 11 C7 10.34 7 9.68 7 9 C6.34 9 5.68 9 5 9 C5 8.34 5 7.68 5 7 C4.34 7 3.68 7 3 7 C0.70351351 4.4385343 0 3.52032428 0 0 Z " fill="#568F6D" transform="translate(185,260)"/>
<path d="M0 0 C5.76044212 0.60636233 10.72014369 2.75658279 16 5 C14.1875 6.0625 14.1875 6.0625 12 7 C11.01 6.67 10.02 6.34 9 6 C9 5.34 9 4.68 9 4 C8.2575 4.0825 7.515 4.165 6.75 4.25 C3.21842973 3.92894816 2.23369636 2.64734383 0 0 Z " fill="#578F6D" transform="translate(286,130)"/>
<path d="M0 0 C6.81818182 1.96969697 6.81818182 1.96969697 9 5 C9 5.99 9 6.98 9 8 C9.66 8 10.32 8 11 8 C11 8.66 11 9.32 11 10 C11.99 10.33 12.98 10.66 14 11 C13.01 11.495 13.01 11.495 12 12 C11.34 11.67 10.68 11.34 10 11 C10 10.34 10 9.68 10 9 C9.40703125 8.74476563 8.8140625 8.48953125 8.203125 8.2265625 C5.78775462 6.88183502 4.48788294 5.50785633 2.75 3.375 C2.22921875 2.74335938 1.7084375 2.11171875 1.171875 1.4609375 C0.78515625 0.97882813 0.3984375 0.49671875 0 0 Z " fill="#599673" transform="translate(215,290)"/>
<path d="M0 0 C2.46091594 2.46091594 3.02845243 4.518796 4.125 7.8125 C4.47820312 8.85019531 4.83140625 9.88789063 5.1953125 10.95703125 C5.94839581 13.80485601 6.16215769 16.07575626 6 19 C5.34 18.01 4.68 17.02 4 16 C3.47792969 15.40703125 2.95585937 14.8140625 2.41796875 14.203125 C0.57214825 11.3352386 0.49644625 9.13461106 0.3125 5.75 C0.24675781 4.67234375 0.18101562 3.5946875 0.11328125 2.484375 C0.07589844 1.66453125 0.03851563 0.8446875 0 0 Z " fill="#669C7C" transform="translate(366,202)"/>
<path d="M0 0 C0 0.66 0 1.32 0 2 C0.66 2.33 1.32 2.66 2 3 C1.01 3 0.02 3 -1 3 C-1 2.34 -1 1.68 -1 1 C-2.77395508 1.42466497 -4.54410631 1.8652409 -6.3125 2.3125 C-7.29863281 2.55613281 -8.28476562 2.79976562 -9.30078125 3.05078125 C-12.00141012 4.00049589 -13.20956216 4.81847677 -15 7 C-15.66 6.67 -16.32 6.34 -17 6 C-11.94288689 -0.56057917 -8.04733602 -0.77323157 0 0 Z " fill="#207241" transform="translate(310,249)"/>
<path d="M0 0 C2.58361518 -0.05407567 5.16609255 -0.093707 7.75 -0.125 C8.84441406 -0.15013672 8.84441406 -0.15013672 9.9609375 -0.17578125 C13.8044624 -0.21072239 16.74606772 -0.17499684 20 2 C12.80798031 2.88701576 6.93171463 3.26613747 0 1 C0 0.67 0 0.34 0 0 Z " fill="#166D3B" transform="translate(241,355)"/>
<path d="M0 0 C0.66 0 1.32 0 2 0 C0.69522778 3.91431665 -0.98673306 4.57812588 -4.4375 6.75 C-5.92056641 7.70132812 -5.92056641 7.70132812 -7.43359375 8.671875 C-8.28050781 9.11015625 -9.12742187 9.5484375 -10 10 C-10.66 9.67 -11.32 9.34 -12 9 C-11.67 8.01 -11.34 7.02 -11 6 C-9.35 6 -7.7 6 -6 6 C-5.67 4.68 -5.34 3.36 -5 2 C-3.35 2 -1.7 2 0 2 C0 1.34 0 0.68 0 0 Z " fill="#4D9068" transform="translate(322,350)"/>
<path d="M0 0 C0.66 0 1.32 0 2 0 C1.46324097 3.85103301 -0.11600923 5.31797587 -3.0625 7.75 C-4.16271484 8.67039062 -4.16271484 8.67039062 -5.28515625 9.609375 C-5.85105469 10.06828125 -6.41695313 10.5271875 -7 11 C-8 8 -8 8 -7 5 C-4.71108972 3.62665383 -2.54247553 2.84749184 0 2 C0 1.34 0 0.68 0 0 Z " fill="#56966E" transform="translate(302,271)"/>
<path d="M0 0 C3.24661284 1.52703671 4.4502875 3.72480977 5.91015625 6.8984375 C5.66015625 9.2734375 5.66015625 9.2734375 4.91015625 10.8984375 C4.91015625 9.9084375 4.91015625 8.9184375 4.91015625 7.8984375 C4.25015625 7.8984375 3.59015625 7.8984375 2.91015625 7.8984375 C2.91015625 6.5784375 2.91015625 5.2584375 2.91015625 3.8984375 C1.92015625 3.8984375 0.93015625 3.8984375 -0.08984375 3.8984375 C-0.41984375 3.2384375 -0.74984375 2.5784375 -1.08984375 1.8984375 C-3.21561157 1.43192543 -3.21561157 1.43192543 -5.65234375 1.2734375 C-6.47863281 1.19867188 -7.30492187 1.12390625 -8.15625 1.046875 C-8.79433594 0.99789062 -9.43242187 0.94890625 -10.08984375 0.8984375 C-6.25850337 -1.35931665 -4.16816922 -1.19980946 0 0 Z " fill="#7AA288" transform="translate(255.08984375,172.1015625)"/>
<path d="M0 0 C3.54470259 0.29539188 4.78215295 0.77626519 7.3125 3.375 C9 6 9 6 9 9 C9.99 9.33 10.98 9.66 12 10 C11.01 10.495 11.01 10.495 10 11 C6.40365256 7.50640535 3.16548033 3.88901869 0 0 Z " fill="#4E8A66" transform="translate(155,332)"/>
<path d="M0 0 C4.875 1.875 4.875 1.875 6 3 C6.04080783 4.99958364 6.04254356 7.00045254 6 9 C6.66 9 7.32 9 8 9 C8 10.65 8 12.3 8 14 C5.66635648 11.07096942 3.95039164 8.11431797 2.3125 4.75 C1.65701172 3.41195312 1.65701172 3.41195312 0.98828125 2.046875 C0.66214844 1.37140625 0.33601563 0.6959375 0 0 Z " fill="#649D79" transform="translate(338,195)"/>
<path d="M0 0 C2.31 0.33 4.62 0.66 7 1 C4.16797647 2.52593049 1.5063738 3.51690246 -1.625 4.25 C-2.78902344 4.53617188 -2.78902344 4.53617188 -3.9765625 4.828125 C-4.64429688 4.88484375 -5.31203125 4.9415625 -6 5 C-6.66 4.34 -7.32 3.68 -8 3 C-5.29120665 1.64560332 -2.99066732 1.93498549 0 2 C0 1.34 0 0.68 0 0 Z " fill="#599772" transform="translate(217,148)"/>
<path d="M0 0 C3 1 3 1 4.6875 3.8125 C6 7 6 7 6 11 C5.01 11.33 4.02 11.66 3 12 C3 10.02 3 8.04 3 6 C2.34 6 1.68 6 1 6 C0.67 4.02 0.34 2.04 0 0 Z " fill="#5D9173" transform="translate(310,249)"/>
<path d="M0 0 C1.31896465 0.92838287 2.62998689 1.86805732 3.9375 2.8125 C4.66839844 3.33457031 5.39929688 3.85664063 6.15234375 4.39453125 C8 6 8 6 9 9 C7.35 9 5.7 9 4 9 C0 2.25 0 2.25 0 0 Z " fill="#488560" transform="translate(334,157)"/>
<path d="M0 0 C1.65 0 3.3 0 5 0 C2.92141021 2.18092036 0.78143382 3.96390469 -1.6875 5.6875 C-2.31011719 6.12449219 -2.93273437 6.56148437 -3.57421875 7.01171875 C-4.04472656 7.33785156 -4.51523438 7.66398438 -5 8 C-5.66 7.67 -6.32 7.34 -7 7 C-7 6.34 -7 5.68 -7 5 C-6.01 4.67 -5.02 4.34 -4 4 C-4 3.34 -4 2.68 -4 2 C-2.68 2 -1.36 2 0 2 C0 1.34 0 0.68 0 0 Z " fill="#5B9978" transform="translate(192,160)"/>
<path d="M0 0 C0.33 0.99 0.66 1.98 1 3 C-1.31 4.65 -3.62 6.3 -6 8 C-6 7.34 -6 6.68 -6 6 C-6.66 5.67 -7.32 5.34 -8 5 C-7.01 5 -6.02 5 -5 5 C-4.87625 4.360625 -4.7525 3.72125 -4.625 3.0625 C-4.41875 2.381875 -4.2125 1.70125 -4 1 C-2 0 -2 0 0 0 Z " fill="#4C9067" transform="translate(278,294)"/>
<path d="M0 0 C0.99 0 1.98 0 3 0 C1.41037341 4.03520597 -0.28232318 8.01811282 -2 12 C-2.33 12 -2.66 12 -3 12 C-3.08004482 8.4780279 -3.04005702 5.38018531 -2 2 C-1.34 2 -0.68 2 0 2 C0 1.34 0 0.68 0 0 Z " fill="#5C9672" transform="translate(157,197)"/>
<path d="M0 0 C4.10958767 1.45044271 7.43258745 3.51110752 11 6 C8.13822943 7.43088528 6.06624227 6.59991697 3 6 C3.33 5.01 3.66 4.02 4 3 C2.68 3.33 1.36 3.66 0 4 C0 2.68 0 1.36 0 0 Z " fill="#5BA079" transform="translate(188,334)"/>
<path d="M0 0 C2.93200474 2.85276137 5.64315404 5.65079784 8 9 C7.34 9 6.68 9 6 9 C5.67 9.66 5.34 10.32 5 11 C0 3.74193548 0 3.74193548 0 0 Z " fill="#508D66" transform="translate(167,313)"/>
<path d="M0 0 C2.625 0.375 2.625 0.375 5 1 C3.625 2.5 3.625 2.5 2 4 C1.34 4 0.68 4 0 4 C-0.33 4.99 -0.66 5.98 -1 7 C-1.66 7 -2.32 7 -3 7 C-2.25 2.25 -2.25 2.25 0 0 Z " fill="#3F805B" transform="translate(243,173)"/>
<path d="M0 0 C0.99 0.33 1.98 0.66 3 1 C3 1.66 3 2.32 3 3 C5.64 3 8.28 3 11 3 C8.20046988 4.90368048 6.84226401 4.99184124 3.375 4.8125 C0 4 0 4 -2 1 C-1.34 0.67 -0.68 0.34 0 0 Z " fill="#4B8965" transform="translate(241,311)"/>
<path d="M0 0 C0.66 0.33 1.32 0.66 2 1 C-2.18461538 6.78461538 -2.18461538 6.78461538 -6.3125 7.875 C-7.6428125 7.936875 -7.6428125 7.936875 -9 8 C-6.17493137 5.0702992 -3.21203935 2.49825283 0 0 Z " fill="#669E7F" transform="translate(315,330)"/>
<path d="M0 0 C1.34173403 0.92543709 2.67320159 1.86577405 4 2.8125 C5.11375 3.59560547 5.11375 3.59560547 6.25 4.39453125 C6.8275 4.92433594 7.405 5.45414062 8 6 C8 6.99 8 7.98 8 9 C7.67 8.34 7.34 7.68 7 7 C3.97065509 6.34227572 3.97065509 6.34227572 1 6 C0.67 4.02 0.34 2.04 0 0 Z " fill="#4C8E68" transform="translate(179,326)"/>
<path d="M0 0 C0.12375 0.639375 0.2475 1.27875 0.375 1.9375 C0.58125 2.618125 0.7875 3.29875 1 4 C1.66 4.33 2.32 4.66 3 5 C4 6 4 6 4.09765625 7.84765625 C4.06510417 9.8984375 4.03255208 11.94921875 4 14 C0.73262697 10.73262697 0.04327104 7.16831802 -0.125 2.625 C-0.08375 1.75875 -0.0425 0.8925 0 0 Z " fill="#659E7F" transform="translate(128,278)"/>
<path d="M0 0 C0.66 0.33 1.32 0.66 2 1 C1.7452486 2.31571603 1.47065859 3.62760376 1.1875 4.9375 C1.03667969 5.66839844 0.88585937 6.39929688 0.73046875 7.15234375 C0.48941406 7.76207031 0.24835938 8.37179687 0 9 C-0.99 9.33 -1.98 9.66 -3 10 C-2.25 3.375 -2.25 3.375 0 0 Z " fill="#76A387" transform="translate(187,250)"/>
<path d="M0 0 C0.99 0.33 1.98 0.66 3 1 C2.04663979 2.31611677 1.08714226 3.62778961 0.125 4.9375 C-0.40867187 5.66839844 -0.94234375 6.39929688 -1.4921875 7.15234375 C-3 9 -3 9 -5 10 C-5 8.68 -5 7.36 -5 6 C-4.01 6 -3.02 6 -2 6 C-2 5.01 -2 4.02 -2 3 C-1.34 3 -0.68 3 0 3 C0 2.01 0 1.02 0 0 Z " fill="#639277" transform="translate(351,320)"/>
<path d="M0 0 C-0.33 1.32 -0.66 2.64 -1 4 C-6.75 5.125 -6.75 5.125 -9 4 C-2.25 0 -2.25 0 0 0 Z " fill="#5A936F" transform="translate(192,139)"/>
<path d="M0 0 C2.31 0 4.62 0 7 0 C7 0.66 7 1.32 7 2 C7.99 2.33 8.98 2.66 10 3 C10 3.66 10 4.32 10 5 C6.08788267 3.84414715 3.1254959 2.64465038 0 0 Z " fill="#4D8D65" transform="translate(190,360)"/>
<path d="M0 0 C-1.39332574 3.36720387 -2.9789286 4.9859524 -6 7 C-5.67 5.68 -5.34 4.36 -5 3 C-5.66 3 -6.32 3 -7 3 C-7 2.34 -7 1.68 -7 1 C-4.50935112 0.31292445 -2.62113708 0 0 0 Z " fill="#499466" transform="translate(346,330)"/>
<path d="M0 0 C1.32 0 2.64 0 4 0 C4 0.99 4 1.98 4 3 C4.99 3.33 5.98 3.66 7 4 C7 4.66 7 5.32 7 6 C4.625 5.8125 4.625 5.8125 2 5 C0.6875 2.4375 0.6875 2.4375 0 0 Z " fill="#42835F" transform="translate(210,284)"/>
<path d="M0 0 C-1.625 2.0625 -1.625 2.0625 -4 4 C-7.25 3.75 -7.25 3.75 -10 3 C-6.88378718 -0.11621282 -4.21175599 -0.11383124 0 0 Z " fill="#3E8F62" transform="translate(294,346)"/>
<path d="M0 0 C2.3125 0.1875 2.3125 0.1875 5 1 C6.75 3.4375 6.75 3.4375 8 6 C8.33 6.66 8.66 7.32 9 8 C4.7257442 6.4169423 2.73468206 3.49431596 0 0 Z " fill="#669B7A" transform="translate(202,278)"/>
<path d="M0 0 C0 3.69418201 -1.28179295 5.77836178 -3 9 C-3.99 9 -4.98 9 -6 9 C-4.68775452 5.06326356 -3.08089673 2.77280706 0 0 Z " fill="#6FA07F" transform="translate(155,167)"/>
<path d="M0 0 C-1.51934706 3.03869411 -3.98004772 3.64410306 -7 5 C-7.66 5 -8.32 5 -9 5 C-9 4.01 -9 3.02 -9 2 C-5.86501708 0.14223235 -3.62528568 -0.20140476 0 0 Z " fill="#5A9171" transform="translate(206,155)"/>
<path d="M0 0 C0 0.99 0 1.98 0 3 C-1.98 3 -3.96 3 -6 3 C-6 3.66 -6 4.32 -6 5 C-7.65 5 -9.3 5 -11 5 C-7.72709962 2.33319229 -4.35126896 0 0 0 Z " fill="#739E86" transform="translate(209,131)"/>
<path d="M0 0 C0.33 0.66 0.66 1.32 1 2 C-0.25 4.5625 -0.25 4.5625 -2 7 C-2.99 7.33 -3.98 7.66 -5 8 C-3.375 2.25 -3.375 2.25 0 0 Z " fill="#397D56" transform="translate(334,312)"/>
<path d="M0 0 C0.66 0.33 1.32 0.66 2 1 C-1.32307692 5.8 -1.32307692 5.8 -4.75 6.8125 C-5.4925 6.874375 -6.235 6.93625 -7 7 C-4.78071806 4.09197539 -3.07030857 2.04687238 0 0 Z " fill="#6DA57F" transform="translate(174,149)"/>
<path d="M0 0 C0.763125 0.20625 1.52625 0.4125 2.3125 0.625 C-0.74867568 3.24886487 -1.41923127 3.625 -5.6875 3.625 C-5.6875 2.965 -5.6875 2.305 -5.6875 1.625 C-2.6875 -0.375 -2.6875 -0.375 0 0 Z " fill="#42875D" transform="translate(307.6875,359.375)"/>
<path d="M0 0 C0.66 0.33 1.32 0.66 2 1 C0.8141763 4.37503669 -0.27573689 6.64722731 -3 9 C-3.33 7.68 -3.66 6.36 -4 5 C-3.01 5 -2.02 5 -1 5 C-0.67 3.35 -0.34 1.7 0 0 Z " fill="#67997E" transform="translate(357,311)"/>
<path d="M0 0 C4 4.625 4 4.625 4 8 C2.68 7.67 1.36 7.34 0 7 C0 4.69 0 2.38 0 0 Z " fill="#589371" transform="translate(160,302)"/>
<path d="M0 0 C2.64 1.98 5.28 3.96 8 6 C7.01 6.495 7.01 6.495 6 7 C5.01 6.67 4.02 6.34 3 6 C3 5.34 3 4.68 3 4 C2.01 4 1.02 4 0 4 C0 2.68 0 1.36 0 0 Z " fill="#629578" transform="translate(209,256)"/>
<path d="M0 0 C1.98 0.66 3.96 1.32 6 2 C6 2.99 6 3.98 6 5 C6.66 5.33 7.32 5.66 8 6 C7.01 6.33 6.02 6.66 5 7 C3.35 4.69 1.7 2.38 0 0 Z " fill="#74A886" transform="translate(323,176)"/>
<path d="M0 0 C7.50769231 0.61538462 7.50769231 0.61538462 10 2.5625 C10.33 3.036875 10.66 3.51125 11 4 C6.32674845 4 4.17640953 2.92757363 0 1 C0 0.67 0 0.34 0 0 Z " fill="#5A946F" transform="translate(291,154)"/>
<path d="M0 0 C3.26460973 1.80412643 4.88929795 2.83394693 7 6 C4.69 5.67 2.38 5.34 0 5 C0.33 4.34 0.66 3.68 1 3 C0.67 2.67 0.34 2.34 0 2 C0 1.34 0 0.68 0 0 Z " fill="#5B9370" transform="translate(225,271)"/>
<path d="M0 0 C3.77545388 1.09068668 6.47043472 1.9083091 9 5 C5 5 5 5 3.25 3.5 C2.8375 3.005 2.425 2.51 2 2 C1.67 2.66 1.34 3.32 1 4 C0.34 3.67 -0.32 3.34 -1 3 C-0.67 2.01 -0.34 1.02 0 0 Z " fill="#4A8F68" transform="translate(318,146)"/>
<path d="M0 0 C0.66 0 1.32 0 2 0 C2 0.66 2 1.32 2 2 C2.66 2.33 3.32 2.66 4 3 C3.67 3.66 3.34 4.32 3 5 C1.35 4.67 -0.3 4.34 -2 4 C-2 3.34 -2 2.68 -2 2 C-1.34 2 -0.68 2 0 2 C0 1.34 0 0.68 0 0 Z " fill="#197742" transform="translate(196,267)"/>
<path d="M0 0 C2.88575819 0.39803561 3.82189513 0.79009069 5.75 3.0625 C6.1625 3.701875 6.575 4.34125 7 5 C5.68 5.33 4.36 5.66 3 6 C3 5.34 3 4.68 3 4 C2.01 3.34 1.02 2.68 0 2 C0 1.34 0 0.68 0 0 Z " fill="#437D5D" transform="translate(215,263)"/>
<path d="M0 0 C2.475 0.495 2.475 0.495 5 1 C5.33 2.65 5.66 4.3 6 6 C3.97945196 4.35830472 1.97956942 2.69088222 0 1 C0 0.67 0 0.34 0 0 Z " fill="#619B72" transform="translate(317,170)"/>
<path d="M0 0 C0.33 0.99 0.66 1.98 1 3 C-0.65 4.32 -2.3 5.64 -4 7 C-3.6875 4.625 -3.6875 4.625 -3 2 C-2.01 1.34 -1.02 0.68 0 0 Z " fill="#5D9B75" transform="translate(283,289)"/>
<path d="M0 0 C2.79872437 2.52788007 4.45773019 4.20411134 5 8 C2 7 2 7 0 4 C0 2.68 0 1.36 0 0 Z " fill="#709C83" transform="translate(354,180)"/>
</svg>
