<svg width="32" height="32" viewBox="0 0 32 32" fill="none" xmlns="http://www.w3.org/2000/svg">
  <!-- Background Circle -->
  <circle cx="16" cy="16" r="15" fill="#3B82F6" stroke="#1E40AF" stroke-width="2"/>
  
  <!-- Chart Bars -->
  <rect x="8" y="20" width="2" height="8" fill="white" rx="1"/>
  <rect x="12" y="16" width="2" height="12" fill="white" rx="1"/>
  <rect x="16" y="12" width="2" height="16" fill="white" rx="1"/>
  <rect x="20" y="18" width="2" height="10" fill="white" rx="1"/>
  <rect x="24" y="14" width="2" height="14" fill="white" rx="1"/>
  
  <!-- AI Brain Icon -->
  <circle cx="16" cy="8" r="3" fill="white"/>
  <path d="M16 5C17.5 5 18.5 6 18.5 7.5C18.5 9 17.5 10 16 10C14.5 10 13.5 9 13.5 7.5C13.5 6 14.5 5 16 5Z" fill="#3B82F6"/>
  <circle cx="14.5" cy="7" r="0.5" fill="white"/>
  <circle cx="17.5" cy="7" r="0.5" fill="white"/>
  <path d="M16 8.5C16.5 8.5 16.8 8.8 16.8 9.2C16.8 9.6 16.5 9.9 16 9.9C15.5 9.9 15.2 9.6 15.2 9.2C15.2 8.8 15.5 8.5 16 8.5Z" fill="white"/>
</svg> 